<?xml version="1.0" encoding="UTF-8"?>
<svg width="441.28" height="342.4" version="1.1" viewBox="0 0 441.28 342.4" xmlns="http://www.w3.org/2000/svg"><path d="m203.7 327.75c-4.9153-0.32841-13.459-1.1832-17.44-1.7448-2.464-0.34762-5.056-0.71165-5.76-0.80896-6.0436-0.83543-22.825-4.7161-28.894-6.6819-10.156-3.2893-14.098-4.7257-21.666-7.895-4.1156-1.7236-14.718-6.9285-18.88-9.2689-1.584-0.89063-3.672-2.0536-4.64-2.5844s-1.832-1.0594-1.92-1.1746-0.52-0.38741-0.96-0.60492-1.6141-0.93457-2.6092-1.5935c-0.99505-0.65891-2.6998-1.774-3.7884-2.478s-2.7224-1.856-3.6308-2.56c-0.90837-0.704-1.8956-1.424-2.1938-1.6-0.73881-0.43601-4.7302-3.5249-9.3694-7.2508-4.3408-3.4863-15.754-14.628-19.453-18.989-1.3432-1.584-2.8997-3.4214-3.4588-4.083-1.5571-1.8426-8.0182-10.574-8.2263-11.117-0.10119-0.264-0.27393-0.552-0.38388-0.64-0.25497-0.20407-2.0431-2.8858-2.3471-3.52-0.12654-0.264-0.65435-1.128-1.1729-1.92s-1.1654-1.872-1.4375-2.4-0.90752-1.68-1.4122-2.56c-13.689-23.869-20.345-57.156-16.54-82.72 0.27507-1.848 0.64242-4.4141 0.81634-5.7025s0.38326-2.451 0.46522-2.5836c0.08195-0.13261-1.3198-1.7078-3.115-3.5005-3.6076-3.6026-5.7317-5.92-6.944-7.5761-2.7575-3.767-3.8345-5.3499-4.8972-7.1974-0.65807-1.144-1.3362-2.296-1.5069-2.56-4.4084-6.8162-8.3158-21.109-8.3158-30.418 0-3.9558 0.52908-4.3019 6.5772-4.3019 5.6647 0 6.3596 0.49732 6.6596 4.7662 0.46894 6.6712 3.3665 16.629 6.3419 21.794 0.20277 0.352 0.803 1.432 1.3339 2.4s1.7667 2.8216 2.7463 4.1192 2.0933 2.8096 2.475 3.36c2.6175 3.7751 10.811 10.685 15.961 13.461 0.872 0.46996 1.8014 0.98315 2.0654 1.1404 10.779 6.4208 28.91 8.2011 42.784 4.2009 6.0491-1.7441 11.599-4.3597 16.385-7.7217 5.6544-3.9724 6.0806-4.3432 11.423-9.939 0.59834-0.62671 1.0879-1.2786 1.0879-1.4487 0-0.17007 0.396-0.75408 0.88-1.2978 0.484-0.54373 1.024-1.2071 1.2-1.4742 0.176-0.26706 0.84599-1.2583 1.4889-2.2027 0.64288-0.94444 1.4573-2.2374 1.8099-2.8733 0.35256-0.63589 0.79606-1.4279 0.98554-1.76 9.6186-16.859 8.1193-43.664-3.3094-59.164-0.77861-1.056-1.7485-2.4017-2.1553-2.9904-2.2881-3.3111-8.3009-9.1481-11.792-11.448-0.88731-0.58437-1.8537-1.3029-2.1475-1.5967-0.29383-0.29383-0.97195-0.73448-1.5069-0.97921-0.53498-0.24474-1.4767-0.75024-2.0927-1.1233-6.1804-3.7433-18.062-7.2962-24.418-7.3015-4.3825-0.0037-5.738-8.3949-2.0697-12.812 3.6278-4.3685 29.524-2.5058 44.408 3.1943 1.848 0.70773 3.4786 1.289 3.6235 1.2917 2.2784 0.04252 17.457 9.2082 22.241 13.43 1.6044 1.416 3.0119 2.5745 3.1277 2.5745 0.73012 0 11.328 12.188 11.328 13.027 0 0.27838 3.02 2.6526 3.374 2.6526 0.10486 0 0.79847 0.41819 1.5414 0.9293 1.5568 1.0711 8.6366 4.5594 10.765 5.3039 15.57 5.447 24.607 6.8698 43.704 6.8805 19.236 0.01085 33.535-2.3047 44.936-7.2768 3.2714-1.4268 8.0335-3.7894 9.44-4.6835 0.88-0.55938 1.9981-1.2172 2.4846-1.4618 1.0246-0.51509 3.7554-3.1251 3.7554-3.5894 0-0.65969 6.2804-7.8976 8.9559-10.321 0.78977-0.71545 2.1527-2 3.0287-2.8546 8.1838-7.9834 23.205-15.531 37.935-19.062 13.883-3.3276 31.582-3.1916 34.4 0.26449 3.1797 3.8991 2.1233 11.974-1.6181 12.369-7.4843 0.79002-10.9 1.4911-16.354 3.3569-3.8962 1.3328-10.596 4.6644-13.093 6.5107-7.1421 5.2812-10.76 8.8546-15.046 14.862-1.0829 1.5179-3.9692 6.1194-3.9692 6.3279 0 0.06291-0.44605 1.0167-0.99122 2.1195-7.5673 15.308-6.946 39.674 1.3279 52.085 0.29332 0.44 0.76992 1.3062 1.0591 1.9248 1.8577 3.9743 9.7159 12.983 13.964 16.008 0.968 0.68937 2.768 1.9761 4 2.8594 17.519 12.561 46.189 12.67 63.68 0.24245 0.704-0.5002 1.928-1.3355 2.72-1.8563 1.4103-0.92734 4.5705-3.6412 6.5322-5.6097 9.225-9.2568 15.543-22.577 16.68-35.169 0.43504-4.8155 1.2441-5.44 7.0477-5.44 6.0463 0 6.6301 0.3957 6.374 4.32-0.59142 9.0615-2.9712 19.661-5.4605 24.32-0.23507 0.44-0.72877 1.4924-1.0971 2.3388-0.36838 0.84633-1.2815 2.5743-2.0292 3.84-0.74768 1.2657-1.4659 2.5172-1.596 2.7812-1.0118 2.053-4.629 7.0144-6.669 9.1472-1.0243 1.071-1.8624 2.0858-1.8624 2.2551s-1.404 1.6676-3.12 3.3295-3.0963 3.095-3.0672 3.1849c0.0291 0.0898 0.20998 1.2433 0.40208 2.5633 0.19209 1.32 0.59523 4.056 0.89584 6.08 0.69286 4.6652 0.80909 25.862 0.16841 30.72-2.5814 19.576-8.2091 36.949-16.741 51.68-0.50967 0.88-1.1513 2.032-1.4259 2.56-0.66605 1.2808-1.5718 2.7495-3.3315 5.402-0.80345 1.2111-1.6048 2.4325-1.7808 2.7143-0.97997 1.5688-3.2465 4.7931-3.8548 5.4837-0.38758 0.44-1.2504 1.592-1.9174 2.56-1.2122 1.7592-1.6208 2.2617-5.9858 7.36-3.1968 3.7339-15.58 15.971-18.322 18.106-1.232 0.95917-3.104 2.4638-4.16 3.3436-1.056 0.87979-2.2801 1.8496-2.7201 2.1552-0.44006 0.30558-1.8801 1.3576-3.2 2.3377-4.718 3.5035-10.931 7.7316-12.662 8.6174-0.51559 0.26372-1.0094 0.56403-1.0974 0.66735-0.21542 0.25293-4.7053 2.8532-4.9266 2.8532-0.0962 0-1.2231 0.61324-2.5042 1.3628-3.5197 2.0593-13.497 6.9302-18.169 8.8707-1.32 0.54817-3.048 1.2719-3.84 1.6084-16.813 7.142-39.564 12.594-62.24 14.916-4.8295 0.49449-36.701 0.91619-42.08 0.55676zm40.8-128.91c2.464-0.25527 5.848-0.61486 7.52-0.79906 1.672-0.18421 5.272-0.55512 8-0.82425 15.496-1.5288 20.906-2.3144 31.84-4.6243 0.88-0.1859 4.984-0.98437 9.12-1.7744 12.834-2.4515 16.265-3.4926 14.87-4.5128-0.32553-0.23803-0.9311-0.43278-1.3457-0.43278-0.41463 0-2.3671-0.28042-4.3388-0.62315-1.9717-0.34274-8.481-1.4196-14.465-2.393-5.984-0.97339-17.504-2.857-25.6-4.1857-8.096-1.3288-17.744-2.9114-21.44-3.5169-19.104-3.1297-36.895-2.881-59.68 0.83443-38.071 6.208-58.45 9.5561-59.2 9.7264-0.264 0.0599-0.84848 0.11995-1.2988 0.13341-2.9908 0.0894-0.6539 2.4063 3.0588 3.0326 1.2433 0.20971 9.3818 1.796 24.8 4.8337 8.2308 1.6216 13.661 2.3254 29.44 3.8158 0.968 0.0914 4.424 0.47266 7.68 0.84719 11.149 1.2825 40.555 1.5491 51.04 0.46286zm-31.488-44.05c1.5146-0.50406 3.649-2.6461 4.0843-4.0991 1.861-6.2116-4.9404-11.166-10.048-7.3198-5.9501 4.4808-1.0988 13.769 5.9639 11.419zm21.856-0.92983c3.6674-2.6338 3.654-7.9122-0.0269-10.556-4.1885-3.0079-10.342-0.0144-10.342 5.0312 0 5.5332 5.9454 8.701 10.369 5.5245zm-166.21-41.958c-4.2499-1.2619-6.2872-2.2224-8.513-4.0137-0.72212-0.58116-1.4421-1.0567-1.6-1.0568-0.75066-4.1e-4 -5.887-6.942-5.887-7.9561 0-0.30567-0.13002-0.69257-0.28895-0.85977-0.9954-1.0472-1.6877-5.4081-1.5665-9.868 0.81788-30.105 45.708-30.249 46.588-0.149 0.12655 4.3318-0.60572 9.0556-1.5528 10.017-0.16471 0.1672-0.2995 0.5272-0.29952 0.8-1.6e-4 1.7846-6.9348 9.936-8.4529 9.936-0.11045 0-0.73772 0.34607-1.394 0.76905-3.4948 2.2526-12.994 3.5806-17.033 2.3813zm291.76-0.72926c-6.2543-2.1327-10.498-5.8597-13.345-11.721-3.5075-7.2203-2.9051-17.927 1.3166-23.401 0.50109-0.64968 0.91107-1.275 0.91107-1.3895 0-0.70902 4.6443-5.0234 6.2269-5.7846 0.5352-0.25741 1.6211-0.81071 2.4131-1.2295 5.4483-2.8813 15.029-2.8367 20.649 0.09615 0.69923 0.36492 1.7033 0.87359 2.2313 1.1304 10.598 5.1542 14.106 22.551 6.7716 33.575-1.9269 2.896-3.3157 4.2432-6.5709 6.374-5.553 3.6349-14.009 4.5997-20.603 2.3508z" stroke-width=".32"/></svg>
