<?xml version="1.0" encoding="UTF-8"?>
<svg style="enable-background:new 0 0 512 512" version="1.1" viewBox="0 0 512 512" xml:space="preserve" xmlns="http://www.w3.org/2000/svg"><style type="text/css">
	.st0{fill:#1E1E1E;}
	.st1{fill:#464646;stroke:#21759B;stroke-width:2;stroke-miterlimit:10;}
	.st2{fill:#FFFFFF;}
</style><path d="m101.2 61.291c-23.858-0.47783-47.796 8.9318-66.886 27.613-27.509 26.993-32.323 75.133-9.6276 108.83 6.0176 9.1124 4.986 14.445-0.85966 22.526-30.26 41.952-31.635 92.672-4.4696 134.11 18.053 27.509 43.152 46.592 72.037 61.379 51.58 26.306 107.11 33.7 164.02 34.904 20.976 0.51579 41.952-1.722 62.755-4.473 52.611-6.8773 101.61-23.038 143.56-57.08 56.566-46.078 66.368-112.79 24.416-171.76-4.4702-6.3615-4.1291-11.004-0.17461-17.193 16.334-26.134 18.743-54.16 6.3635-82.356-27.165-61.724-106.43-72.384-149.93-20.632-2.4071 2.9229-4.6422 6.3629-8.5966 7.3944-9.4563 2.4071-14.955 9.6296-20.457 16.851-4.8141 6.3615-9.285 13.237-14.443 19.426-7.2212 8.7686-15.648 16.163-26.995 19.43-23.039 6.5334-43.671-0.51513-59.317-19.944-8.2528-10.316-13.411-24.245-24.93-30.434-12.551-6.7054-20.459-17.192-30.26-26.132-2.9229-2.579-5.8444-5.1593-8.9392-7.3945-14.668-9.7787-30.955-14.734-47.278-15.061zm-2.2398 23.829c35.246 0.17193 64.819 30.089 64.304 65.163-0.5158 35.074-30.603 64.475-65.506 64.304-34.387-0.34387-63.959-30.433-63.615-64.992 0.34387-35.934 29.227-64.647 64.817-64.475zm312.58 3.2674c35.418 0.17193 63.786 28.371 63.958 63.961 0.34386 36.278-27.851 64.475-64.129 64.475-36.622 0-64.304-27.683-64.304-64.132 0-36.106 28.369-64.304 64.475-64.304zm-157.15 0.7052c-6.9042 0.06981-13.833 0.41236-20.796 1.0141-13.755 1.2035-27.511 3.0961-40.75 7.3945-2.0632 0.68773-7.2198 0.85898-2.9215 5.3292 10.488 10.66 20.633 22.008 31.465 32.496 9.2844 9.1124 21.147 13.065 29.4 13.409 21.835 0.17193 36.621-7.0486 49.172-21.663 6.1896-7.0492 11.518-14.785 18.395-20.974 6.7054-6.0176 4.9887-7.9109-2.4044-9.8022-20.374-5.158-40.847-7.4126-61.56-7.203zm-154.41 27.489c-0.56311-0.0138-1.1296-0.012-1.6992 3e-3 -18.569 0.5158-32.836 15.301-32.493 33.869 0.34386 17.881 15.3 32.325 33.181 32.325 17.881 0 33.185-15.645 33.013-33.698-0.33312-17.822-14.545-32.094-32.002-32.499zm311.91 3.2708c-18.913-0.17193-33.181 13.755-33.181 32.667-0.17193 19.085 13.582 33.01 32.838 33.01 18.913 0 33.01-14.097 32.838-33.01-0.34387-18.569-14.099-32.495-32.496-32.667zm-109.37 117.73c2.9873 0.086 5.9532 2.7932 9.1339 8.1232 2.7509 4.6422 9.2837 9.6296 6.1889 15.131-2.9228 4.9861-10.145 1.0323-15.131 2.4077-5.8457-1.3755-13.583 2.7496-16.334-3.0962-2.4071-5.158 3.9544-10.143 6.8773-14.957 3.2667-5.158 6.2776-7.6953 9.2649-7.6094zm-92.36 0.0772c2.5396 0.22007 5.1036 2.4601 7.962 6.6725 3.2667 4.986 10.145 10.143 7.5657 15.645-2.9228 6.1896-11.178 1.7173-16.679 3.0928-5.158-0.85966-12.035 2.2365-14.786-2.0618-3.2667-4.986 3.0961-9.6269 5.6751-14.097 3.7718-6.4797 6.9971-9.5344 10.262-9.2515zm-66.701 93.307c1.4893-0.0839 3.2876 0.8563 4.6845 1.3936 24.243 8.9405 49.519 14.269 75.137 17.536 45.906 5.8457 90.436-1.2015 134.28-15.128 4.2983-1.3755 11.176-6.1889 12.895-1.8906 1.7193 5.3299-6.3602 7.0479-10.658 8.9392-30.948 14.27-63.273 23.9-96.628 29.746-2.9229 0.5158-5.6724 0.5158-8.9392 0.85966-28.197-4.1264-55.534-12.379-82.528-22.351-9.1124-3.4387-18.054-6.8773-26.307-12.035-2.0632-1.2035-5.6745-2.4091-4.1271-5.5039 0.5158-1.0961 1.2992-1.5145 2.1928-1.5648z"/><path d="m28.628 209.08c0.10708-3.8989-0.89351-6.5792-4.5912-12.298-7.6898-11.894-12.031-24.736-13.469-39.843-0.26222-2.7545-0.30115-12.029-0.06173-14.706 1.1123-12.438 4.03-23.009 9.1408-33.118 5.3859-10.653 12.116-18.798 22.295-26.986 14.4-11.582 31.163-18.618 48.647-20.419 4.7341-0.48766 12.246-0.5471 16.588-0.13123 12.582 1.2051 24.465 4.9387 35.4 11.123 4.3576 2.4641 7.0338 4.3138 10.541 7.2853 3.8754 3.2838 5.6654 4.9661 12.529 11.776 8.4796 8.4126 10.326 10.109 14.176 13.018 2.2608 1.7085 4.2765 3.0246 7.1879 4.6929 3.6963 2.1183 5.094 3.157 7.5869 5.6384 3.212 3.1972 5.5394 6.3323 10.488 14.129 5.6878 8.9602 7.8763 11.868 12.378 16.444 3.842 3.9058 7.2434 6.6824 11.182 9.1284 6.7378 4.184 13.507 6.5551 21.412 7.5005 2.1512 0.25727 8.3704 0.29169 10.588 0.0586 8.4686-0.89005 15.555-3.0502 21.461-6.5421 0.50111-0.29626 0.93321-0.53866 0.96021-0.53866s0.0491 12.468 0.0491 27.706v27.706l-81.676-8e-3c-46.665-5e-3 -81.576-0.052-81.441-0.1107 0.12941-0.0565 0.97647-0.40229 1.8824-0.76839 2.1794-0.88079 6.1856-2.8546 8.2353-4.0575 20.875-12.251 33.664-34.585 33.076-57.761-0.24187-9.5323-2.4131-18.14-6.7362-26.706-8.5855-17.011-24.109-29.54-42.34-34.173-5.8577-1.4886-10.675-2.0328-16.882-1.9074-4.3726 0.08835-7.174 0.38778-11.294 1.2072-21.354 4.247-39.2 19.266-47.237 39.756-3.9266 10.011-5.3644 21.193-4.0542 31.529 2.9143 22.992 18.845 43.399 40.879 52.367l1.5294 0.62246-48.476 0.01 0.04459-1.6236z" style="fill:#f00;stroke-width:.11765"/><path d="m96.176 182.69c-6.3837-0.55757-12.508-2.9875-17.765-7.0486-1.3564-1.0478-4.3729-4.0386-5.4562-5.4096-5.8796-7.441-8.2811-16.635-6.7694-25.915 0.9266-5.6885 3.3461-11.124 6.9267-15.561 1.0838-1.343 3.7591-3.9794 5.0636-4.9898 3.7707-2.9206 7.9663-4.991 12.412-6.1247 3.219-0.82094 4.7054-0.99452 8.5294-0.99601 3.6788-1e-3 4.761 0.10929 7.5294 0.77035 6.0122 1.4356 11.19 4.3393 15.598 8.7478 5.4671 5.4671 8.7079 12.255 9.5814 20.069 0.16099 1.44 0.1564 5.0397-8e-3 6.5389-1.4012 12.753-10.492 24.09-22.689 28.296-4.1818 1.442-8.6379 2.0005-12.953 1.6236z" style="fill:#f00;stroke-width:.11765"/><path d="m250.24 148.74c-2.2829-0.1332-5.9142-0.78341-8.3794-1.5004-7.1006-2.0651-13.445-5.575-19.032-10.529-2.0184-1.7896-11.594-11.519-18.472-18.77-3.6216-3.8176-7.8029-8.2035-9.2918-9.7464-6.5142-6.7502-6.791-7.0812-6.814-8.148-0.0219-1.016 0.80477-1.5898 3.1881-2.213 0.82886-0.21672 2.3806-0.66227 3.4482-0.99011 10.792-3.3137 23.328-5.4761 39.647-6.8385 12.339-1.0302 25.387-1.2166 37-0.5288 14.302 0.84716 27.188 2.7221 40.941 5.9568 6.0984 1.4344 8.0174 2.0991 9.1961 3.1857 0.66528 0.61324 0.8627 0.99496 0.8627 1.6681 0 1.5088-0.98772 2.8561-4.4945 6.1306-3.4966 3.265-6.0285 6.0632-10.959 12.112-7.1989 8.8311-9.7235 11.685-12.953 14.643-4.6343 4.2439-8.4357 6.8942-13.593 9.4771-7.2387 3.6254-16.255 5.765-25.294 6.0029-1.197 0.0315-2.6794 0.0719-3.2941 0.0898-0.61471 0.0178-1.3824 0.017-1.7059-2e-3z" style="fill:#f00;stroke-width:.11765"/><path d="m162.76 183.77c0-24.069 0.0205-27.143 0.19223-28.853 0.25914-2.5795 0.25853-8.1163-1e-3 -10.908-0.16965-1.8236-0.19103-5.0239-0.19103-28.587v-26.534l3.0882 3.0682c10.784 10.715 13.919 13.304 21.206 17.516 3.6966 2.137 5.7016 3.6734 8.2081 6.2894 3.046 3.1791 5.0324 5.9433 11.182 15.56 4.5648 7.1384 6.9801 10.261 11.298 14.606 4.2794 4.3066 8.0814 7.2726 12.831 10.01 6.0596 3.4919 13.564 5.8619 20.351 6.4271 2.5734 0.21433 9.4546 0.0809 11.66-0.22606 17.369-2.4177 27.959-9.5735 41.548-28.075 0.71285-0.97058 2.6636-3.6706 4.3351-6 6.222-8.6712 9.5118-12.817 12.655-15.947 3.8632-3.8468 7.5539-6.1023 12.211-7.4624 3.1688-0.92542 4.734-2.1265 7.8993-6.0615 2.4665-3.0663 3.7834-4.5159 7.1628-7.8844 4.0555-4.0425 7.2679-6.7981 11.307-9.6987 13.966-10.03 29.72-15.679 46.763-16.767 2.4226-0.15469 7.9454-0.15423 10.357 8.62e-4 15.93 1.0245 30.728 6.0376 43.623 14.778 9.3387 6.3303 17.133 14.162 23.652 23.766l1.37 2.0182v96.237l-0.47595 0.82553c-0.64151 1.1127-1.2112 2.4521-1.5704 3.6922-0.29296 1.0115-0.57926 3.1105-0.48615 3.5644 0.0262 0.12793 0.0735 0.53702 0.10512 0.90908l0.0574 0.67647-43.807-0.01 0.70569-0.32956c1.004-0.46755 3.6757-1.9215 5.0588-2.7529 19.484-11.713 30.949-32.928 30.372-56.202-0.10997-4.4322-0.55024-8.3501-1.3816-12.294-5.3053-25.17-25.105-44.618-50.413-49.518-2.1252-0.41144-5.4986-0.85295-7.7942-1.0201-2.4956-0.1817-8.8701-0.07931-11.195 0.17982-11.688 1.3027-21.866 5.1179-31.013 11.624-3.0264 2.1529-4.9834 3.8282-7.993 6.8425-5.038 5.046-8.6559 10.079-11.808 16.427-3.5752 7.2009-5.6834 14.712-6.5034 23.17-0.2343 2.4168-0.19586 10.128 0.0625 12.529 0.26817 2.4932 0.48345 3.9656 0.91166 6.2353 3.3593 17.806 13.891 33.015 29.166 42.12 0.74412 0.44356 2.3059 1.298 3.4706 1.8988l2.1176 1.0923-220.29 6e-3z" style="fill:#f00;stroke-width:.11765"/><path d="m408.47 185.45c-4.4943-0.4773-8.0258-1.3719-11.412-2.8907-9.143-4.1013-15.556-12.199-17.647-22.284-0.53733-2.5912-0.696-4.3399-0.69264-7.6333 3e-3 -3.1741 0.13336-4.6267 0.64284-7.1765 0.99368-4.973 3.2881-9.9141 6.4191-13.824 1.0278-1.2834 3.3478-3.6033 4.6311-4.6311 3.1384-2.5135 7.0457-4.5486 11.059-5.7599 5.7438-1.7337 12.678-1.8761 18.604-0.38186 5.6872 1.4339 10.658 4.2495 14.751 8.3545 5.1612 5.177 8.2385 11.598 9.3059 19.418 0.28543 2.091 0.28725 6.5809 4e-3 8.6471-0.82888 6.0355-2.7811 10.957-6.1367 15.471-5.0517 6.7949-12.322 11.039-21.293 12.43-1.1761 0.18241-2.2496 0.24561-4.6471 0.27359-1.7147 0.02-3.3294 0.0139-3.5882-0.0136z" style="fill:#f00;stroke-width:.11765"/><path d="m58.118 395.29c-11.977-9.1176-21.446-18.233-30.112-28.988-15.449-19.172-24.533-39.783-27.356-62.063-0.76618-6.0484-0.76047-20.828 0.010274-26.588 2.5787-19.272 9.4277-37.127 20.66-53.86 5.7032-8.4962 6.7497-10.606 7.0369-14.183 0.30817-3.8392-0.58452-6.3929-4.4551-12.744-4.1093-6.7434-7.2635-13.389-9.2883-19.57-10.79-32.94-1.6772-69.488 22.798-91.432 22.877-20.512 52.171-28.791 80.412-22.726 12.396 2.6616 26.88 9.4841 35.117 16.541 1.5529 1.3304 7.2965 6.7197 12.764 11.976 11.616 11.169 13.816 12.998 20.963 17.434 7.3347 4.552 10.658 8.108 17.924 19.179 9.2056 14.027 14.436 19.871 22.757 25.428 13.508 9.0208 30.01 11.091 46.063 5.7789 11.179-3.6996 19.446-10.634 30.654-25.715 3.0242-4.0692 7.3124-9.8337 9.5293-12.81 5.6806-7.6269 10.411-12.208 14.723-14.26 1.8957-0.90189 4.5055-2.0038 5.7996-2.4487 1.8334-0.63031 3.0283-1.5498 5.4118-4.1648 7.017-7.6985 16.01-16.244 20.235-19.228 14.92-10.537 30.811-16.009 48.504-16.702 14.519-0.56856 27.738 2.1353 40.775 8.3406 18.819 8.9572 32.692 23.021 42.124 42.704 10.232 21.352 11.809 44.012 4.5253 65.016-1.4561 4.199-6.3239 14.389-10.079 21.1-3.9541 7.066-3.5448 9.7516 2.9648 19.454 22.226 33.128 28.859 68.462 19.171 102.12-5.0165 17.429-14.16 33.577-27.55 48.654-7.4616 8.4022-14.518 14.819-25.095 22.823l-6.2205 4.7068-385.83-0.012zm202.37-23.54c5.708-0.70013 21.307-3.8779 31.241-6.3645 22.473-5.6251 40.982-11.892 62.158-21.047 3.8824-1.6784 8.6966-3.7293 10.698-4.5576 5.3369-2.2084 7.1355-4.7811 5.2372-7.4913-0.64989-0.92785-1.073-1.0655-2.7059-0.88055-1.0646 0.1206-3.493 0.90343-5.3966 1.7396-9.6928 4.2579-37.945 11.501-57.715 14.798-17.916 2.9869-28.175 3.8039-47.765 3.8039-18.355 0-22.838-0.31517-40.471-2.8457-24.072-3.4547-48.189-9.2271-65.596-15.701-2.8189-1.0483-5.7258-1.9061-6.4597-1.9061-1.8063 0-3.1198 1.9121-2.3995 3.493 1.0354 2.2724 15.383 9.5165 28.808 14.545 25.108 9.4043 50.921 16.933 71.065 20.727 12.771 2.4051 13.167 2.4398 19.301 1.6874zm54.708-108.9c1.6738-0.36736 3.1578-2.7643 3.1601-5.1042 2e-3 -2.104-1.1218-4.4656-3.6458-7.6609-1.008-1.2762-2.4472-3.2733-3.1981-4.438-3.4151-5.2969-6.5082-8-9.1544-8-1.8464 0-4.7399 1.92-6.587 4.3708-1.0167 1.349-3.2472 4.3146-4.9568 6.5904-4.7091 6.2685-5.6576 8.8488-4.2519 11.567 1.3594 2.6288 1.3662 2.6302 14.338 2.8835 6.6256 0.12942 12.258 0.20005 12.517 0.15695 0.25882-0.0431 1.0595-0.20759 1.7793-0.36556zm-91.787-0.57184c0.70738-0.35598 1.6074-1.2684 2-2.0277 1.5361-2.9705 0.57719-5.7287-4.0405-11.622-1.6557-2.113-3.9066-5.0041-5.002-6.4246-2.3854-3.0932-5.4465-4.8069-7.7017-4.3116-2.0929 0.45968-4.767 3.0602-7.6818 7.4705-1.3862 2.0974-3.2002 4.6605-4.0311 5.6958-4.0765 5.0789-4.4185 10.134-0.77864 11.507 0.55466 0.20929 6.6202 0.37587 13.479 0.37019 9.6292-8e-3 12.764-0.1578 13.757-0.65757zm197.68-46.316c24.118-3.6215 43.482-19.792 50.908-42.511 4.2476-12.995 4.2535-28.384 0.016-41.048-6.5334-19.524-21.381-34.321-40.81-40.67-6.6765-2.1818-11.923-2.9637-19.907-2.9667-17.647-0.0066-33.285 6.365-45.429 18.509-12.217 12.217-18.454 27.67-18.431 45.665 0.0246 19.369 7.325 35.874 21.301 48.155 8.15 7.1623 19.849 12.769 30.089 14.419 1.9412 0.31287 3.8471 0.63108 4.2353 0.70715 1.9151 0.37522 15.058 0.18515 18.028-0.26071zm-310.62-2.814c2.5193-0.51028 6.1193-1.4807 8-2.1565 33.862-12.168 52.244-48.028 41.458-80.874-5.1378-15.646-17.102-29.748-31.686-37.348-22.188-11.563-48.133-9.4877-68.089 5.4452-22.394 16.757-31.45 46.833-22.004 73.079 3.1505 8.754 8.2169 16.539 15.477 23.78 5.974 5.9588 11.801 10.114 18.837 13.433 6.8499 3.2311 11.25 4.4369 21.191 5.8074 2.8592 0.39419 12.368-0.26521 16.816-1.1662z" style="fill:#f00;stroke-width:.47059"/><path d="m245.88 450.51c-62.294-2.6546-104.92-11.533-145.41-30.285-24.678-11.429-44.732-24.941-60.733-40.917-12.118-12.1-20.984-24.163-27.706-37.698-5.7462-11.57-9.2909-22.753-11.176-35.259-1.1215-7.4389-1.097-23.536 0.047266-31.059 2.1504-14.137 7.7413-30.419 14.394-41.921 1.1106-1.92 3.904-6.3996 6.2075-9.9547 8.3484-12.884 8.6636-15.567 2.9727-25.301-4.0855-6.9879-7.5266-13.971-9.1612-18.59-6.7695-19.13-6.9199-39.843-0.43146-59.447 1.9924-6.0199 7.2861-16.351 11.105-21.672 10.033-13.979 27.238-26.42 44.892-32.46 10.765-3.6832 20.052-5.0408 31.7-4.6338 14.336 0.50095 26.944 4.0056 39.536 10.99 6.7618 3.7502 10.32 6.5779 20.469 16.268 13.681 13.062 16.161 15.179 23.296 19.887 8.4584 5.5806 11.493 8.7914 19.14 20.251 10.738 16.092 17.398 22.801 27.91 28.111 15.21 7.6836 34.326 7.138 49.069-1.4005 7.6294-4.4186 13.734-10.595 23.614-23.891 2.6925-3.6235 6.3947-8.6 8.2272-11.059 1.8324-2.4588 5.0292-6.1825 7.1038-8.2747 3.7337-3.7655 6.3495-5.3735 13.697-8.4199 1.3855-0.57443 4.1312-3.0928 9.6471-8.8482 11.34-11.832 18.269-17.038 30.19-22.679 19.954-9.4436 42.958-10.862 64.344-3.9672 14.569 4.6968 29.164 14.417 38.94 25.932 15.46 18.212 24.186 43.745 22.281 65.192-1.1812 13.291-3.4332 20.516-11.04 35.419-7.8143 15.31-7.879 14.235 1.7551 29.176 15.901 24.661 23.348 52.4 20.973 78.118-3.5694 38.647-26.836 73.188-67.262 99.852-41.048 27.075-85.692 41.018-151.06 47.178-16.005 1.5083-32.822 1.9909-47.529 1.3641zm13.659-78.765c11.042-1.3521 31.801-6.0337 48.929-11.035 15.87-4.6336 28.693-9.3128 47.059-17.171 12.036-5.1502 13.246-5.7934 14.322-7.6158 0.69733-1.1805 0.73634-1.6134 0.25098-2.7852-0.81658-1.9714-2.1707-2.1116-6.1622-0.63787-26.993 9.966-61.592 17.238-90.529 19.029-21.931 1.3568-42.084 0.15189-66.824-3.995-19.577-3.2815-34.319-6.9035-52.145-12.811-9.2622-3.0696-10.894-3.4834-11.912-3.0199-0.96251 0.43855-1.152 0.8174-1.0318 2.0632 0.12153 1.2599 0.59864 1.8262 2.7354 3.247 15.164 10.083 63.214 26.388 96.706 32.815 14.226 2.7302 12.993 2.6032 18.601 1.9165zm-40.166-109.12c2.9058-0.0309 3.575-0.2036 4.8075-1.2407 2.2057-1.856 2.3608-3.8524 0.57521-7.4014-1.7766-3.5311-9.5428-13.289-11.769-14.788-3.3755-2.2722-6.7706-0.97549-10.277 3.9252-7.908 11.051-9.0333 12.933-9.0544 15.139-0.0157 1.6483 1.2928 3.8161 2.4688 4.0899 1.1951 0.2783 11.059 0.5156 16.344 0.39319 1.9412-0.0449 5.0484-0.0979 6.9051-0.11764zm96.522-0.29976c1.2838-0.89925 2.4585-3.079 2.4446-4.5363-0.0176-1.839-1.637-4.7965-5.8218-10.632-9.0152-12.572-11.321-12.531-20.787 0.37376-5.7816 7.8812-6.6934 10.659-4.4673 13.61 1.1079 1.4688 3.9256 1.7723 17.217 1.8549 8.7046 0.0541 10.534-0.0533 11.414-0.67006zm109.62-47.312c21.039-4.5583 37.975-19.173 45.609-39.358 4.8244-12.756 5.1769-29.882 0.88061-42.779-6.696-20.1-21.739-35.028-41.626-41.311-11.121-3.513-25.852-3.5261-37.907-0.03372-5.2712 1.5271-12.572 4.9737-17.456 8.2411-4.7801 3.1979-13.456 11.874-16.654 16.654-7.6876 11.491-11.24 24.407-10.691 38.867 0.3896 10.259 2.0416 17.358 6.0103 25.83 8.2517 17.614 25.676 30.768 45.614 34.433 6.6033 1.2139 19.324 0.94978 26.22-0.54436zm-319.07-1.376c16.59-2.0802 33.014-11.855 43.357-25.806 17.237-23.248 17.434-53.019 0.50164-75.856-8.1029-10.928-19.173-18.961-32.029-23.24-6.7946-2.2617-12.137-3.0852-20.026-3.087-10.501-0.002352-18.992 1.9692-27.987 6.4979-12.404 6.2451-22.076 15.749-28.299 27.807-3.1207 6.0468-4.5981 10.093-6.0447 16.555-1.4491 6.4733-1.569 19.624-0.23464 25.735 2.7237 12.474 7.8966 22.071 17.008 31.555 12.695 13.214 27.935 20.2 44.259 20.288 3.1127 0.0169 7.3851-0.18562 9.4943-0.45009z" style="fill:#f00;stroke-width:.47059"/></svg>
