<?xml version="1.0" encoding="UTF-8"?>
<svg width="180.47mm" height="129.59mm" version="1.1" viewBox="0 0 180.47 129.59" xmlns="http://www.w3.org/2000/svg"><g transform="translate(-19.702 -91.72)"><path d="m102.36 221.18c-0.7276-0.0452-3.0493-0.27307-5.1594-0.50634s-5.5629-0.77837-7.6729-1.2113-4.3722-0.94913-5.0271-1.147c-0.65484-0.19793-2.0836-0.61496-3.175-0.92674-1.0914-0.31178-3.4727-1.1121-5.2917-1.7786s-4.873-1.9537-6.7867-2.8605c-1.9137-0.90685-4.6521-2.3368-6.0854-3.1777-1.4333-0.84091-3.6468-2.2264-4.9188-3.0789-1.2721-0.8525-3.5343-2.5244-5.0271-3.7154-1.4928-1.191-4.2642-3.7208-6.1585-5.6219-1.8944-1.9011-4.4671-4.8235-5.7171-6.4944-1.2501-1.6708-3.0255-4.288-3.9455-5.816s-2.2313-3.9688-2.9142-5.424c-0.68286-1.4552-1.6095-3.6579-2.0592-4.8948-0.44973-1.2369-1.1728-3.6308-1.6068-5.3197-0.43404-1.6889-0.98656-4.4869-1.2278-6.2177-0.3417-2.4513-0.40961-4.4043-0.30723-8.8355 0.07229-3.1287 0.27517-6.4284 0.45084-7.3327 0.3194-1.6442 0.3194-1.6442-1.89-4.0377-1.2152-1.3164-2.8831-3.4644-3.7066-4.7732-0.82344-1.3088-1.8695-3.274-2.3246-4.3671-0.45506-1.0931-1.0612-2.9083-1.3469-4.0337-0.28575-1.1254-0.59501-3.0603-0.68726-4.2997-0.1425-1.9147-0.10144-2.3085 0.27318-2.6194 0.2425-0.20125 1.0059-0.4202 1.6964-0.48656 0.77776-0.0747 1.6174 0.0305 2.2064 0.27665 0.91797 0.38355 0.9572 0.45651 1.1342 2.1092 0.10083 0.94157 0.39677 2.5316 0.65764 3.5334 0.26087 1.0018 0.80058 2.5953 1.1994 3.5412 0.39878 0.94588 1.3627 2.6825 2.1421 3.8591 0.77939 1.1766 2.2712 2.945 3.3151 3.9298 1.0439 0.98478 2.6981 2.3081 3.6759 2.9406 0.97785 0.63257 2.6879 1.5116 3.8001 1.9534 1.1122 0.44182 2.8866 1.0134 3.943 1.2701 1.4051 0.34145 2.9152 0.4599 5.6249 0.44121 3.2133-0.0222 4.0197-0.12017 6.0854-0.73965 1.3097-0.39275 3.3612-1.2033 4.559-1.8012 1.1978-0.59792 3.1028-1.829 4.2333-2.7356 1.1306-0.90667 2.6595-2.4063 3.3976-3.3326s1.6955-2.2794 2.1276-3.007c0.43206-0.7276 1.1043-2.0438 1.494-2.925 0.38962-0.88113 0.94943-2.6075 1.244-3.8365 0.40326-1.6822 0.53609-3.137 0.53749-5.8868 0.0016-3.1267-0.09653-4.0025-0.68168-6.0854-0.37594-1.3382-1.0671-3.207-1.5359-4.1529-0.46881-0.94588-1.1633-2.2076-1.5433-2.8039-0.37998-0.59626-1.288-1.8016-2.0178-2.6786-0.72981-0.87695-2.3029-2.3299-3.4958-3.2287-1.1929-0.89885-2.865-1.9857-3.7159-2.4152-0.8509-0.42953-2.4343-1.0706-3.5187-1.4246-1.0844-0.35398-2.9625-0.78156-4.1736-0.95018-1.5992-0.22265-2.3264-0.44984-2.6565-0.8299-0.25002-0.28783-0.5251-0.90179-0.61129-1.3644s-7.94e-4 -1.3129 0.18999-1.8897c0.22038-0.66658 0.67427-1.2691 1.2457-1.6536 0.81564-0.54887 1.196-0.60421 4.101-0.5966 1.7611 5e-3 4.3399 0.17117 5.7307 0.37013 1.3908 0.19895 3.5339 0.62906 4.7625 0.9558 1.2286 0.32673 3.2113 0.99444 4.4061 1.4838 1.1947 0.48935 2.7244 1.1833 3.3992 1.5421 0.67483 0.35881 2.2572 1.3344 3.5163 2.1679s3.3675 2.593 4.6852 3.9099c1.3177 1.3169 2.774 2.9482 3.2361 3.6253 0.46588 0.68255 1.4405 1.6003 2.1875 2.06 0.74099 0.45594 2.2018 1.2227 3.2462 1.704 1.0444 0.48124 2.6728 1.1293 3.6187 1.44 0.94589 0.31079 2.7318 0.79926 3.9688 1.0855s3.4824 0.66008 4.9899 0.83076c1.7691 0.2003 5.0995 0.26021 9.3927 0.16897 5.2203-0.11095 7.2015-0.25583 9.2062-0.67325 1.4049-0.29253 3.4885-0.82873 4.6302-1.1916 1.1417-0.36283 2.8499-0.99668 3.796-1.4086 0.94608-0.41188 2.4081-1.1466 3.2489-1.6326 0.99353-0.57434 2.0244-1.5007 2.9444-2.6458 0.77859-0.96914 2.4122-2.7284 3.6302-3.9095 1.218-1.1811 3.2267-2.8037 4.4636-3.6059 1.2369-0.80216 2.9633-1.8133 3.8365-2.247 0.87312-0.43368 2.3614-1.0942 3.3073-1.4678 0.94589-0.3736 2.6723-0.93504 3.8365-1.2476 1.1642-0.31259 3.3073-0.73434 4.7625-0.93723s3.9891-0.37266 5.6309-0.37727c1.9986-6e-3 3.2825 0.11589 3.885 0.36765 0.53148 0.22206 1.0872 0.73665 1.3572 1.2568 0.25145 0.4844 0.4578 1.3607 0.45855 1.9472 7.9e-4 0.58657-0.21077 1.3902-0.47004 1.7859-0.31394 0.47914-0.70427 0.72061-1.1686 0.72293-0.38345 2e-3 -1.7703 0.22496-3.0819 0.49567-1.3116 0.2707-3.2166 0.82144-4.2333 1.2238-1.0168 0.40242-2.6226 1.1887-3.5684 1.7474-0.94588 0.55865-2.4937 1.6907-3.4396 2.5156-0.94588 0.82494-2.4142 2.4026-3.2628 3.5059-0.84867 1.1033-2.0034 2.9611-2.5661 4.1284-0.56267 1.1673-1.2953 3.0749-1.6281 4.239-0.51862 1.8143-0.60417 2.7213-0.59897 6.35 5e-3 3.3593 0.10952 4.5884 0.5072 5.9531 0.27563 0.94588 0.83683 2.5402 1.2471 3.5428 0.41028 1.0027 1.3926 2.795 2.183 3.9828 0.79038 1.1879 2.1632 2.8678 3.0508 3.7332 0.88755 0.86539 2.2946 2.0361 3.1267 2.6016 0.83214 0.56548 2.4655 1.487 3.6296 2.0478 1.1642 0.56084 3.0692 1.2647 4.2333 1.5641 1.1642 0.29941 3.3073 0.61217 4.7625 0.69502 1.8528 0.1055 3.375 0.0232 5.0787-0.27457 1.3381-0.23387 3.3801-0.77092 4.5378-1.1934 1.1577-0.42252 2.8609-1.2107 3.7849-1.7514 0.92394-0.54077 2.4339-1.5942 3.3554-2.341s2.2992-2.1326 3.0616-3.0798 1.7975-2.4364 2.3002-3.3095c0.50275-0.87313 1.1114-2.0638 1.3526-2.6458 0.24119-0.58208 0.62049-1.6536 0.84287-2.3812 0.22239-0.7276 0.53846-2.1564 0.70238-3.175 0.16392-1.0186 0.34877-2.1178 0.41076-2.4426 0.062-0.32477 0.46227-0.77126 0.8895-0.99219s1.2533-0.40168 1.8358-0.40168 1.3623 0.13817 1.7329 0.30705 0.68927 0.43677 0.70805 0.59531c0.0188 0.15854 0.015 0.88357-8e-3 1.6112-0.0234 0.7276-0.17272 2.1564-0.33175 3.175-0.15903 1.0186-0.64313 2.8641-1.0758 4.101s-1.2211 3.0824-1.7522 4.101c-0.53107 1.0186-1.5894 2.6855-2.3517 3.7042-0.76239 1.0186-2.1494 2.626-3.0823 3.5719-1.6961 1.7198-1.6961 1.7198-1.3369 3.8365 0.19756 1.1642 0.43944 3.9026 0.53752 6.0854 0.11254 2.5048 0.0599 5.1887-0.14265 7.276-0.17653 1.819-0.5523 4.4341-0.83505 5.8113s-0.7593 3.3417-1.059 4.3656c-0.2997 1.0239-0.81982 2.6355-1.1558 3.5814-0.336 0.94588-1.1568 2.9597-1.824 4.4752-0.66719 1.5155-1.8869 3.8967-2.7104 5.2917s-2.2194 3.5483-3.1019 4.7852-2.0791 2.8443-2.659 3.5719c-0.57993 0.7276-2.8482 3.1118-5.0407 5.2982-2.2276 2.2215-5.3287 4.9793-7.029 6.251-1.6735 1.2516-4.0593 2.9297-5.3018 3.7292s-3.4451 2.0955-4.8948 2.8801c-1.4497 0.78461-3.8859 2.0046-5.4139 2.711-1.528 0.70643-3.7306 1.6411-4.8948 2.077-1.1642 0.43594-2.9501 1.0649-3.9688 1.3977-1.0186 0.33278-2.5069 0.78883-3.3073 1.0134-0.80036 0.22463-2.3482 0.6447-3.4396 0.9335-1.0914 0.2888-3.2941 0.76238-4.8948 1.0524s-3.8629 0.65512-5.0271 0.81136c-1.1642 0.15624-3.724 0.40371-5.6885 0.54993s-6.0722 0.24468-9.1281 0.2188c-3.0559-0.0259-6.1516-0.084-6.8792-0.12926zm23.716-54.183c4.7096-0.50286 9.9916-1.2088 11.738-1.5687s4.7823-0.96522 6.7469-1.3451c1.9645-0.37991 3.9864-0.88332 4.4931-1.1187 0.82599-0.38368 0.86702-0.44966 0.39687-0.63812-0.2884-0.1156-3.5009-0.6904-7.139-1.2773s-10.663-1.7442-15.61-2.5718c-8.9958-1.5047-8.9958-1.5047-16.272-1.5097-4.0018-3e-3 -7.7523 0.0645-8.3344 0.14946-0.58209 0.085-2.9038 0.45725-5.1594 0.82727-2.2556 0.37001-6.7799 1.1099-10.054 1.6441-3.2742 0.53425-8.2671 1.3522-11.095 1.8177-2.8282 0.4655-5.1808 0.96201-5.2279 1.1034-0.04712 0.14134 0.30237 0.40619 0.77664 0.58855 0.47427 0.18235 3.9579 0.93822 7.7415 1.6797 4.6847 0.91809 9.369 1.6242 14.684 2.2136 6.9747 0.77335 8.6536 0.86834 15.779 0.89275 7.3746 0.0253 8.6169-0.0414 16.536-0.88697zm-19.089-17.737c0.4205-0.21745 0.95037-0.66067 1.1775-0.98492 0.22712-0.32425 0.41294-1.1106 0.41294-1.7474 0-0.95414-0.14459-1.293-0.82173-1.9255-0.64052-0.59834-1.0703-0.76761-1.9487-0.76761-0.72924 0-1.3662 0.18821-1.8049 0.5333-0.3729 0.29332-0.81429 0.94629-0.98087 1.4511-0.16659 0.50476-0.22106 1.1875-0.12104 1.5172 0.10002 0.32971 0.43606 0.88038 0.74675 1.2237 0.3107 0.34333 0.80303 0.72274 1.0941 0.84312s0.74344 0.22642 1.0053 0.23565c0.26189 9e-3 0.82021-0.16114 1.2407-0.37859zm8.7612-0.20885c0.59752-0.40158 0.97824-0.9218 1.1352-1.5512 0.12993-0.52084 0.16211-1.2423 0.0715-1.6033-0.0906-0.36097-0.48103-0.97262-0.86763-1.3592-0.56392-0.56392-0.95191-0.70289-1.9623-0.70289-1.1104 0-1.3566 0.11063-2.0806 0.93525-0.5301 0.60375-0.82116 1.218-0.82116 1.7329 0 0.43872 0.1863 1.1579 0.414 1.5983s0.79325 0.96553 1.2568 1.1671c0.46353 0.2016 1.0931 0.37121 1.399 0.3769 0.3059 6e-3 0.96074-0.26154 1.4552-0.59385zm-70.427-18.259c-0.81194-0.34108-1.9052-0.94735-2.4296-1.3473s-1.2664-1.1376-1.649-1.6392-0.99215-1.5597-1.3545-2.3512c-0.51981-1.1354-0.66013-1.8744-0.66497-3.5019-0.0035-1.1779 0.16307-2.5323 0.3883-3.1572 0.21694-0.60192 0.57114-1.4354 0.78711-1.8521 0.21597-0.41673 0.91064-1.2705 1.5437-1.8973 0.63307-0.62679 1.9228-1.5198 2.8661-1.9844 1.526-0.75161 1.9636-0.84423 3.9687-0.83994 1.9656 4e-3 2.4735 0.10933 3.9735 0.82245 0.94588 0.4497 2.2312 1.3397 2.8563 1.9778 0.62508 0.63808 1.4414 1.7834 1.8141 2.5451 0.37269 0.76174 0.75714 2.0127 0.85433 2.7799 0.09719 0.7672 0.0866 2.0764-0.02355 2.9093-0.11014 0.8329-0.46643 2.0831-0.79176 2.7781-0.32533 0.69507-1.1626 1.8367-1.8605 2.5369s-1.9519 1.5913-2.7866 1.9802c-1.1969 0.55766-1.9929 0.72334-3.7666 0.78394-1.8758 0.0641-2.4939-0.0261-3.7252-0.5433zm123.02 0.20788c-0.67475-0.21623-1.8058-0.79037-2.5135-1.2759-0.70769-0.48551-1.7101-1.4396-2.2277-2.1203-0.51753-0.68067-1.1714-1.8613-1.4531-2.6237-0.33442-0.90516-0.5071-2.0288-0.49763-3.2382 8e-3 -1.0186 0.17245-2.3283 0.36549-2.9104 0.19304-0.58208 0.8221-1.7347 1.3979-2.5614 0.57582-0.82666 1.482-1.8034 2.0136-2.1704s1.562-0.94088 2.2896-1.2751c1.0792-0.49574 1.7615-0.60517 3.7042-0.5941 2.1698 0.0124 2.5252 0.0905 4.0024 0.87946 0.89166 0.47624 2.1127 1.3525 2.7134 1.9472 0.60069 0.59475 1.419 1.7468 1.8184 2.5601 0.64523 1.3138 0.72623 1.7745 0.72623 4.1302 0 2.4636-0.0617 2.7767-0.871 4.4207-0.51617 1.0485-1.3246 2.1645-1.9844 2.7394-0.61235 0.53356-1.7682 1.2756-2.5686 1.649-1.0996 0.51296-1.9724 0.69812-3.5719 0.75776-1.3522 0.0504-2.5598-0.0631-3.3435-0.3142z" style="stroke-width:.26458"/></g></svg>
