<?xml version="1.0" encoding="UTF-8"?>
<svg width="20px" height="20px" version="1.1" viewBox="0 0 20 20" xmlns="http://www.w3.org/2000/svg"><path d="M13.18 11.309c-.718 0-1.3.807-1.3 1.799 0 .994.582 1.801 1.3 1.801s1.3-.807 1.3-1.801c-.001-.992-.582-1.799-1.3-1.799zm4.526-4.683c.149-.365.155-2.439-.635-4.426 0 0-1.811.199-4.551 2.08-.575-.16-1.548-.238-2.519-.238-.973 0-1.945.078-2.52.238C4.74 2.399 2.929 2.2 2.929 2.2c-.789 1.987-.781 4.061-.634 4.426C1.367 7.634.8 8.845.8 10.497c0 7.186 5.963 7.301 7.467 7.301l1.734.002 1.732-.002c1.506 0 7.467-.115 7.467-7.301 0-1.652-.566-2.863-1.494-3.871zm-7.678 10.289h-.056c-3.771 0-6.709-.449-6.709-4.115 0-.879.31-1.693 1.047-2.369C5.537 9.304 7.615 9.9 9.972 9.9h.056c2.357 0 4.436-.596 5.664.531.735.676 1.045 1.49 1.045 2.369 0 3.666-2.937 4.115-6.709 4.115zm-3.207-5.606c-.718 0-1.3.807-1.3 1.799 0 .994.582 1.801 1.3 1.801.719 0 1.301-.807 1.301-1.801 0-.992-.582-1.799-1.301-1.799z"/><path d="m7.696 17.79c-0.87699-0.035022-1.663-0.16212-2.4065-0.38914-0.78772-0.24051-1.5887-0.65344-2.1659-1.1166-0.24859-0.19948-0.66065-0.61329-0.86459-0.86827-0.89841-1.1232-1.3728-2.5724-1.4502-4.4299-0.043713-1.0496 0.070492-1.8575 0.37087-2.6238 0.21653-0.55234 0.48711-0.99536 0.94022-1.5394l0.16359-0.19643-0.030508-0.13611c-0.040333-0.17994-0.040004-1.0599 5.48e-4 -1.4663 0.08483-0.85016 0.30331-1.8269 0.57444-2.5682l0.096627-0.26418 0.17061 0.032509c0.30185 0.057514 0.56594 0.13052 0.9547 0.26394 0.97337 0.33403 2.0341 0.86847 3.06 1.5418 0.3676 0.24126 0.3779 0.24621 0.46387 0.22306 0.99178-0.26706 3.4803-0.28686 4.689-0.037306l0.26159 0.054009 0.37083-0.24245c1.4171-0.92649 2.8919-1.5885 4.0214-1.8051l0.15886-0.030467 0.09663 0.26418c0.23834 0.65164 0.439 1.4872 0.53405 2.2238 0.08913 0.69072 0.10583 1.5059 0.0373 1.8207l-0.02663 0.12236 0.20379 0.24371c0.78884 0.94336 1.2062 2.0168 1.2694 3.2645 0.02248 0.44414-0.0036 1.1987-0.05747 1.6636-0.34886 3.01-1.9432 4.9376-4.7026 5.6854-0.68589 0.1859-1.325 0.27616-2.2075 0.31176-0.63203 0.0255-3.8749 0.02419-4.5264-0.0018zm3.5036-0.90162c1.4083-0.05672 2.3035-0.19036 3.1016-0.46303 0.34783-0.11884 0.87602-0.38747 1.1145-0.56685 0.74393-0.55948 1.1622-1.3508 1.2822-2.4258 0.03153-0.28256 0.03075-0.89767-0.0014-1.1118-0.09048-0.60248-0.30967-1.0908-0.69882-1.5568-0.34663-0.41508-0.68799-0.65453-1.1613-0.81463-0.6624-0.22403-1.2912-0.24616-3.1736-0.11166-1.0457 0.074715-2.2797 0.074715-3.3254 0-1.1273-0.080547-1.6839-0.10011-2.1129-0.07425-1.16 0.069912-1.8093 0.40301-2.4001 1.2313-0.25464 0.35695-0.43724 0.80737-0.50816 1.2534-0.047858 0.30102-0.049593 0.9268-0.00351 1.2676 0.11722 0.86699 0.38619 1.4787 0.87338 1.9862 0.78936 0.82227 2.0455 1.2381 4.1157 1.3625 0.79468 0.04775 2.0488 0.05809 2.8979 0.0239z" style="fill:#f00;stroke-width:.023753"/><path d="m6.577 14.882c-0.53677-0.14803-0.94545-0.73028-1.0428-1.4858-0.11951-0.92696 0.35524-1.8719 1.0326-2.0553 0.79986-0.21651 1.5568 0.63583 1.5568 1.753 0 1.1329-0.75534 2.0062-1.5465 1.788z" style="fill:#f00;stroke-width:.023753"/><path d="m12.945 14.885c-0.50586-0.13771-0.91365-0.67519-1.0334-1.3621-0.08986-0.51529 0.0014-1.0943 0.23952-1.5201 0.10261-0.18349 0.35849-0.46159 0.50218-0.5458 0.58666-0.34381 1.248-0.07692 1.5999 0.64562 0.25576 0.52522 0.30063 1.146 0.12363 1.7102-0.24442 0.77909-0.84802 1.2311-1.4318 1.0722z" style="fill:#f00;stroke-width:.023753"/></svg>
