<?xml version="1.0" encoding="UTF-8" standalone="no"?>
<svg
   aria-hidden="true"
   focusable="false"
   data-prefix="fab"
   data-icon="github"
   class="svg-inline--fa fa-github fa-w-16"
   role="img"
   viewBox="0 0 496 512"
   version="1.1"
   id="svg1995"
   sodipodi:docname="gh2.svg"
   inkscape:version="1.1.1 (3bf5ae0d25, 2021-09-20)"
   xmlns:inkscape="http://www.inkscape.org/namespaces/inkscape"
   xmlns:sodipodi="http://sodipodi.sourceforge.net/DTD/sodipodi-0.dtd"
   xmlns="http://www.w3.org/2000/svg"
   xmlns:svg="http://www.w3.org/2000/svg">
  <defs
     id="defs1999" />
  <sodipodi:namedview
     id="namedview1997"
     pagecolor="#ffffff"
     bordercolor="#666666"
     borderopacity="1.0"
     inkscape:pageshadow="2"
     inkscape:pageopacity="0.0"
     inkscape:pagecheckerboard="0"
     showgrid="false"
     inkscape:zoom="0.5814296"
     inkscape:cx="-385.2573"
     inkscape:cy="104.05387"
     inkscape:window-width="1920"
     inkscape:window-height="1046"
     inkscape:window-x="-11"
     inkscape:window-y="-11"
     inkscape:window-maximized="1"
     inkscape:current-layer="svg1995" />
  <path
     fill="currentColor"
     d="M165.9 397.4c0 2-2.3 3.6-5.2 3.6-3.3.3-5.6-1.3-5.6-3.6 0-2 2.3-3.6 5.2-3.6 3-.3 5.6 1.3 5.6 3.6zm-31.1-4.5c-.7 2 1.3 4.3 4.3 4.9 2.6 1 5.6 0 6.2-2s-1.3-4.3-4.3-5.2c-2.6-.7-5.5.3-6.2 2.3zm44.2-1.7c-2.9.7-4.9 2.6-4.6 4.9.3 2 2.9 3.3 5.9 2.6 2.9-.7 4.9-2.6 4.6-4.6-.3-1.9-3-3.2-5.9-2.9zM244.8 8C106.1 8 0 113.3 0 252c0 110.9 69.8 205.8 169.5 239.2 12.8 2.3 17.3-5.6 17.3-12.1 0-6.2-.3-40.4-.3-61.4 0 0-70 15-84.7-29.8 0 0-11.4-29.1-27.8-36.6 0 0-22.9-15.7 1.6-15.4 0 0 24.9 2 38.6 25.8 21.9 38.6 58.6 27.5 72.9 20.9 2.3-16 8.8-27.1 16-33.7-55.9-6.2-112.3-14.3-112.3-110.5 0-27.5 7.6-41.3 23.6-58.9-2.6-6.5-11.1-33.3 2.6-67.9 20.9-6.5 69 27 69 27 20-5.6 41.5-8.5 62.8-8.5s42.8 2.9 62.8 8.5c0 0 48.1-33.6 69-27 13.7 34.7 5.2 61.4 2.6 67.9 16 17.7 25.8 31.5 25.8 58.9 0 96.5-58.9 104.2-114.8 110.5 9.2 7.9 17 22.9 17 46.4 0 33.7-.3 75.4-.3 83.6 0 6.5 4.6 14.4 17.3 12.1C428.2 457.8 496 362.9 496 252 496 113.3 383.5 8 244.8 8zM97.2 352.9c-1.3 1-1 3.3.7 5.2 1.6 1.6 3.9 2.3 5.2 1 1.3-1 1-3.3-.7-5.2-1.6-1.6-3.9-2.3-5.2-1zm-10.8-8.1c-.7 1.3.3 2.9 2.3 3.9 1.6 1 3.6.7 4.3-.7.7-1.3-.3-2.9-2.3-3.9-2-.6-3.6-.3-4.3.7zm32.4 35.6c-1.6 1.3-1 4.3 1.3 6.2 2.3 2.3 5.2 2.6 6.5 1 1.3-1.3.7-4.3-1.3-6.2-2.2-2.3-5.2-2.6-6.5-1zm-11.4-14.7c-1.6 1-1.6 3.6 0 5.9 1.6 2.3 4.3 3.3 5.6 2.3 1.6-1.3 1.6-3.9 0-6.2-1.4-2.3-4-3.3-5.6-2z"
     id="path1993" />
  <path
     style="fill:#ff0000;stroke-width:0.608076"
     d="m 170.26128,491.52788 c -0.8361,-0.16765 -5.48788,-1.81821 -10.33729,-3.66791 C 77.830519,456.54713 17.435477,381.87511 3.3789696,294.30879 0.65414415,277.33423 0.30325085,272.41442 0.32142509,251.43943 0.34005508,229.93847 0.96758222,222.13498 4.0133104,205.52969 22.486001,104.81673 98.136068,29.731037 199.14489,11.853863 212.51106,9.4882347 222.93209,8.4923921 238.3658,8.1058806 286.90449,6.8903093 332.59884,18.226751 374.27078,41.822941 c 8.45986,4.790282 23.41862,14.997372 31.92399,21.783292 10.54926,8.416606 28.95001,26.822125 37.32472,37.334387 27.63539,34.68899 44.92244,75.37228 50.51719,118.88696 7.10407,55.25374 -4.13947,112.47804 -31.60751,160.86737 -15.53536,27.368 -39.56292,54.80614 -64.46685,73.61755 -19.81003,14.96369 -41.27247,26.64337 -63.70007,34.66504 -10.82337,3.87119 -17.23701,2.96437 -21.39901,-3.02561 l -1.83236,-2.63714 -0.10064,-48.48303 c -0.11145,-53.6978 -0.15072,-54.33057 -4.08675,-65.85416 -2.41406,-7.06769 -5.02157,-11.60717 -9.42503,-16.4083 -1.80132,-1.964 -3.16949,-3.65003 -3.04038,-3.74673 0.12911,-0.0967 4.33926,-0.65653 9.35589,-1.24405 41.89822,-4.90686 63.98569,-13.26993 80.63894,-30.53262 16.07618,-16.66451 24.23525,-42.42523 24.24587,-76.55184 0.007,-23.9549 -4.48302,-36.11677 -20.22739,-54.78321 l -5.17642,-6.13713 1.43458,-4.95298 c 4.7933,-16.54908 4.23439,-36.88643 -1.52257,-55.40253 -2.58913,-8.3274 -2.47136,-8.22053 -8.94408,-8.11611 -12.38997,0.19989 -30.34138,7.5 -53.25811,21.65792 l -9.56451,5.90894 -5.94143,-1.50425 c -18.22036,-4.61305 -35.63065,-6.65203 -56.71576,-6.64217 -20.77613,0.01 -37.22611,1.90921 -55.19569,6.3735 l -7.46172,1.85376 -5.61191,-3.61181 c -23.51184,-15.13215 -44.17616,-23.89363 -56.6903,-24.03616 -6.29195,-0.0717 -6.5481,0.0964 -8.39158,5.50526 -7.21285,21.16287 -7.61823,39.66999 -1.35505,61.86322 0.25086,0.8889 -0.64296,2.36151 -3.32174,5.47268 -10.93165,12.69619 -16.46603,24.23318 -18.607394,38.789 -1.269596,8.63005 -0.902859,33.10204 0.64436,42.99723 5.398894,34.5285 19.029484,55.29537 44.713114,68.12261 12.77827,6.38188 32.94993,11.209 58.67933,14.04206 3.67886,0.40509 6.79097,0.8158 6.91579,0.91271 0.12482,0.0969 -1.28416,1.84601 -3.13105,3.8869 -5.45735,6.03056 -9.8793,15.73862 -12.00119,26.34771 -0.70846,3.54217 -0.72252,3.55942 -4.12565,5.06445 -1.87812,0.83059 -6.02624,2.24056 -9.21804,3.13326 -5.26219,1.47177 -6.7671,1.62168 -16.14057,1.60786 -9.59818,-0.0142 -10.68511,-0.13251 -15.2019,-1.65535 -7.31722,-2.46702 -12.09417,-5.54954 -18.59997,-12.00236 -4.246,-4.21142 -6.88912,-7.51652 -9.72645,-12.16248 -6.56191,-10.74478 -14.04719,-17.64642 -24.367306,-22.46734 -6.497457,-3.03521 -11.445493,-4.29322 -16.886259,-4.29322 -10.044649,0 -11.800925,3.64199 -4.97647,10.31972 1.929669,1.88818 5.105072,4.33411 7.056449,5.4354 7.951573,4.48759 16.363538,15.27695 23.206102,29.76461 7.453024,15.7802 8.279964,17.24568 11.937874,21.156 8.09371,8.6522 19.27537,13.74339 35.39641,16.11656 8.86772,1.3054 26.19419,0.8248 37.85273,-1.04996 l 2.58432,-0.41558 v 32.32528 c 0,34.3195 -0.0347,34.77212 -2.91155,37.95337 -2.47339,2.73512 -9.12319,4.53534 -13.5065,3.65645 z"
     id="path2038" />
  <path
     style="fill:#ff0000;stroke-width:0.0760095"
     d="m 90.129547,349.25945 c -0.850655,-0.12886 -2.290699,-0.93363 -3.048532,-1.70367 -0.589483,-0.59898 -0.886241,-1.21549 -0.886241,-1.84115 0,-0.26639 0.04723,-0.59442 0.104951,-0.72895 0.1497,-0.34887 0.545674,-0.69702 1.073197,-0.94356 0.42749,-0.19979 0.517951,-0.21298 1.44418,-0.21061 0.70021,0.002 1.126272,0.0411 1.462248,0.13486 1.309763,0.36553 2.683661,1.6689 2.91037,2.76095 0.319064,1.53692 -1.220495,2.81083 -3.060173,2.53213 z"
     id="path2114" />
  <path
     style="fill:#ff0000;stroke-width:0.0760095"
     d="m 100.84504,359.74706 c -1.116932,-0.16532 -2.501455,-1.02567 -3.281108,-2.03889 -0.986202,-1.28164 -1.388838,-2.71014 -1.068203,-3.78984 0.146117,-0.49202 0.746624,-1.16694 1.283519,-1.44255 0.598246,-0.3071 1.482413,-0.33048 2.286532,-0.0605 1.4575,0.48943 2.65838,1.55274 3.34855,2.96495 0.74015,1.51448 0.63137,2.93416 -0.2854,3.72473 -0.52691,0.45438 -0.82134,0.57571 -1.65625,0.68253 -0.10451,0.0134 -0.38695,-0.005 -0.62764,-0.0405 z"
     id="path2153" />
  <path
     style="fill:#ff0000;stroke-width:0.0760095"
     d="m 110.65603,374.12451 c -3.27178,-1.04624 -5.4949,-5.41678 -3.95468,-7.77471 0.23568,-0.36079 0.91987,-0.87787 1.41607,-1.0702 0.88141,-0.34162 2.09953,-0.1203 3.12953,0.5686 1.50075,1.00376 2.74786,3.08342 2.95407,4.92615 0.14965,1.33738 -0.5188,2.81372 -1.49403,3.2997 -0.32976,0.16433 -0.49564,0.19606 -1.00695,0.19265 -0.37166,-0.002 -0.78181,-0.0583 -1.04401,-0.14219 z"
     id="path2192" />
  <path
     style="fill:#ff0000;stroke-width:0.0760095"
     d="m 123.43943,388.51846 c -1.29358,-0.27764 -2.25288,-0.84818 -3.56144,-2.11814 -0.7672,-0.74457 -1.18378,-1.29811 -1.53364,-2.0379 -0.50655,-1.07109 -0.58358,-2.33417 -0.19127,-3.13603 0.27649,-0.56512 1.18686,-1.417 1.73243,-1.62112 1.21149,-0.45328 2.79382,-0.17141 4.1624,0.74147 0.66275,0.44208 1.71757,1.4634 2.12452,2.05706 1.39376,2.0332 1.50177,4.25258 0.26256,5.39484 -0.79236,0.73037 -1.8086,0.97457 -2.99556,0.71982 z"
     id="path2231" />
  <path
     style="fill:#ff0000;stroke-width:0.0760095"
     d="m 140.31094,398.1427 c -0.74959,-0.13843 -2.34822,-0.63954 -2.92967,-0.91835 -1.19527,-0.57313 -2.1745,-1.54041 -2.55913,-2.5279 -0.10577,-0.27155 -0.15574,-0.58118 -0.158,-0.97899 -0.003,-0.50787 0.0284,-0.64631 0.24643,-1.08911 0.45427,-0.92275 1.3609,-1.61786 2.62862,-2.01532 0.68217,-0.21388 2.0101,-0.2864 2.83051,-0.15457 1.72683,0.27748 3.62742,1.46003 4.47429,2.7839 1.51284,2.36495 -0.1712,4.81608 -3.39031,4.9346 -0.43895,0.0162 -0.95318,7.6e-4 -1.14274,-0.0343 z"
     id="path2270" />
  <path
     style="fill:#ff0000;stroke-width:0.0760095"
     d="m 158.44181,400.90476 c -1.22259,-0.27243 -2.22006,-0.88029 -2.79504,-1.70329 -0.37167,-0.53201 -0.54128,-1.10679 -0.53973,-1.82913 10e-4,-0.48622 0.0387,-0.65557 0.24322,-1.09253 0.46854,-1.00124 1.52835,-1.79705 2.93953,-2.20729 0.89819,-0.2611 2.59588,-0.39144 3.51155,-0.26959 2.13967,0.28474 3.62599,1.3552 4.02065,2.89571 0.45154,1.76253 -0.95101,3.48204 -3.35168,4.1091 -0.83171,0.21724 -3.22978,0.275 -4.0285,0.097 z"
     id="path2309" />
  <path
     style="fill:#ff0000;stroke-width:0.0760095"
     d="M 72.392721,430.4228 C 67.18652,425.15718 62.384432,419.82367 57.399282,413.77013 l -1.30427,-1.5838 V 372.55397 332.92162 H 95.843158 135.5913 l 1.81005,0.89617 c 11.03814,5.46512 26.71002,9.65686 47.07371,12.59077 2.07206,0.29853 4.42429,0.6159 5.14964,0.69479 l 0.47506,0.0517 v 11.73525 11.73525 l -0.4922,1.62771 c -0.59717,1.97486 -1.20323,4.37362 -1.67159,6.61612 -0.19209,0.91971 -0.43145,1.96294 -0.5319,2.31829 -0.10045,0.35534 -0.20465,0.82155 -0.23154,1.03602 l -0.0489,0.38994 -2.06538,0.91795 c -2.38713,1.06095 -3.47271,1.47576 -6.35991,2.43022 -4.07363,1.34666 -7.41083,2.22067 -9.6152,2.51819 -0.33445,0.0451 -1.12114,0.13212 -1.74822,0.19329 -0.62708,0.0612 -1.72162,0.17805 -2.43231,0.25974 -2.44415,0.28093 -3.68867,0.34643 -6.61282,0.34806 -2.95667,0.002 -4.17612,-0.0647 -6.42281,-0.34964 -0.64798,-0.0822 -1.78364,-0.21513 -2.52368,-0.29548 -1.70547,-0.18516 -2.90902,-0.42925 -4.51081,-0.91482 -3.91444,-1.18665 -7.39573,-2.70006 -10.44769,-4.5419 -7.87883,-4.75481 -13.62647,-10.6974 -19.5701,-20.23385 -5.2238,-8.3815 -10.34956,-13.88253 -17.104486,-18.35674 -5.694777,-3.77201 -13.023242,-6.87376 -18.47963,-7.82144 -3.182076,-0.55268 -6.891591,-0.64048 -9.671484,-0.22893 -2.438173,0.36096 -4.145088,1.20925 -4.710247,2.34088 -0.862788,1.72756 0.321186,4.20115 3.553069,7.42316 2.234855,2.22802 4.831273,4.23257 7.721594,5.96141 3.702554,2.21467 7.41914,5.6398 11.167244,10.29149 5.077037,6.301 10.351567,15.41421 14.18282,24.50474 0.59106,1.40245 2.7694,5.88193 3.89006,7.99944 1.94803,3.68086 2.98459,5.17186 5.40696,7.77744 5.87347,6.31771 13.37899,10.71949 23.15814,13.58161 4.50247,1.31776 10.47731,2.49501 14.82185,2.92044 5.85727,0.57354 13.79342,0.58794 22.42281,0.0407 4.73637,-0.30037 9.15904,-0.78414 13.55788,-1.483 1.03974,-0.16519 1.9034,-0.30034 1.91924,-0.30034 0.0159,0 0.0288,3.35202 0.0288,7.44893 v 7.44893 H 130.55997 74.440607 Z"
     id="path2387" />
  <path
     style="fill:#ff0000;stroke-width:0.0760095"
     d="m 177.48203,398.79013 c -1.3641,-0.28636 -2.34897,-0.96146 -2.86051,-1.9608 -0.29012,-0.56677 -0.33658,-1.4385 -0.11545,-2.16651 0.42478,-1.39847 1.81919,-2.60751 3.748,-3.24972 l 0.86232,-0.28712 0.98812,0.0413 c 1.75348,0.0732 3.07014,0.5644 3.99745,1.49117 0.65649,0.6561 0.85862,1.1512 0.81192,1.98872 -0.0482,0.86545 -0.35081,1.45399 -1.14753,2.23221 -0.8889,0.86827 -1.90987,1.42559 -3.28179,1.79145 -0.78033,0.2081 -2.29323,0.26822 -3.00253,0.11932 z"
     id="path2426" />
</svg>
