<?xml version="1.0" encoding="UTF-8"?>
<svg width="583.64" height="428.37" version="1.1" viewBox="0 0 583.64 428.37" xmlns="http://www.w3.org/2000/svg"><path d="m414 426.98c-6.6505-4.709-1.2053-11.694 15.327-24.858 14.548-10.155 18.946-23.979 19.023-59.797l0.0316-14.739-3.943-5.1589c-2.1686-2.8375-5.0179-5.912-6.3317-6.8326-5.5384-3.8806-12.925-8.3896-21.834-13.329-5.2237-2.8961-11.736-6.5502-14.472-8.1204-2.7364-1.5703-9.2036-5.1166-14.373-7.8812-11.518-6.1601-16.163-10.635-19.377-18.663-3.4376-8.585-3.6978-10.089-3.4279-19.793 0.61101-21.946-19.413-31.408-48.755-23.037-10.08 2.8758-29.647 9.6989-34.824 12.144-3.6092 1.7041-17.623 6.1837-25.626 8.1917-5.0889 1.2765-26.474 4.5608-30.906 4.7465-11.688 0.48942-15.374-0.0616-12.886-4.0334 0.99208-1.5845 3.9633-4.6152 4.3224-6.566l0.65281-3.5467-2.0962 0.24771c-1.4934 0.1765-2.313 0.93365-2.8507 2.633-1.2037 3.8052-17.52 12.629-25.683 13.889-5.1963 0.80199-16.952-5.2608-33.566-17.314-7.7535-5.6239-50.467-28.043-57.694-30.282-10.51-3.2554-30.308 0.0594-37.691 8.171-5.5185 6.0624-12.259 8.6222-13.042 4.7263-1.0715-5.3257-8.7206-1.4883-12.392 2.3145-2.3629 2.4472-4.8369 0.57689-5.2258-2.1762-0.34631-2.4524-5.1193-1.3346-7.507 0.82909-0.89737 0.81318-2.902 1.3805-4.5456 1.1975-3.6249-0.40346-2.3939-0.35403-3.5196 1.242-5.5761 7.9056-7.9099-5.5957 4.7778-19.667 9.1361-10.132 11.42-11.399 43.655-16.327 28.868-4.4128 30.307-4.3908 45.442 0.69293 8.6809 2.9158 21.718 6.4674 23.742 6.4674 2.3993 0 2.4727-0.62456 0.64646-5.5273-0.75482-2.0266-1.7874-4.9398-2.2946-6.4738-1.074-3.2475-2.5364-3.8931-22.998-10.155-27.861-8.5264-40.006-7.5794-46.515-0.92491-6.3089 6.4491-13.232 8.7253-15.247 4.5885-2.1352-4.3838-11.718 3.1811-13.209 6.0116-0.78822 1.4964-3.4502-0.19544-4.3722-2.3509-0.94653-2.2122-5.2028-1.8171-7.491-0.19136 0 0-3.4568-0.0601-5.6953-1.0361-1.4991-0.65363-2.4612 1.4481-4.072 3.6724-2.2818 3.151-2.6603 2.0694-3.7792-0.84225-2.3693-6.1655 4.7354-18.191 15.508-25.838l1.4744-0.78348 1.7453-0.51644c6.2139-1.8389 24.093-4.7846 28.323-5.5822 23.079-3.8433 27.585-4.4195 35.24-2.7082 11.075 2.4764 21.541 4.9768 27.136 6.4829 22.685 6.1064 27.076 5.6495 28.364-2.9516l1.0905-3.261 2.8834-1.9723 3.3921-1.3505v-3.5762c0-5.9868 3.5414-11.042 7.7354-11.042 3.381 0 4.1125-1.5414 3.4573-7.286-0.66004-5.786 0.14804-7.2142 5.313-9.3903l2.4896-1.0489v-4.3683c0-5.0827 1.3112-7.9029 3.9816-8.564 7.5396-1.8664 5.888-12.634-1.7-11.085-12.958 2.6472-20.634 4.2933-23.991 5.1445-7.5947 1.9255-11.131-1.001-14.105-11.674-0.80962-2.9053 0.75878-3.5636 5.4187-2.2746 4.3161 1.1939 10.117 1.524 12.683 0.72177 1.525-0.47679 2.0496-8.6387 0.86545-13.463-0.89954-3.6647-7.0123-2.4703-16.86 3.294-6.4463 3.7732-6.7372 3.5772-10.931-7.3726-2.6403-6.8956-2.7543-7.5978 1.994-7.8076 7.2776-0.32144 8.5306-1.2541 8.1728-5.2889-0.68524-5.0511-3.1713-5.6926-4.2426-0.99569l-0.0498 2.3263-4.4747 0.27636c-4.5742 0.28251-5.4612-1.0347-5.6082-5.6795-0.1696-5.3622 0.61694-4.5053 11.995-11.298 5.3706-3.2062 7.9701-4.9171 10.507-8.4753 6.2202-8.7237 13.071-12.03 31.229-15.069 4.9256-0.82437 12.443-2.6568 16.703-4.0721 14.034-4.6614 17.349-4.0093 53.035 10.434 6.8845 2.7861 22.524 3.3331 29.129 1.0185 7.7754-2.7251 8.153-0.67515 1.0444 5.6714-5.9328 5.2968-4.2904 7.8789 6.4069 10.074 6.6224 1.359 4.1887 6.4694-4.2092 8.8382-7.8573 2.2163-1.7072 9.9944 7.9259 10.023 2.5138 0.0075 4.4776 1.2136 4.4776 2.7502 0 1.1524-7.0732 7.5743-8.3426 7.5743-4.3494 0-7.4401 4.7896-3.8153 5.9123 16.45 5.0956 17.141 6.2125 8.4771 13.671-6.536 5.6261-7.2767 7.2364-4.0077 8.7108 0.99495 0.44879 2.0125 1.0156 2.2614 1.2597 0.24872 0.24409 1.9787 1.0281 3.8443 1.7422 5.2958 2.0271 3.367 6.0494-5.173 10.788-5.7324 3.1808-3.5111 5.3312 7.6809 7.436 5.9568 1.1203 5.8633 2.4994-0.47255 6.956-7.1666 5.0412-6.8601 6.8751 1.5737 9.4137 6.8756 2.0695 5.8565 4.8658-3.5622 9.7749-8.1543 4.2499-7.6423 6.7783 1.6246 8.0208l5.7914 0.77649-0.15566 2.54c-0.15805 2.5784-7.21 8.7516-10.04 8.7889-5.5558 0.0733-2.7878 5.3254 4.1172 7.8135l4.8486 1.747 11.921-1.4507c26.377-3.2098 55.361-2.629 76.002 1.5228 10.143 2.0402 14.338 3.5208 27.868 9.8352 3.8099 1.7782 11.684 8.1116 15.303 12.311l1.4202 1.6468 5.3637-0.69816c25.816-3.3599 43.03 10.414 59.664 47.732 1.2023 2.6975 3.404 6.5113 4.8929 8.4753 1.4889 1.9639 3.3943 4.5657 4.2342 5.7818 13.006 18.83 38.02 26.307 50.466 15.083 9.885-8.9147 0.40539-27.995-19.077-38.399-35.373-18.888-41.649-23.02-51.971-34.212-8.288-8.9846-9.5085-11.526-11.834-24.646-4.7822-26.977 19.006-51.2 48.824-49.714 19.481 0.97051 37.122 12.274 38.475 24.655 1.4736 13.472 12.087 21.207 22.203 16.181 6.7593-3.3575 7.2932-0.97412 0.89252 3.9834-19.974 15.472-56.86-2.1654-43.712-20.902 7.0946-10.112-12.425-18.416-28.868-12.283-19.03 7.0987-29.124 29.637-20.517 45.816 7.2956 13.712 16.611 21.628 38.531 32.74 28.954 14.678 39.826 24.759 45.761 42.432 6.7651 20.145-15.819 35.561-44.35 30.277-14.878-2.7568-26.526-10.199-37.364-23.871-2.6347-3.3235-15.326-24.958-16.512-28.145-5.0125-13.478-21.332-23.466-31.263-19.136-1.3918 0.75821 0.56019 2.1416 2.1232 4.2597 1.0615 1.4384 3.1886 4.6089 5.0565 8.7761 0.48628 1.0847 1.8876 5.1231 2.72 10.141l0.81398 9.1812 3.3921 5.3645c1.8658 2.9504 5.0653 7.1899 7.1103 9.421 2.0449 2.231 4.926 5.5474 6.4025 7.3698 5.0461 6.2283 17.576 16.406 22.959 18.648 1.3185 0.54919 5.7139 2.3864 9.7679 4.0829 4.2051 1.7596 8.77 4.346 10.629 6.0222l3.2575 2.9378v5.5004c0 22.776 3.514 40.565 7.5539 56.053 3.877 14.864 6.4309 19.088-0.94273 23.577-1.8949 1.1533-6.0455 3.0554-7.848 5.1216-2.4712 2.8333-4.7833 4.4274-7.5568 4.9216-3.5642 0.6351-3.747 1.4952-3.747 1.4952-0.84952 2.4469-3.1088 5.4963-7.1677 5.594-2.4109 0.058-3.0098 0.23879-3.9868 2.1448-1.4638 2.8559-8.8913 3.6972-11.275 2.1771-7.6378-4.8689-2.0856-13.314 9.1434-26.216 9.0916-10.445 9.3786-10.443 7.3197-29.153-3.8017-34.552-5.6052-38.338-21.743-45.656-12.003-5.4424-17.068-9.0102-20.784-14.645-1.8755-2.8427-4.9954-3.7234-4.9954-1.41 0 3.0368 5.4713 9.167 13.967 15.649 3.4532 2.6346 8.7034 6.6935 11.667 9.0194l5.3886 4.2291-0.60386 6.9988c-0.33209 3.8494-0.95133 7.75-1.3761 8.668-0.42472 0.91796-1.2699 6.8094-1.8785 13.092-0.60834 6.2827-1.6764 14.075-2.3739 17.32-1.9918 9.2636-3.3976 32.165-2.2431 36.55 2.8219 10.721-0.64087 11.316-11.631 16.262-3.8762 1.7445-4.5754 3.0758-6.0678 3.908-2.8839 1.6082-6.2451 2.6386-8.7216 2.0986 0 0-3.401 0.48683-3.8617 1.9227-0.75345 2.3474-8.3385 5.0191-10.356 3.7427 0 0-1.9722-0.70098-4.9165 1.8426-3.2793 2.8328-6.4431 2.1862-8.5467 1.1216zm-213.88-210.73c11.281-3.3887 17.663-5.5634 4.3481-5.8396l-6.693-0.89819-7.0764-2.8359c-16.167-6.479-24.374-6.1629-11.621 2.9924 10.927 7.8436 13.032 8.9872 21.041 6.5814zm15.729-14.289c6.7975-2.3739 5.252-5.1473-2.8844-5.1749-1.6277-4e-3 -6.6492-1.1848-11.159-2.6208-10.16-3.2348-13.071-3.7354-14.823-2.5495-2.2163 1.4986-1.5897 3.5515 1.4791 4.8442 1.5608 0.65763 3.7841 2.0274 4.9403 3.0441 4.443 3.906 14.994 5.0608 22.448 2.4572zm-62.367-2.9775c2.288-0.21511-1.0287-3.008-3.8726-6.6692-1.3996-1.8021-3.9028-5.3553-5.562-7.896-3.0391-4.653-5.4649-6.0517-8.7274-5.0316-1.0468 0.32732-1.2776 0.92478-0.81357 2.1061 0.35632 0.9071 0.97609 4.0191 1.3771 6.9156 1.027 7.4159 2.8468 9.3054 10.391 10.789 2.8095 0.55243 2.4718 0.23143 4.089 0.0793zm24-2.8926c0-2.4967-20.048-14.054-24.378-14.054-5.7755 0 3.0216 9.8504 11.715 13.116 7.7124 2.8977 12.664 3.2643 12.664 0.93778zm47.726-2.9592c0.86389-0.3832 3.0561-0.88944 4.8716-1.1249 6.9006-0.89521 6.9628-4.3573 0.0901-5.0205-2.452-0.23662-6.8638-1.1472-9.8043-2.0237-2.9403-0.87642-6.8727-1.7623-8.7381-1.9687l-3.3921-0.37503v2.1742c0 2.507 1.2679 3.5545 8.141 6.7259 5.3819 2.4836 6.4351 2.6757 8.8316 1.6128zm-30.703-6.827c-0.17023-0.95876-1.1162-1.7919-2.3013-2.0266-1.1067-0.21927-5.139-2.5544-8.9609-5.189-8.0372-5.5407-11.188-7.3581-12.771-7.365-1.6992-8e-3 -1.361 2.1035 0.67533 4.2126 0.99337 1.0288 2.2304 3.1548 2.7492 4.7244 1.208 3.655 3.7198 4.9547 11.916 6.1647 9.0754 1.34 9.0236 1.3432 8.6925-0.52127zm51.714-6.0992c2.7318-0.59228 5.1061-1.4174 5.2767-1.8338 0.17028-0.41624 0.88626-0.75681 1.5908-0.75681 0.70479 0 1.2816-0.48241 1.2816-1.0721 0-1.1301-1.8607-1.4927-11.524-2.2448-6.4402-0.5014-9.1818-1.1637-17.392-4.2006-8.19-3.0294-10.883-3.4-10.883-1.4971 0 0.81799 0.70484 1.8387 0.90426 2.4552 0.47613 1.4721 1.209 1.8115 1.9963 3.3491 0.78717 1.5377 3.8988 3.1827 5.4636 4.5l3.3541 1.7735 7.2286 0.61298c4.2555-4e-3 9.9723-0.49333 12.706-1.0856zm-85.922-4.5786c0-0.68813-4.2315-4.6988-9.4033-8.9126-11.685-9.5196-12.759-9.6346-12.759-1.3676 0 6.6666 0.44674 7.1388 8.5598 9.0496 2.7545 0.64875 5.8224 1.45 6.8173 1.7806 3.3006 1.0967 6.7842 0.81412 6.7842-0.55025zm44.321-1.6969c0-0.81065-0.47004-1.4739-1.0446-1.4739-0.5745 0-4.3671-2.8188-8.4279-6.2644-5.8185-4.9366-7.92-6.2643-9.9158-6.2643h-2.5321l0.6441 2.0266c0.35425 1.1146 0.84506 3.5657 1.0906 5.4466 0.60046 4.5992 6.752 7.2742 18.151 7.8927 1.4773 0.0801 2.0352-0.29359 2.0352-1.3634zm65.012-8.842c5.1637-2.0064 3.738-3.5483-7.5998-5.8976-0.74802-0.15499-2.6421-0.74619-4.1558-1.6582l-4.194-1.1746-9.3373-0.53492c-11.35-0.65027-11.678 0.0497-9.2284 3.2094 5.7991 7.483 24.082 10.109 34.517 6.0558zm-96.671 0.33253c0-0.62687-1.3012-1.7048-2.8917-2.3953-1.5903-0.69046-3.7274-2.0555-4.7487-3.0333-11.913-11.403-18.592-15.258-18.592-10.735 0 1.267 0.54999 3.7835 2.0918 4.3558 2.0105 2.4024 2.4572 3.0034 3.4519 4.7515 2.4567 4.3167 1.5106 4.7045 7.2329 6.5402 5.9775 1.9178 13.456 2.2043 13.456 0.51572zm53.369-1.824c0-1.1064-1.5014-2.0742-5.8333-3.7599-3.2082-1.2487-7.7668-3.7582-10.13-5.577-11.166-8.5942-17.802-10.181-14.338-3.4307 0.74625 1.455 1.3569 3.2107 1.3569 3.9011 0 2.4302 3.6664 4.3773 16.735 8.887 5.9819 2.0644 12.212 2.0538 12.212-0.0206zm-44.52-10.67c0.18325-1.0608-0.84759-2.0139-3.6782-3.4007-3.766-1.845-7.2901-6.2551-9.212-11.529-0.79367-2.1774-8.2857-6.8115-11.013-6.8115-2.5345 0-2.9092 2.8532-0.77444 5.8956 0.71097 1.0134 1.3071 3.4691 1.3246 5.4572 0.0621 6.9931 22.235 16.856 23.352 10.388zm96.141-2.197c3.118-0.91844 4.5136-2.8746-3.5423-3.591-1.6854-0.14987-8.0451-2.491-14.177-4.9633-16.891-6.8119-21.327-6.1882-13.35 1.8779 7.3725 7.4547 18.886 10.265 31.069 6.6766zm-41.058-0.82523c0.30613-0.64998-0.0112-1.4646-0.70678-1.814-5.9234-2.9759-13.474-8.1156-13.474-9.1718 0-2.5267-16.127-11.417-20.71-11.417-2.421 0-2.5405 2.25-0.21093 3.9677 0.93112 0.68653 2.2178 3.2632 2.8593 5.726 1.3877 5.3281 4.0373 8.1556 8.7325 9.318 17.271 4.2765 22.722 5.063 23.511 3.3916zm-44.933-11.603c0-0.95052-0.77662-2.3008-1.7258-3.0006-0.94918-0.69986-2.9329-3.3317-4.4086-5.8485-1.4755-2.5168-4.2608-5.981-6.1889-7.6977-1.9283-1.7169-4.2374-3.9451-5.1313-4.9517-2.1164-2.3834-6.0636-2.5332-6.0636-0.22997 0 0.88009 0.65213 2.1872 1.4493 2.905 0.79704 0.71757 1.7384 3.2309 2.092 5.5854 1.077 7.1723 3.6601 9.7518 13.635 13.616 4.6101 1.7862 6.3405 1.6829 6.3405-0.37884zm85.93-5.9355c5.0989-2.048 5.7618-3.8116 1.6315-4.3393-8.01-1.0233-28.644-7.4207-30.093-9.3297-0.32397-0.42711-1.9896-0.77656-3.7015-0.77656-4.0185 0-4.5318 1.6536-0.99851 4.7903 3.3131 2.9411 3.3131 2.4884 3.3131 2.9411 0 1.3322 5.5336 5.2654 10.267 7.2973 5.3286 2.2876 13.001 2.0589 19.58-0.58342zm-37.084-1.7599c0-0.84613-2.0886-2.2956-5.8423-4.0547-4.1414-1.9406-7.2909-4.2168-10.818-7.8177-6.3184-6.4518-9.0387-8.1828-12.86-8.1828-3.3648 0-2.7749 0.88335-2.0467 3.5384 0.44644 1.6282 1.0164 2.7009 1.4168 3.6217 2.0986 4.8267 4.9701 7.9339 8.6344 9.7904 0.78813 0.39932 3.2831 0.66328 5.2335 1.4739 1.9503 0.81069 4.6398 1.1097 5.79 1.4739 1.2342 0.39083 2.803 0.73696 2.803 0.73696 2.011 0.0231 7.6885 0.89366 7.6885-0.58001zm-40.704-10.211c0-0.66562-1.7374-2.904-3.8608-4.9746-2.1234-2.0704-4.4558-4.7142-5.1832-5.8752-2.0189-3.2228-9.7734-8.5753-12.424-8.5753l-1.5572 0.5374-0.0536 1.8577c-0.0388 1.3503 0.97504 3.8677 1.3525 5.6674 0.47625 2.2703 1.4839 3.8191 3.2912 5.0579 1.4325 0.98215 3.6625 2.5351 4.9556 3.4511 5.3144 3.7653 13.479 5.4936 13.479 2.8534zm79.847-4.8107c4.6219-1.8061 2.9505-3.7619-4.3175-5.0523-3.4824-0.61832-10.089-2.6911-14.682-4.6062-9.7425-4.063-11.099-4.2467-11.099-1.5037 0 3.8654 3.5578 8.4004 7.7851 9.9241 2.1443 0.77286 4.1766 1.7712 4.5162 2.2186 0.82173 1.0833 14.434 0.33325 17.796-0.98056zm-42.854-4.9705c1.684-0.8687 0.64393-2.8716-1.9176-3.6933-1.1322-0.36316-4.2972-2.5518-7.0335-4.8637-6.7322-5.6881-11.514-8.4564-14.607-8.4564-2.854 0-3.3151 1.5776-1.51 3.7089 0.74623 1.3435 1.2796 1.913 2.002 3.0862 3.5897 5.8298 17.195 13.248 23.067 10.218zm-31.565-7.711c0-0.9637-0.5961-2.1552-1.3245-2.6479-0.72858-0.49259-2.8213-2.7718-4.6504-5.0648-4.287-5.374-11.142-11.171-13.213-11.171-1.7569 0-1.1519 2.5366-0.73864 4.0402 0.48309 1.7579 1.1489 2.1696 1.4796 4.2812 1.116 7.1251 18.446 17.048 18.446 10.562zm68.293-6.3544c0.30746-0.40534 1.3761-0.73698 2.3748-0.73698 4.3692 0 1.6689-3.98-3.2794-4.8336-6.3641-1.0978-15.148-4.7837-19.895-8.3494-4.4174-3.3175-8.5984-4.1183-8.5984-1.6469 0 0.76105 0.57118 1.7699 1.2694 2.242 0.69813 0.47207 2.3578 2.6712 3.6882 4.8866 2.6449 4.4045 6.4185 7.1733 11.325 8.309 4.2058 0.97372 12.413 1.0544 13.116 0.12888zm-31.208-2.4464c0-0.94024-0.91583-2.383-2.0352-3.2063-1.1194-0.82326-3.5352-2.9932-5.3686-4.8221-1.8332-1.8289-5.2612-4.3657-7.6176-5.6373-7.4176-4.0029-15.182-2.4879-9.284 1.8113 1.0595 0.77215 2.653 2.775 3.541 4.4507 3.3883 6.3926 20.764 12.588 20.764 7.4039zm-30.755-6.825c0-4.5271-14.232-17.997-19.015-17.997-2.0916 0-2.6944 0.32986-2.6944 1.4739 0 0.81066 0.42312 1.5423 0.72466 1.8648 1.1422 1.2214 1.3243 2.2365 1.3243 2.2365l1.4237 2.1494c0.48619 0.60648 1.0196 1.9335 1.7472 3.4179 1.6363 3.3385 6.9529 6.4571 9.6315 7.7701 1.4951 0.73282 2.787 1.2744 2.787 1.2744 1.7949 0.82065 4.0704-0.23745 4.0704-2.1909zm62.959-10.98c4.5113-1.5357 4.0356-4.0367-0.99901-5.2515-1.9899-0.48018-5.6533-1.5953-8.141-2.478-10.837-3.8455-17.65-5.2081-17.626-3.5245 0.0161 1.0831 1.9717 5.7117 2.9218 6.9156 1.0438 1.3225 8.8619 4.073 13.335 4.6912 6.1842 0.85476 7.0459 0.82586 10.508-0.35261zm-32.206-2.5625c0-1.7404-16.193-15.238-19.517-16.268-6.2064-1.9224-9.0215 0.3327-4.4543 3.5683 1.2437 0.8811 2.2615 2.3835 2.2615 3.3387 0 2.0779 4.5594 7.4234 7.3813 8.6539 5.8121 2.5343 14.328 2.9538 14.328 0.70609zm-26.245-2.4275c-0.0448-3.1474-3.9256-9.8124-7.5091-12.898-5.8697-5.0525-9.6709-0.28783-5.4929 6.8853 2.8635 4.9165 13.054 9.6281 13.001 6.0116zm24.435-17.051c0-1.0952-0.91808-2.2477-2.4358-3.0581-4.4106-2.3545-7.5142-5.6956-7.5142-8.0893 0-5.907-7.5882-12.77-14.857-13.438-4.633-0.42547-5.8536 1.1656-2.2536 2.9376 2.3671 1.165 5.352 5.79 5.352 8.2924 0 5.0921 5.6194 10.662 13.711 13.587 5.6134 2.0302 8 1.9607 8-0.2324zm33.468-0.0834c0-0.60726-1.9334-2.0765-4.2966-3.2648-7.638-3.8408-13.005-7.0022-15.918-9.3747-3.2678-2.6611-7.7951-4.6806-10.493-4.6806-2.4412 0-2.5104 2.9724-0.11095 4.7417 0.95876 0.70693 2.0106 2.5746 2.3373 4.1504 0.83065 4.0057 3.9999 7.5283 7.7099 8.5694 4.8627 1.3645 20.772 1.2563 20.772-0.14129zm-81.478-4.2389c0.58864-1.7228 1.1384-8.4382 1.2218-14.923l-1.7673-10.326-3.0621-7.5394c-3.9528-9.7328-7.8377-7.9687-4.0369 1.5177 3.8085 9.5055 4.9678 18.791 3.6284 29.061l-0.69697 5.343h1.8214c1.372 0 2.0856-0.77296 2.8918-3.132zm22.665-0.36848c-0.01-0.70934-1.4339-3.5682-3.1658-6.353-1.7319-2.7849-3.149-5.6626-3.149-6.395 0-1.758-4.3737-4.5099-6.7309-4.235-2.5274 0.29453-2.8377 2.9191-0.54511 4.6095 1.4594 1.0761 1.8489 2.2684 1.8489 5.6602v4.297l3.3921 1.8098c4.1101 2.1928 8.375 2.5029 8.3502 0.60683zm-62.849-11.026c0.30676-0.16165 1.4764-0.60654 0.21598-3.7858-1.1622-2.9317-1.2531-4.1462-0.44235-5.8963 1.4437-3.1162-0.21654-4.5333-5.311-4.5333-4.6597 0-5.0026 0.91234-2.1506 5.7217 0.99505 1.6778 2.292 4.0143 2.1968 5.5843-0.23269 3.8392 1.5844 4.9681 5.336 2.9911zm112.44-6.9735c0.1918-0.82352-1.158-1.9039-4.0623-3.2511-2.3923-1.1099-5.5705-2.9195-7.0632-4.0213-4.9393-3.6465-12.212-5.1656-12.212-2.5509 0 5.8445 22.097 15.147 23.337 9.8234zm-26.405-2.3945c0.29422-0.62468-1.5766-2.8335-4.628-5.4646-2.817-2.4289-7.4644-6.4342-10.328-8.9006-5.9175-5.0978-9.1133-5.9265-9.1133-2.3639 0 1.1664 0 0 1.1025 2.6235 0.31411 0.74752 1.3739 1.7568 1.6314 2.1629 0.85887 1.3552 0.81609 1.6599 1.789 2.6735 0.97288 1.0133 1.3628 2.4675 1.789 3.0035 3.2907 4.1414 16.179 9.6184 17.758 6.2655zm-24.973-6.7886c0-2.3993-15.384-15.111-17.988-14.863-4.1679 0.39557-1.2492 9.4081 3.738 11.542 1.1215 0.47987 3.4222 1.6945 5.1126 2.6991 3.6274 2.156 9.1377 2.5311 9.1377 0.62234z" style="fill:#c00;stroke-width:.81647"/></svg>
