<?xml version="1.0" encoding="UTF-8"?>
<svg width="428" height="392" version="1.1" viewBox="0 0 428 392" xmlns="http://www.w3.org/2000/svg"><defs><clipPath id="clipPath973"><path d="m127.56 82.869c0.66554 0.08115 1.0818 0.89006 1.6294 1.1639 0.1388 0.0694 0.35582-0.10973 0.46556 0 0.11639 0.11639-0.11639 0.58195 0 0.69834 0.0549 0.05487 0.17791-0.05487 0.23278 0 0.68912 0.68912 0.0377 1.472 0.46555 2.3278 0.35358 0.70716 0.47455 0.95806 0.69834 1.6295 0.0493 0.14797 1.2672 1.7975 1.3967 1.8622 0.0694 0.0347 0.17791-0.05487 0.23278 0 0.15584 0.15584-0.15585 0.30971 0 0.46556 0.48162 0.48163-0.0188-0.73599 0.46555 0.23278 0.13372 0.26744 4e-3 1.4008 0.23278 1.6295 0.15261 0.1526 0.58172 0.34894 0.69834 0.46556 0.26705 0.26705 0.4367 0.90226 0.69834 1.1639 0.0549 0.05487 0.17791-0.05487 0.23278 0 0.10973 0.10973-0.13881 0.39616 0 0.46556 0.1388 0.0694 0.32675-0.0694 0.46555 0 0.13227 0.06614-0.11228 0.81883 0 0.93112 0.11639 0.11639 0.34917 0.11639 0.46556 0.23278 0.15585 0.15584-0.15584 0.30971 0 0.46556 0.0549 0.05487 0.17792-0.05487 0.23278 0 0.10974 0.10973-0.10973 0.35583 0 0.46556 0.15671 0.15671 0.29417 0.12278 0.46556 0.46556 0.0694 0.1388-0.10973 0.35582 0 0.46556 0.11662 0.11662 0.54573 0.31295 0.69834 0.46556 0.0549 0.05487 0 0.15519 0 0.23278 0.0776 0.15519 0.11009 0.34287 0.23278 0.46556 0.0549 0.05487 0.17791-0.05487 0.23278 0 0.10973 0.10973-0.10974 0.35582 0 0.46556 0.0238 0.02384 0.88775 0.20387 0.93111 0.23278 0.4466 0.29773 0.87616 0.75761 1.3967 0.93112 0.14722 0.0491 0.32675-0.0694 0.46555 0 0.92755 0.46377 1e-3 0.46581 0.93112 0.69834 0.65613 0.16403 1.4315-0.13271 2.095 0 0.39175 0.0784 0.77215 0.3872 1.1639 0.46555 1.1096 0.22193 2.3953-0.27409 3.4917 0 0.10645 0.0266 0.12867 0.19808 0.23277 0.23278 1.4182 0.47272 3.1545 0.23278 4.6556 0.23278 0.38654 0 4.6114-0.0442 4.6556 0 0.0776 0.0776 0.15518 0.62075 0.23278 0.69834 0.10973 0.10973 0.35582-0.10973 0.46556 0 0.41674 0.41674 1.4517 2.5881 1.8622 2.7934 0.7434 0.3717 1.7344 0.80333 2.3278 1.3967 0.34949 0.3495 0.63584 0.89987 1.1639 1.1639 1.1976 0.59882 3.027 0.46556 4.4228 0.46556 3.4232 0 7.5543 0.0682 10.941-0.23278 1.563-0.13894 3.0967-0.51847 4.6556-0.69834 2.6045-0.30052 5.3052 0.26093 7.9145 0 0.93927-0.0939 1.8533-0.38009 2.7934-0.46556 1.512-0.13745 3.1368 0 4.6556 0 0.65857 0 3.9572 0.18882 3.9572-0.46556 0-0.68448-1.0823-0.77394-1.3967-0.93111-0.0694-0.0347 0.23278 0.0776 0.23278 0 0-0.0122-1.1004 0.0211-1.1639 0-0.42132 0.1403-0.43293-0.37709-0.69834-0.46556-1.2437-0.41457-2.6534-0.60515-3.9572-0.93112-0.77172-0.19293-1.4034 0.11301-2.095-0.23278-0.59336-0.29667-2.5617 0.46446-3.0261 0-0.43628-0.43627-0.70732-1.1729-1.1639-1.6294-0.42293-0.42293-1.3839-0.45282-1.8622-0.93112-0.11662-0.11662-0.31295-0.54573-0.46556-0.69833-0.10973-0.10974-0.32675 0.0694-0.46556 0-0.10919-0.0546-1.6752-1.908-1.8622-2.095-0.10081-0.10081-0.78088-0.3654-0.93111-0.46556-0.65817-0.43878-1.6113-1.3604-1.8622-1.8622-0.13806-0.27613-1.8452-1.1809-1.1639-1.8622 0.38341-0.38341 5.5812-0.23278 6.285-0.23278 1.673 0 4.5606 1.5579 6.285 1.8622 0.6113 0.10788 1.2424-0.03443 1.8622 0 0.7786 0.04326 1.55 0.17722 2.3278 0.23278 1.0583 0.07559 2.6862 0.20765 3.7245 0 0.33782-0.06757 0.72773-0.39286 1.1639-0.46556 2.5739-0.42898 5.7291 0.15594 8.38 0 8.8021-0.51777-2.4829 0.1319 5.8195-0.69834 1.5365-0.15365 3.1191 0.15365 4.6556 0 3.811-0.3811 7.6006-1.0161 11.406-1.3967 2.8323-0.28323 6.327 0.81282 8.8456-0.69834 0.14878-0.08927 0.41789-0.06595 0.46556-0.23278 0.65346-2.2871-1.6109-4.3414-2.7934-5.8195-1.4838-1.8547-3.0423-3.654-4.4228-5.5867-2.6284-3.6798-3.0539-4.7945-3.9572-9.3112-0.73354-3.6677 0.14948-7.4832-0.46556-11.173-0.91508-5.4905-3.042-10.803-3.9572-16.295-1.1236-1.2485-0.0459-2.6492-0.23278-3.9572-0.13776-0.96434-0.65053-1.8955-0.93112-2.7933-0.59467-1.903-0.85018-3.9068-1.3967-5.8195-0.35531-1.2436-0.65683-1.2929-1.1639-2.5606-0.84756-2.1189-1.8974-4.1944-2.7933-6.285-0.12603-0.29406-0.10285-0.63877-0.23278-0.93112-0.18376-0.41345-0.55527-0.73467-0.69834-1.1639-0.0982-0.29444 0.0853-0.63269 0-0.93112-0.14599-0.51096-0.76613-1.1345-0.93112-1.6295-0.0491-0.14722 0.0694-0.32676 0-0.46556-0.0559-0.1118-0.35375-0.0092-0.46556-0.23278-0.1041-0.2082 0.0736-0.4775 0-0.69834-0.0815-0.2445-0.67183-0.41256-0.69833-0.46556-0.0694-0.1388 0.0491-0.31834 0-0.46556 0.087-0.50711-0.38797-0.07759-0.46556-0.23278-0.0694-0.1388 0.0694-0.32676 0-0.46556-0.0347-0.0694-0.17791 0.05487-0.23278 0-0.12269-0.12269-0.15519-0.31037-0.23278-0.46556-0.23278-0.23278-0.43848-0.49623-0.69834-0.69834-1.8425-1.4331-4.0616-2.2973-6.0522-3.4917-2.9201-1.752-4.9698-3.7103-7.6817-5.8195-0.88334-0.68704-1.9489-1.1279-2.7934-1.8622-2.7181-2.3636-3.9358-5.4498-5.8195-8.38-1.0567-1.6437-2.5198-2.9548-3.4917-4.6556-0.31037-0.62074-0.62074-1.2415-0.93111-1.8622-0.0776-0.38796-0.0721-0.80235-0.23278-1.1639-0.50198-1.1294-1.9201-2.7059-3.0261-3.2589-3.7345-1.8672-7.7289-2.723-11.872-3.0261-8.3449-0.6106-0.115 0.6597-8.1473-0.23278-1.1594-0.12882-6.5802-0.83033-8.8456-1.3967-2.7394-0.68486-5.5079-1.3967-8.38-1.3967-2.7202 0-5.4314 0.61928-8.1473 0.46556-1.4472-0.08192-2.7784-0.83451-4.19-1.1639-2.4602-0.57404-4.9571-0.98136-7.4489-1.3967-0.76919-0.1282-1.5842 2e-3 -2.3278-0.23278-1.9985-0.6311-2.5806-1.8602-4.8884-1.6295-3.2348 0.32348-6.0017 2.3041-9.0784 3.2589-4.371 1.3565-7.9773 2.4806-12.105 4.4228-1.278 0.60139-5.8954 2.6175-7.6817 3.9572-1.4544 1.0908-2.9289 2.1821-4.19 3.4917-0.77623 0.80608-1.1752 1.91-1.8622 2.7933-0.94558 1.2157-2.0086 2.3355-3.0261 3.4917-0.68963 0.78368-1.3967 1.5519-2.095 2.3278-0.85352 0.85352-1.7608 1.6565-2.5606 2.5606-1.646 1.8606-3.1037 3.8797-4.6556 5.8195-1.2825 1.6031-3.2746 3.9407-4.4228 5.8195-3.0025 4.9131-4.558 10.484-6.5178 15.829-0.49109 1.3393-1.2066 2.5948-1.6295 3.9572-0.27979 0.90154-0.28043 1.8677-0.46556 2.7934-0.49906 2.4953-1.2077 5.1303-1.3967 7.6817-0.13757 1.8571 0 3.7245 0 5.5867 0 1.4295-0.3196 5.8099 0 7.2162 0.23952 1.0539 0.80885 2.0054 1.1639 3.0261 1.7739 5.0999-0.49172-0.56607 1.6295 4.8884 0.21418 0.55075 0.536 1.0613 0.69834 1.6295 0.15073 0.52756 0.04013 1.1157 0.23278 1.6295 0.58497 1.5599 1.7091 2.876 2.3278 4.4228 1.4641 3.6603 1.9635 7.5439 3.4917 11.173 0.72036 1.7109 1.7735 3.5219 3.0261 4.8884 0.33573 0.36625 0.81258 0.5798 1.1639 0.93112 1.3902 1.3902 2.567 3.0326 3.9572 4.4228 0.27433 0.27433 0.65678 0.424 0.93112 0.69834 0.92952 0.92952 2.5685 3.0639 3.7245 3.7245 1.1084 0.63336 4.3939 1.2582 5.1211 1.3967 5.0299 0.95807 6.848-0.13207 11.173-1.8622 0.82142-0.32857 1.7291-0.396 2.5606-0.69834 1.7042-0.61969 3.3672-1.3137 4.8884-2.3278 0.67592-0.45062 1.2108-1.1409 1.8622-1.6295 0.50605-0.37954 1.1906-0.72503 1.6295-1.1639 0.58463-0.58463 0.26232-0.66302 1.1639-1.1639 2.6475-1.4708 5.3943-2.3905 8.1473-3.4917 1.6168-0.64673 1.6021-1.1639 3.4917-1.1639-0.41136-2.3044 1.2454 0.38407 1.6294 0 0.0549-0.05487-0.0549-0.17791 0-0.23278 0.23679-0.23679 3.5886-0.09694 3.9572-0.46556 0.27977-0.27976-0.13681-0.78006-0.23277-1.1639z" style="fill:none;stroke-width:1px;stroke:#000"/></clipPath></defs><path transform="matrix(-3,0,0,3,676.38,27.681)" d="m149.04 1.6582c-3.3316-0.17503-6.0999 0.72928-9.9785 2.3105-3.1402 1.2803-8.6783 2.9379-12.309 3.6836-13.382 2.749-18.431 5.7395-23.016 13.631-1.8698 3.2187-3.7859 4.7676-7.7441 7.668-8.3858 6.1445-8.9668 5.368-8.8418 10.219 0.1082 4.2018 0.76426 5.4109 4.1348 5.1387l3.0957-0.25-0.125-2.1055c0.7896-4.2488 3.6521-3.7411 3.957 0.82812 0.2066 3.0954-1.1238 4.6658-6.4902 4.8574-3.2424 0.1157-3.4166 0.8247-1.4707 7.0625 3.09 9.9052 3.3055 10.083 8.0566 6.6699 7.2577-5.2144 11.763-6.2955 12.426-2.9805 0.87284 4.3644 0.48533 11.748-0.63867 12.18-1.891 0.72568-6.1647 0.42766-9.3457-0.65234-3.4345-1.166-4.5908-0.57146-3.9941 2.0566 2.1927 9.6555 4.7971 12.304 10.395 10.562 2.474-0.7698 8.1338-2.2596 17.684-4.6543 3.3781-0.84686 5.121 2.3719 4.7774 5.4258 0.0551 0.08986 0.10284 0.19751 0.14062 0.32422 0.26065 0.87424 0.49233 1.7852 0.95117 2.584 0.07 0.1219 0.15092 0.23895 0.23242 0.35352 0.03 0.04229 0.0761 0.072 0.10157 0.11719 0.15519 0.27478 0.29178 0.55993 0.4375 0.83984 0.10008 0.21986 0.20088 0.43827 0.30078 0.6582 0.0948 0.20862 0.1886 0.41824 0.2832 0.62695 0.0462 0.10198 0.0847 0.2086 0.13867 0.30664 0.29828 0.54098 0.28287 0.43371 0.57813 0.91602 0.103 0.16824 0.19827 0.34284 0.29687 0.51367 0.14643 0.25588 0.25632 0.53618 0.42188 0.78125 0.15378 0.25102 0.35825 0.46637 0.52343 0.70898 0.0889 0.13055 0.1667 0.26813 0.25 0.40234 0.20053 0.34758 0.29392 0.74762 0.51368 1.084 0.065 0.09948 0.15161 0.18284 0.22851 0.27344 0.1833 0.20761 0.19267 0.19552 0.33399 0.51562 0.036 0.08144 0.035 0.17694 0.0762 0.25586 8e-3 0.01598 0.0361-0.01655 0.0527-0.0098 0.055 0.02338 0.0928 0.07427 0.14258 0.10742-0.0196-0.01394-0.0772-0.0563-0.0586-0.04102 0.16098 0.13204 0.34101 0.25196 0.47656 0.41406 0.22774 0.27234 0.39071 0.56535 0.56445 0.87305 0.0478 0.08746 0.0814 0.18309 0.14258 0.26172 0.0342 0.01787 0.0693 0.03682 0.10352 0.05469 4e-3 -0.0064 8e-3 -0.02403 0.0137-0.01953 0.14924 0.10378 0.29226 0.21576 0.43359 0.33008 0.62187 0.50307-0.0867-0.0076 0.60938 0.47461 0.0743 0.04524 0.14535 0.09678 0.22265 0.13672 0.26922 0.16725 0.57963 0.2482 0.85938 0.39258 0.51361 0.26506 0.81671 0.48581 1.25 0.85156 0.0738 0.07242 0.13798 0.15939 0.22265 0.21875 0.075 0.09031 0.21008 0.03211 0.29688 0.08789 0.21053 0.13525 0.41408 0.2806 0.60742 0.43945 0.59691 0.49045 0.10367 0.227 0.55469 0.44336 0.0833-0.13159 0.75779 0.44011 0.88086 0.53711 0.73784 0.69903 1.4166 1.0839 2.2833 1.2032l2e-3 2e-3c0.0405 0.0118 0.89183 0.20198 1.1271 0.23698 2.806 0.52065 4.4673 0.85467 6.5249 0.8821 2.7296 0.28805 0.42596 1.0236-0.72624 1.0236h-0.12912c0.26309 0.0659 0.47632 0.12421 1.1836 0.29102 0.20778 0.049 0.41404 0.1057 0.62305 0.14844-0.24665-1.0823 0.85211-2.1259 0.59314-2.5951l0.4503-0.73106c0.27137-0.44058 0.64537-0.99689 0.94676-1.0157 0.3875-0.02424 0.39523-0.08757 0.6584 0.02743 0.6742 0.21027 0.706 0.43503 1.2361 0.91983 0.0827 0.0757 0.14449 0.17026 0.21679 0.25586 0.15587 0.0641 0.1319 0.28441 0.25 0.37891 1.604 1.9049 2.2383 2.1524 3.5742 3.6171 0.0411 0.0636 0.0679 0.13532 0.10156 0.20312 0.10773-0.0232-0.0352-3e-3 0.14844 0.10157 0.0639 0.0362 0.0697-0.055 0.13281-4e-3 0.62174 0.50732 0.48914 0.37489 0.83399 0.90625 0.01 0.0111 0.0195 0.0223 0.0293 0.0332 0.49138 0.23717 0.9746 0.49549 1.4551 0.75 0.17178 0.091 0.33557 0.19819 0.51563 0.27149 0.26936 0.10959 0.5522 0.18359 0.82812 0.27539 0.73581 0.1637 1.4368 0.44311 2.1367 0.71679 0.15681 0.0613 0.31389 0.1223 0.47071 0.1836 0.062 0.0242 0.12104 0.0561 0.18554 0.0723 0.12486 0.0313 0.25423 0.0473 0.38086 0.0703 0.11883 0.0187 0.23649 0.037 0.35547 0.0547 0.16122 0.024 0.32292 0.0479 0.48438 0.0703 0.0988 0.0137 0.19997 0.0152 0.29687 0.0391 0.56796 0.14 1.1133 0.36262 1.666 0.55078 0.31817 0.10194 0.3593 0.10404 0.67187 0.25586 0.0665 0.0323 0.12381 0.0814 0.19141 0.11133 0.13946 0.0616 0.4886 0.0147 0.5664 0.0117 0.63547-0.0249 1.2697-0.0861 1.9004 0.0215 0.10428 0.0178 0.21187 0.0292 0.30664 0.0762 0.12694 0.063 0.23284 0.16084 0.34766 0.24414 2e-3 -6e-5 4e-3 -2e-3 6e-3 -2e-3 0.12975 0.0108 0.25939 0.0314 0.38867 0.0469 3.2274 1.5125 1.961-1.0888 3.9062-1.4339 0.0246-7e-3 0.0462-0.0157 0.0723-0.0215 0.44655-0.0992 0.49992-0.0782 0.87109-0.26367 0.0271-0.0136 0.0399-0.0459 0.0664-0.0606 0.0751-0.0416 0.4964-0.25366 0.63086-0.28906 0.24671-0.0649 0.49865-0.10646 0.74804-0.16016 0.85603-0.0829 1.6208-0.43927 2.3887-0.79883 0.2242-0.10499 0.43914-0.23266 0.66992-0.32226 0.33025-0.12822 0.67299-0.22013 1.0098-0.33008 0.48739-0.14141 1.0165-0.19494 1.4883-0.39258 0.43263-0.18124 0.84627-0.42736 1.2578-0.65039 0.0907-0.0499 0.18048-0.099 0.27148-0.14844 1e-3 -6.9e-4 3e-3 -1e-3 4e-3 -2e-3 -3.0385-1.4515-5.5723-5.4341-5.5723-8.8652 0-0.93052 0.14103-1.4885 0.69531-1.6289 0.92394-0.23409 2.9966 0.69116 7.4844 2.9883 0.85555 0.43795 1.9065 0.84265 2.8906 1.2754 0.25235-0.11078 0.5056-0.22132 0.75782-0.33203 0.46876-0.19877 0.93593-0.40066 1.4062-0.5957 0.31105-0.129 0.62318-0.25502 0.93554-0.38086-0.26314 0.04006-0.34827 0.03815-0.51562 0.0332-0.0301 0.01034-0.0606 0.01757-0.082 0.01367-0.0902 0.03197-0.18034 0.06466-0.27344 0.08594-0.2051 0.04688-0.63269-0.0049-0.85937-0.01367-0.29813-0.01109-0.59629-2.39e-4 -0.89454 0-0.21824-7.82e-4 -0.43604-4.65e-4 -0.65429 0-0.15871 2.53e-4 -0.31785 9e-6 -0.47656 0-0.11844 2.9e-5 -0.23704 7e-6 -0.35547 0-1.1522-6.6e-5 -1.1522-1.1641 0-1.1641 0.11843 6e-6 0.23703 2.9e-5 0.35547 0 0.15783 1e-5 0.31674 2.49e-4 0.4746 0 0.21879-4e-4 0.43746-7.81e-4 0.65625 0 0.31364-2.03e-4 0.62788-0.01277 0.94141 0 0.37718 0.01472 0.17911 9e-3 0.58789 0.02148 0.0187 7e-4 0.0656-0.0123 0.0566 0.0039-0.0239 0.04161-0.15653 0.10794-0.11133 0.0918 0.38665-0.13809 0.30683-0.14738 0.24219-0.14258 0.0419-0.0066 0.12543-0.02123 0.33399-0.06055 0.25412 0.02153 0.33185-0.0237 0.58984-0.07031 0.5506-0.09948 1.1038-0.12015 1.6621-0.13477 0.57077 0.06608 1.1338-0.3483 1.7188-0.3457 0.0246-0.02258 0.0487-0.04381 0.0762-0.0625 0.28263-0.19235 0.46064-0.27567 0.75195-0.2832 0.0348-0.03373 0.0866-0.02961 0.12305-0.05859 0.064-0.05012 0.12874-0.09873 0.19727-0.14258 0.055-9e-3 0.1092-0.01923 0.16406-0.0293 0.18636-0.08447 0.35074-0.21008 0.56055-0.26758 0.014-0.0017 0.0288-0.0043 0.043-0.0059 0.23611-0.1784 0.48784-0.33553 0.7461-0.48047 0.0627-0.02765 0.37704-0.18334 0.48047-0.17774 0.0504 0.0027 0.1006 0.01178 0.15039 0.02148 0.0819-0.06714 0.14864-0.15398 0.24023-0.20703 0.095-0.05503 0.19672-0.09943 0.29883-0.14062 0.29511-0.28186 0.50437-0.55118 0.95117-0.85547 6.2942-4.2866 7.7156-7.9261 3.8125-9.7598-1.375-0.64602-2.6506-1.3554-2.834-1.5762-0.1834-0.22083-0.93269-0.73269-1.666-1.1387-2.4093-1.3338-1.864-2.7915 2.9531-7.8809 6.3862-6.7472 5.876-7.7577-6.248-12.367-2.6715-1.0157-0.393-5.3477 2.8125-5.3477 0.9356 0 6.1484-5.8091 6.1484-6.8516 0-1.39-1.446-2.4815-3.2988-2.4883-7.0996-0.0261-11.633-7.0615-5.8418-9.0664 6.1894-2.1429 7.9824-6.7667 3.1016-7.9961-7.8841-1.9858-9.0952-4.3199-4.7227-9.1113 5.2391-5.741 4.9611-7.5961-0.76953-5.1309-4.867 2.0938-16.395 1.5985-21.469-0.92188-16.443-8.1643-23.559-11.458-29.112-11.75zm48.355 95.805c0.0142-5e-3 0.0288-0.0088 0.043-0.01367-0.0263-7.89e-4 -0.0359-0.0012-0.0684-2e-3 4e-3 0.0099 0.0137 0.0135 0.0254 0.01563zm0.043-0.01367c0.015 4.5e-4 0.0256-3.99e-4 0.0391 0 0.0571-0.01962 0.10918-0.04844 0.0762-0.03906-0.039 0.01107-0.0769 0.02579-0.11523 0.03906zm-53.541-89.016c1.92-0.224 13.258 11.275 13.258 13.445 0 1.7267-4.0609 1.3877-6.7344-0.5625-1.2459-0.9088-2.943-2.0093-3.7695-2.4434-3.6756-1.9304-5.8258-10.082-2.7539-10.439zm14.9 2.4961c1.0734-0.16188 3.0144 1.2116 5.7402 4.0938 2.1102 2.2311 5.5351 5.8555 7.6113 8.0527 2.249 2.3801 3.629 4.3783 3.4121 4.9434h-2e-3c-1.164 3.0329-10.661-1.9217-13.086-5.668-0.314-0.485-0.60134-1.8001-1.3184-2.7168-0.71702-0.9167-0.68536-1.194-1.3184-2.4199-0.1897-0.3674-0.97162-1.2789-1.2031-1.9551-0.8125-2.3733-0.8125-1.3179-0.8125-2.373 0-1.2086 0.33254-1.8599 0.97656-1.957zm-23.314 0.37695c0.72984-0.37106 2.1723 1.4319 3.6289 5.834l2.2578 6.8184 1.3027 9.3418c-0.0614 5.8667-0.46653 11.942-0.90039 13.5-0.5942 2.1341-1.1198 2.832-2.1309 2.832h-1.3438l0.51367-4.832c0.9872-9.289 0.13308-17.69-2.6738-26.289-1.4006-4.2906-1.3841-6.834-0.6543-7.2051zm44.822 8.8828c1.8758 0.3145 4.468 1.5606 6.5156 3.416 1.1 0.9968 3.4438 2.6347 5.207 3.6387 2.1406 1.2188 3.1355 2.1964 2.9941 2.9414-0.914 4.8148-17.201-3.5998-17.201-8.8867 0-0.59132 0.33518-0.94931 0.89453-1.1016 0.41952-0.11419 0.9646-0.11276 1.5898-0.0078zm-72.232 3.4453c3.7547 0 4.9781 1.2807 3.9141 4.0996-0.59763 1.5832-0.53035 2.682 0.32617 5.334 0.92885 2.876 0.94675 3.4246 0.12695 3.9434-2.7768 1.7574-4.6191 0.61948-4.6191-2.8535 0-1.4232-0.5987-3.8299-1.332-5.3477-2.102-4.3506-1.8503-5.1758 1.584-5.1758zm50.799 4.8359c5.3574 0.604 10.951 6.8128 10.951 12.156 0 2.1653 2.2864 5.1885 5.5371 7.3184 1.1186 0.733 1.7949 1.7749 1.7949 2.7656h2e-3c0 1.9839-1.7593 2.0455-5.8965 0.20898-5.9623-2.6463-10.105-7.6846-10.105-12.291 0-2.2637-2.1988-6.4461-3.9434-7.5-2.6533-1.6029-1.7544-3.0431 1.6602-2.6582zm-10.01 2.6328c1.7373-0.2485 4.9609 2.2418 4.9609 3.832 0 0.6625 1.0438 3.2661 2.3203 5.7852 1.2764 2.5191 2.327 5.1044 2.334 5.7461 0.0183 1.7152-3.1251 1.4349-6.1543-0.54883l-2.5-1.6367v-3.8867c0-3.0682-0.28768-4.1477-1.3633-5.1211-1.6896-1.5292-1.4604-3.9035 0.40235-4.1699zm30.326 3.8633c1.9887 0 5.326 1.8271 7.7344 4.2344 2.1473 2.1464 6.103 5.006 11.732 8.4805 1.7417 1.075 3.168 2.4038 3.168 2.9531 0 1.2643-11.727 1.3633-15.311 0.12891-2.7344-0.9418-5.0694-4.1285-5.6816-7.752-0.2408-1.4255-1.016-3.1164-1.7226-3.7559-1.7686-1.6006-1.7192-4.2891 0.0801-4.2891zm-28.466 17.633c0.8229 0.13727 1.8091 0.72454 2.8906 1.8672 2.6412 2.7908 5.5001 8.8188 5.5332 11.666 0.0381 3.2715-7.4715-0.99-9.582-5.4375-2.3094-4.8667-1.3105-8.5075 1.1582-8.0957zm10.467 0.375c0.78517 0.0076 1.7724 0.20585 2.916 0.64062 2.449 0.931 14.385 13.14 14.385 14.715 0 2.0334-6.277 1.6538-10.561-0.63867-2.0798-1.1131-5.4394-5.9485-5.4394-7.8281 0-0.8641-0.7513-2.2245-1.668-3.0215-2.5246-2.1952-1.9883-3.8899 0.36719-3.8672zm22.209 6.8594c1.779-0.13274 6.1018 1.2133 12.092 3.8223 1.8333 0.7985 4.5333 1.8059 6 2.2402 3.7106 1.0989 4.0612 3.3627 0.73633 4.752-2.5514 1.066-3.1882 1.0916-7.7461 0.31836-3.2969-0.5593-9.0588-3.0477-9.8281-4.2441-0.7004-1.0892-2.1406-5.2761-2.1524-6.2559-5e-3 -0.38072 0.30543-0.58856 0.89844-0.63281zm-41.59 4.4668c3.525 0 14.014 12.184 14.014 16.279 0 1.767-1.6772 2.7228-3 1.9805 0 0-0.95068-0.48943-2.0527-1.1523-1.9742-1.1876-5.8936-4.0093-7.0996-7.0293-0.53631-1.3429-0.92878-2.5432-1.2871-3.0918l-1.0488-1.9434s-0.13474-0.91854-0.97656-2.0234c-0.22223-0.2917-0.53516-0.95417-0.53516-1.6875 0-1.0349 0.44483-1.332 1.9863-1.332zm19.896 7.9922c1.5776 0.08444 3.6628 0.74173 5.7129 2.0996 1.7367 1.1503 4.264 3.4452 5.6152 5.0996 1.3512 1.6543 3.132 3.6166 3.957 4.3613s1.5 2.0498 1.5 2.9004c0 4.6895-12.807-0.91446-15.305-6.6973-0.6546-1.5159-1.8285-3.3269-2.6094-4.0254-2.7171-2.4307-1.5004-3.879 1.1289-3.7383zm20.066 1.373c1.1774 0.27678 2.7608 1.2085 4.3887 2.709 3.5 3.2255 9.9716 6.5597 14.662 7.5527 3.647 0.7721 5.6381 4.373 2.418 4.373-0.7361 0-1.5234 0.29935-1.75 0.66602-0.5175 0.8372-6.5682 0.76365-9.668-0.11719-3.6156-1.0274-6.3964-3.5314-8.3457-7.5156-0.9806-2.0042-2.2042-3.9929-2.7188-4.4199-0.51454-0.427-0.93555-1.3409-0.93555-2.0293 0-1.1178 0.77186-1.4955 1.9492-1.2188zm-44.756 3.9668c1.5256 1e-6 6.5788 5.2441 9.7383 10.105 1.3481 2.0742 2.8888 4.1364 3.4258 4.582 0.53697 0.4456 0.97656 1.5228 0.97656 2.3945 0 5.8668-12.773-3.1094-13.596-9.5547-0.24372-1.91-0.7338-2.281-1.0898-3.8711-0.30455-1.3601-0.74988-3.6562 0.54492-3.6562zm74.817 22.14c-4.0425-0.9331-6.4292-1.8814-7.3809-2.9395-0.20087 0.04063-0.39942 0.07755-0.50391 0.08398-0.16731 0.0103-0.33628-0.0051-0.5039-0.0078-0.38159-0.09979-0.26088-0.0273-0.55664 0.03906-0.0218 0.0049-0.0677 0.01637-0.0937 0.02148-0.0624 0.04308-0.1265 0.08595-0.19532 0.11719-0.0677 0.03075-0.14905-0.0048-0.22265 0.0059-9e-3 0.0013 0.0187 0.01594 0.0137 0.02344-9e-3 0.01344-0.0273 0.02004-0.043 0.02344-0.12004 0.02606-0.24238 0.04268-0.36328 0.06445-0.15057 0.0313-0.28907 6.84e-4 -0.42969-0.0293-1.7123 0.78675-3.4739 1.4613-5.2109 2.1914 2.4605 1.012 4.888 1.9049 6.4805 2.252 9.6745 8.5221-9.3617 5.7401-15.58 7.5923-0.054 0.0162-0.10844 0.0335-0.16211 0.0508-8e-3 0.034-0.0186 0.0672-0.0312 0.0996-0.0387 0.0995-0.45199 0.1864-0.48829 0.1914-0.0751 0.0103-0.15311-0.0158-0.22851-8e-3 -0.0452 5e-3 0.0916 0.0116 0.13672 0.0176-0.24261 0.15941-0.58345 0.0955-0.85742 0.0742-0.0155 2e-3 -0.0471 3e-3 -0.0684 4e-3 -0.36013 0.0451-0.25662-0.20163-0.17383-0.6582-0.0195-0.10531-0.0364-0.18487-0.0488-0.25195-0.10397-7e-3 -0.20749-0.0171-0.31055-0.0332-0.14069-0.15336-0.3092-0.28595-0.42187-0.46093-0.0193-0.03-0.029-0.0613-0.0332-0.0938-0.53787 0.23543-1.0871 0.44073-1.666 0.54688 0.24353 0.1003 0.54545 0.19207 0.62109 0.31445-3.7843 10.58-24.638-2.5954-34.851-5.139-0.30675-0.0763-0.61207-0.15486-0.91992-0.22656-0.4858-0.11317-0.26842-0.0199-0.85547-0.21094-0.0969-0.0315-0.18705-0.0784-0.28125-0.11719-17.311 0.8144-45.378-27.319-12.834-9.2128-0.20178-0.33213-0.32961-0.6953-0.49218-1.0469-0.39076-0.64908-0.91699-1.2125-1.2129-1.9199-0.2967-0.51808-0.63872-1.0075-0.92578-1.5312-0.0536-0.09786-0.0906-0.20304-0.13672-0.30469-0.0944-0.2084-0.18871-0.41664-0.28321-0.625-0.0939-0.20691-0.1893-0.41419-0.2832-0.62109-0.0968-0.20504-0.17765-0.41777-0.28906-0.61523-51.589 36.18 103.69 28.671 81.687 12.34zm-54.776-13.472c2.2807 0 5.8058 2.503 10.768 7.6484 2.0167 2.0913 4.3492 4.0719 5.1836 4.4004 1.888 0.7433 2.6552 2.556 1.4141 3.3418h-2e-3c-4.328 2.7405-14.354-3.9704-17-9.2441-0.53243-1.0613-0.92658-1.5757-1.4766-2.791-1.3305-1.9279-0.99022-3.3555 1.1133-3.3555zm47.763 7.914c-0.0418-0.0021-0.0793 0.01634-0.11719 0.03711 0.0345 0.0071 0.0691 0.01542 0.10351 0.02344 0.0156-0.01753 0.0445-0.0371 0.0606-0.05469-0.0162-0.0023-0.0343-0.0052-0.0469-0.0059zm-3.4473 1.5352c-0.0216 0.0043-0.0431 0.0094-0.0625 0.01953-0.0184 0.0097-0.0468 0.06589-0.0293 0.05469 0.0331-0.02116 0.0628-0.04745 0.0918-0.07422zm1.752 1.002c-0.10455 0.05282-0.19701 0.12526-0.29297 0.19336 0.0636-0.02789 0.13059-0.05077 0.19532-0.07617 0.0331-0.03915 0.1434-0.14031 0.0977-0.11719zm-62.773 3.0449c0.0219 0.0323 0.0533 0.07342 0.11132 0.14258 0.0142 0.01693-0.0135-0.04129-0.0195-0.0625-1e-3 -0.0046-6e-3 -0.01597-2e-3 -0.01367 0.0147 0.0081 0.0275 0.01543 0.041 0.02344-0.0235-0.02474-0.0434-0.05386-0.0723-0.07227-0.017-0.01083-0.0405-0.0089-0.0586-0.01758zm15.434 1.4453c1e-3 2e-3 7.8e-4 4e-3 2e-3 6e-3 -4e-3 -5e-4 -0.01-8.8e-4 -0.0137-2e-3 4e-3 9e-3 7e-3 0.0191 0.0117 0.0293 4e-3 1e-3 0.01 3e-3 0.0137 4e-3 -2e-3 -8e-3 -4e-3 -0.0192-6e-3 -0.0254-1e-3 -2e-3 -3e-3 -4e-3 -4e-3 -6e-3h2e-3c-2.5e-4 -9.6e-4 -2e-3 -3e-3 -2e-3 -4e-3 -1e-3 -6.1e-4 -3e-3 -8.5e-4 -4e-3 -2e-3zm6e-3 6e-3c3.5e-4 1e-3 2e-3 4e-3 2e-3 6e-3 6e-3 0.0103 0.0114 0.0211 0.0176 0.0312 0.0352 0.0119 0.0666 0.0211 0.0918 0.0293-3e-3 -7e-3 -6e-3 -0.0125-0.01-0.0195-0.0299-0.0163-0.0591-0.0306-0.0859-0.043-5e-3 -9.8e-4 -0.01-3e-3 -0.0156-4e-3zm-13.908 0.0605c-3e-3 3e-3 -7e-3 4e-3 -0.01 8e-3 1e-3 3e-3 3e-3 5e-3 4e-3 8e-3 0.0103 1e-3 0.0209 7.5e-4 0.0312 2e-3 -4e-3 -5e-3 -8e-3 -0.0103-0.0117-0.0156-5e-3 -3e-4 -9e-3 -2e-3 -0.0137-2e-3zm14.902 0.33594c-9e-3 8.1e-4 -0.0125 3e-3 -0.0156 6e-3 6e-3 8.6e-4 0.0118 8.5e-4 0.0176 2e-3 -6e-4 -3e-3 -8.5e-4 -5e-3 -2e-3 -8e-3zm29.174 5.5723c-0.0115 4e-3 -0.0278 8e-3 -0.0371 0.0117 0.0148-4e-3 0.0301-6e-3 0.0449-0.01v-2e-3c1e-3 -7.1e-4 -5e-3 -1e-4 -8e-3 0zm1.582 0.0117c-0.0357-4e-3 -0.10611 0.0239-0.18164 0.0625 0.0269-0.0123 0.0889-0.0271 0.19726-0.0547-4e-3 -4e-3 -8e-3 -7e-3 -0.0156-8e-3zm-0.41211 0.19726c-0.0164 0.0109-0.0207 0.0159-0.0254 0.0195 0.0115-7e-3 0.0151-8e-3 0.0254-0.0137-7e-5 -3e-3 3.7e-4 -4e-3 0-6e-3zm-2.0529 1.1328c-0.0327-0.01 0.0429 0.0243 0.0937 0.0273-0.0314-9e-3 -0.0625-0.0183-0.0937-0.0273zm2.1504 0.48243c-0.0453 0.0262-0.0794 0.0428-0.11914 0.0644-2e-3 0.0197-5e-3 0.0392-8e-3 0.0586 0.0425-0.041 0.0841-0.0824 0.12696-0.12304zm-12.59 0.89257c0.16756 0.87376 0.2572 0.7068 0.0313 0.0313-0.0151-0.0218-0.0252-0.0311-0.0312-0.0312z" clip-path="url(#clipPath973)" style="fill:#fff;stroke-width:.66667"/></svg>
