<?xml version="1.0" encoding="UTF-8"?>
<svg width="477.81" height="387.51" version="1.1" viewBox="0 0 477.81 387.51" xmlns="http://www.w3.org/2000/svg"><path d="m339.93 386.25c-5.4446-4.2598-0.9868-10.578 12.548-22.487 11.91-9.1863 15.511-21.692 15.573-54.093l0.0258-13.333-3.228-4.6667c-1.7754-2.5667-4.108-5.348-5.1836-6.1807-4.5341-3.5104-10.581-7.5892-17.876-12.058-4.2765-2.6197-9.6082-5.9253-11.848-7.3457-2.2401-1.4205-7.5348-4.6286-11.766-7.1293-9.4288-5.5723-13.232-9.6201-15.864-16.882-2.8142-7.766-3.0273-9.1266-2.8062-17.905 0.50023-19.853-15.893-28.412-39.914-20.84-8.2524 2.6014-24.271 8.7737-28.51 10.985-2.9548 1.5417-14.427 5.5938-20.98 7.4102-4.1661 1.1548-21.673 4.1258-25.302 4.2937-9.568 0.44272-12.586-0.0558-10.55-3.6487 0.81224-1.4334 3.2446-4.1749 3.5387-5.9395l0.53443-3.2084-1.7161 0.22408c-1.2226 0.15964-1.8937 0.84458-2.3337 2.3818-0.9855 3.4422-14.343 11.423-21.026 12.563-4.254 0.72548-13.877-4.7589-27.479-15.662-6.3475-5.0874-41.316-25.368-47.232-27.393-8.6039-2.9449-24.812 0.0537-30.857 7.3915-4.5178 5.484-10.036 7.7997-10.677 4.2754-0.87716-4.8176-7.1393-1.3464-10.145 2.0936-1.9344 2.2138-3.9599 0.52187-4.2782-1.9686-0.28352-2.2183-4.191-1.2073-6.1457 0.75-0.73465 0.73561-2.3758 1.2488-3.7214 1.0833-2.9675-0.36498-1.9599-0.32025-2.8814 1.1235-4.565 7.1514-6.4757-5.0619 3.9115-17.79 7.4794-9.1651 9.3488-10.312 35.739-14.769 23.634-3.9918 24.811-3.972 37.202 0.62683 7.1068 2.6377 17.78 5.8504 19.437 5.8504 1.9643 0 2.0242-0.56498 0.52925-5-0.61796-1.8333-1.4633-4.4686-1.8786-5.8562-0.87924-2.9377-2.0764-3.5218-18.827-9.1862-22.809-7.7129-32.751-6.8564-38.081-0.83667-5.1649 5.8338-10.833 7.8928-12.482 4.1508-1.748-3.9655-9.5928 2.8776-10.814 5.4381-0.64529 1.3537-2.8245-0.1768-3.5794-2.1266-0.77489-2.0012-4.2594-1.6437-6.1327-0.1731 0 0-2.83-0.0544-4.6625-0.93724-1.2272-0.59128-2.015 1.31-3.3336 3.322-1.868 2.8503-2.178 1.872-3.094-0.76191-1.9397-5.5773 3.8767-16.455 12.696-23.373l1.2071-0.70873 1.4287-0.46718c5.0871-1.6635 19.724-4.3281 23.187-5.0498 18.894-3.4767 22.583-3.9979 28.85-2.4499 9.0669 2.2402 17.635 4.502 22.216 5.8645 18.571 5.5239 22.166 5.1106 23.22-2.67l0.89275-2.95 2.3604-1.7841 2.777-1.2216v-3.235c0-5.4156 2.8992-9.9885 6.3328-9.9885 2.7679 0 3.3668-1.3944 2.8304-6.5909-0.54036-5.234 0.12121-6.526 4.3496-8.4945l2.0382-0.94887v-3.9515c0-4.5978 1.0735-7.149 3.2596-7.747 6.1724-1.6883 4.8203-11.429-1.3918-10.027-10.608 2.3947-16.892 3.8838-19.641 4.6536-6.2175 1.7418-9.1121-0.90553-11.547-10.561-0.66281-2.6281 0.62119-3.2236 4.4361-2.0576 3.5334 1.08 8.2822 1.3786 10.383 0.65292 1.2485-0.43131 1.678-7.8146 0.70852-12.179-0.73644-3.315-5.7408-2.2347-13.803 2.9797-5.2774 3.4133-5.5154 3.2359-8.9476-6.6693-2.1615-6.2378-1.9692-6.9471 1.6324-7.0628 5.9609-0.1916 7.4383-1.763 7.2088-4.8584-0.33873-4.5692-3.5183-5.0755-4.3954-0.82674l0.13885 2.1043-3.4388 0.25c-3.7439 0.27218-4.471-0.93595-4.5912-5.1377-0.13885-4.8507 0.50506-4.0755 9.8198-10.22 4.3967-2.9004 6.5248-4.448 8.6018-7.6667 5.0923-7.8914 10.701-10.882 25.566-13.631 4.0325-0.74572 10.186-2.4033 13.674-3.6836 11.489-4.2167 14.203-3.6268 43.419 9.4391 5.636 2.5204 18.441 3.0151 23.847 0.92132 6.3654-2.4652 6.6746-0.61074 0.85508 5.1303-4.8569 4.7914-3.5124 7.1273 5.2451 9.1131 5.4216 1.2294 3.4292 5.8522-3.4459 7.9951-6.4326 2.0049-1.3975 9.041 6.4887 9.0671 2.058 0.0068 3.6656 1.0978 3.6656 2.4878 0 1.0425-5.7906 6.8518-6.8298 6.8518-3.5606 0-6.091 4.3326-3.1235 5.3483 13.467 4.6095 14.033 5.6198 6.9399 12.367-5.3508 5.0894-5.9572 6.546-3.2811 7.8798 0.81456 0.40597 1.6476 0.91877 1.8513 1.1396 0.20363 0.2208 1.6198 0.92998 3.1472 1.576 4.3355 1.8337 2.7564 5.4724-4.235 9.759-4.6929 2.8773-2.8745 4.8226 6.2881 6.7266 4.8767 1.0134 4.8001 2.2609-0.38685 6.2924-5.8671 4.5602-5.6162 6.2193 1.2883 8.5156 5.6288 1.8721 4.7946 4.4017-2.9163 8.8424-6.6757 3.8445-6.2565 6.1317 1.33 7.2557l4.7412 0.70242-0.12744 2.2976c-0.12939 2.3324-5.9026 7.9168-8.2194 7.9505-4.5483 0.0663-2.2824 4.8173 3.3706 7.0681l3.9695 1.5804 9.7597-1.3123c21.594-2.9035 45.322-2.3782 62.221 1.3775 8.3036 1.8455 11.738 3.185 22.814 8.8969 3.119 1.6086 9.5651 7.3378 12.529 11.136l1.1627 1.4896 4.3912-0.63155c21.134-3.0394 35.228 9.4204 48.845 43.179 0.98423 2.4401 2.7868 5.8901 4.0057 7.6667 1.2189 1.7766 2.7788 4.1301 3.4665 5.2301 10.648 17.034 31.127 23.797 41.315 13.645 8.0926-8.0642 0.33187-25.323-15.618-34.735-28.959-17.087-34.096-20.823-42.547-30.948-6.7851-8.1275-7.7843-10.427-9.6883-22.295-3.9152-24.404 15.559-46.315 39.971-44.971 15.949 0.87793 30.39 11.104 31.499 22.304 1.2064 12.187 9.8952 19.184 18.176 14.638 5.5336-3.0372 5.9708-0.8812 0.73068 3.6034-16.353 13.995-46.549-1.9588-35.786-18.908 5.8082-9.1473-10.172-16.66-23.634-11.111-15.58 6.4215-23.843 26.809-16.796 41.445 5.9727 12.404 13.6 19.565 31.544 29.616 23.703 13.276 32.604 22.396 37.463 38.384 5.5384 18.224-12.95 32.17-36.308 27.388-12.18-2.4938-21.716-9.2262-30.589-21.594-2.1569-3.0065-12.547-22.576-13.518-25.46-4.1036-12.192-17.464-21.227-25.594-17.31-1.1395 0.68588 0.4586 1.9372 1.7381 3.8533 0.86902 1.3013 2.9914 4.3172 4.5207 8.0867 0.3981 0.98122 1.6724 4.6343 1.9727 9.1739l0.53937 8.1574 2.777 4.8527c1.5275 2.669 4.1469 6.504 5.821 8.5222s4.0329 5.0182 5.2416 6.6667c4.1311 5.6341 14.389 14.841 18.796 16.869 1.0793 0.4968 4.6778 2.1588 7.9967 3.6934 3.4426 1.5918 7.1797 3.9314 8.7011 5.4476l2.6669 2.6575v4.9756c0 20.604 2.8768 36.695 6.1841 50.706 3.1741 13.446 5.2649 17.267-0.77178 21.327-1.5513 1.0433-4.9494 2.764-6.4249 4.6331-2.0231 2.5629-3.916 4.0051-6.1865 4.4521-2.9179 0.57452-3.0676 1.3525-3.0676 1.3525-0.69547 2.2135-2.545 4.972-5.8679 5.0604-1.9738 0.0525-2.464 0.216-3.2639 1.9402-1.1984 2.5834-7.2791 3.3445-9.2311 1.9694-6.2528-4.4044-1.7074-12.044 7.4854-23.714 7.4429-9.4489 7.678-9.4466 5.9925-26.372-3.1124-31.255-4.5888-34.68-17.801-41.3-9.8267-4.9232-13.972-8.1506-17.015-13.248-1.5353-2.5715-4.0896-3.3682-4.0896-1.2755 0 2.7471 4.4792 8.2925 11.434 14.156 2.827 2.3833 7.1252 6.0549 9.5515 8.1589l4.4115 3.8256-0.49435 6.3312c-0.27187 3.4822-0.77883 7.0107-1.1265 7.8411-0.34771 0.8304-1.0397 6.1598-1.5378 11.843-0.49804 5.6833-1.3725 12.733-1.9434 15.667-1.6307 8.3799-2.7814 29.097-1.8364 33.064 2.3103 9.6981-0.52467 10.237-9.5217 14.711-3.1735 1.5781-3.7457 2.7824-4.9675 3.5352-2.361 1.4547-5.1127 2.3868-7.1401 1.8983 0 0-2.7842 0.4404-3.1614 1.7393-0.61681 2.1234-6.8264 4.5404-8.4786 3.3857 0 0-1.6146-0.6341-4.025 1.6667-2.6847 2.5626-5.2747 1.9776-6.997 1.0146zm-175.1-190.64c9.2356-3.0654 14.46-5.0326 3.5596-5.2826l-5.4793-0.8125-5.7932-2.5653c-13.235-5.8608-19.954-5.5749-9.5134 2.7069 8.9454 7.0954 10.669 8.1299 17.226 5.9535zm12.877-12.926c5.565-2.1475 4.2996-4.6562-2.3612-4.6813-1.3325-5e-3 -5.4435-1.0718-9.1357-2.3707-8.3182-2.9262-10.701-3.379-12.136-2.3064-1.8145 1.3557-1.3014 3.2126 1.2108 4.3821 1.2779 0.59489 3.0979 1.834 4.0444 2.7536 3.6374 3.5334 12.275 4.5781 18.377 2.2228zm-51.058-2.6935c1.8731-0.19458-0.84216-2.7211-3.1703-6.033-1.1458-1.6301-3.195-4.8444-4.5535-7.1428-2.488-4.2091-4.474-5.4743-7.145-4.5516-0.85705 0.29609-1.046 0.83654-0.66605 1.9052 0.29171 0.82055 0.79909 3.6357 1.1274 6.2559 0.84084 6.7085 2.3307 8.4177 8.5072 9.7596 2.3001 0.49972 2.0236 0.20934 3.3475 0.0718zm19.648-2.6167c0-2.2585-16.412-12.713-19.957-12.713-4.7283 0 2.4736 8.9107 9.59 11.865 6.3139 2.6213 10.367 2.953 10.367 0.84833zm39.072-2.677c0.70724-0.34663 2.502-0.80457 3.9883-1.0176 5.6493-0.8098 5.7002-3.9416 0.0737-4.5415-2.0074-0.21404-5.6192-1.0378-8.0264-1.8307-2.4072-0.79282-5.6264-1.5942-7.1536-1.7808l-2.777-0.33925v1.9667c0 2.2677 1.038 3.2154 6.6647 6.0842 4.4061 2.2466 5.2682 2.4205 7.2301 1.4589zm-25.136-6.1758c-0.13936-0.86729-0.91382-1.6209-1.884-1.8333-0.90605-0.19836-4.2072-2.3107-7.3359-4.694-6.5798-5.0122-9.1596-6.6561-10.455-6.6623-1.3912-7e-3 -1.1142 1.9028 0.55288 3.8108 0.81319 0.9307 1.826 2.8538 2.2507 4.2736 0.98896 3.3064 3.0453 4.482 9.7555 5.5767 7.4298 1.2122 7.3874 1.215 7.1163-0.47154zm42.336-5.5173c2.2364-0.53578 4.1803-1.2822 4.3198-1.6588 0.13942-0.37654 0.72557-0.68462 1.3024-0.68462 0.57699 0 1.0491-0.4364 1.0491-0.96979 0-1.0223-1.5233-1.3502-9.4342-2.0307-5.2724-0.45356-7.5169-1.0526-14.239-3.7999-6.7049-2.7405-8.91-3.0756-8.91-1.3542 0 0.73994 0.57703 1.6633 0.74027 2.221 0.38979 1.3316 0.98984 1.6387 1.6343 3.0297 0.64444 1.391 3.1919 2.879 4.4729 4.0707l2.7459 1.6042 5.9178 0.5545c3.4838-5e-3 8.1641-0.44627 10.401-0.98204zm-70.342-4.1418c0-0.62249-3.4642-4.2505-7.6982-8.0623-9.5654-8.6114-10.444-8.7155-10.444-1.2372 0 6.0306 0.36573 6.4579 7.0077 8.1864 2.2551 0.58687 4.7666 1.3118 5.5812 1.6108 2.702 0.99206 5.5539 0.73646 5.5539-0.49776zm36.285-1.5349c0-0.73333-0.38481-1.3333-0.85513-1.3333-0.47031 0-3.5752-2.55-6.8996-5.6667-4.7634-4.4656-6.4838-5.6667-8.1175-5.6667h-2.073l0.5273 1.8333c0.29003 1.0083 0.69183 3.2255 0.89287 4.927 0.49157 4.1605 5.5276 6.5803 14.859 7.1398 1.2094 0.0725 1.6662-0.26558 1.6662-1.2334zm53.223-7.9985c4.2274-1.8149 3.0602-3.2099-6.2218-5.3349-0.61238-0.1402-2.163-0.675-3.4022-1.5l-3.4336-1.0625-7.6442-0.4839c-9.2923-0.58823-9.5597 0.045-7.555 2.9032 4.7476 6.7691 19.715 9.145 28.258 5.4781zm-79.141 0.3008c0-0.56706-1.0652-1.5421-2.3673-2.1667-1.302-0.6246-3.0516-1.8594-3.8877-2.7439-9.7522-10.315-15.22-13.804-15.22-9.7108 0 1.1461 0.45026 3.4226 1.7125 3.9403 1.6459 2.1732 2.0117 2.7169 2.826 4.2982 2.0112 3.9049 1.2367 4.2556 5.9214 5.9163 4.8936 1.7348 11.016 1.994 11.016 0.46652zm43.691-1.65c0-1.0008-1.2291-1.8762-4.7755-3.4012-2.6265-1.1295-6.3584-3.3997-8.293-5.0449-9.1421-7.7743-14.574-9.2101-11.738-3.1034 0.61093 1.3163 1.1108 2.9044 1.1108 3.529 0 2.1983 3.0015 3.9596 13.7 8.0392 4.8972 1.8675 9.997 1.8579 9.997-0.0187zm-36.447-9.6524c0.15003-0.95965-0.69389-1.8218-3.0112-3.0763-3.0831-1.669-5.9681-5.6584-7.5416-10.429-0.64977-1.9697-6.7833-6.1617-9.0156-6.1617-2.0749 0-2.3817 2.5809-0.63402 5.3333 0.58206 0.91666 1.0701 3.1381 1.0845 4.9366 0.0508 6.3259 18.203 15.248 19.118 9.3968zm78.708-1.9874c2.5526-0.83083 3.6951-2.6005-2.9-3.2485-1.3797-0.13556-6.5862-2.2534-11.606-4.4899-13.829-6.162-17.46-5.5978-10.929 1.6987 6.0356 6.7435 15.462 9.2856 25.435 6.0396zm-33.613-0.74651c0.25062-0.58797-9e-3 -1.325-0.57863-1.641-4.8493-2.692-11.031-7.3414-11.031-8.2968 0-2.2857-13.203-10.328-16.954-10.328-1.9821 0-2.0799 2.0353-0.17268 3.5892 0.76227 0.62104 1.8156 2.9519 2.3408 5.1797 1.1361 4.8198 3.3053 7.3775 7.149 8.4291 14.139 3.8686 18.602 4.58 19.247 3.068zm-36.786-10.496c0-0.85984-0.63578-2.0813-1.4128-2.7144-0.77706-0.6331-2.4011-3.0139-3.6092-5.2906-1.208-2.2767-3.4881-5.4103-5.0667-6.9634-1.5787-1.5531-3.4691-3.5688-4.2008-4.4794-1.7327-2.156-4.964-2.2914-4.964-0.20803 0 0.79613 0.53389 1.9786 1.1864 2.6277 0.65252 0.64912 1.4232 2.9227 1.7127 5.0525 0.88176 6.488 2.9965 8.8215 11.163 12.318 3.7742 1.6159 5.1907 1.5224 5.1907-0.34271zm70.348-5.3693c4.1743-1.8526 4.717-3.448 1.3356-3.9253-6.5576-0.9257-23.45-6.7127-24.636-8.4396-0.26523-0.38635-1.6288-0.70247-3.0303-0.70247-3.2899 0-3.7101 1.4959-0.81746 4.3333 2.7124 2.6606 2.7124 2.2511 2.7124 2.6606 0 1.2052 4.5302 4.7631 8.4052 6.6012 4.3624 2.0693 10.644 1.8625 16.03-0.52776zm-30.36-1.5921c0-0.76541-1.7099-2.0767-4.7829-3.6679-3.3904-1.7555-5.9688-3.8146-8.8557-7.072-5.1726-5.8363-7.3996-7.4021-10.528-7.4021-2.7546 0-2.2717 0.79908-1.6757 3.2008 0.36548 1.4729 0.83216 2.4432 1.1599 3.2761 1.7181 4.3663 4.0689 7.1771 7.0687 8.8565 0.64523 0.36121 2.6878 0.6 4.2845 1.3333 1.5967 0.73334 3.7984 1.0038 4.7401 1.3333 1.0104 0.35355 2.2947 0.66666 2.2947 0.66666 1.6464 0.0208 6.2944 0.80841 6.2944-0.52467zm-33.323-9.2368c0-0.60213-1.4223-2.6271-3.1607-4.5s-3.6478-4.2645-4.2433-5.3147c-1.6528-2.9154-8.0012-7.7572-10.171-7.7572l-1.2747 0.48614-0.0438 1.6805c-0.0318 1.2215 0.79822 3.4987 1.1073 5.1267 0.38989 2.0537 1.2149 3.4547 2.6944 4.5754 1.1728 0.88845 2.9984 2.2933 4.0569 3.1219 4.3508 3.4061 11.035 4.9695 11.035 2.5812zm65.369-4.3518c3.7838-1.6338 2.4155-3.403-3.5346-4.5704-2.851-0.55934-8.2595-2.4343-12.019-4.1667-7.9759-3.6754-9.0862-3.8416-9.0862-1.3602 0 3.4966 2.9126 7.599 6.3734 8.9773 1.7556 0.69913 3.4193 1.6022 3.6972 2.0069 0.67273 0.97993 11.817 0.30144 14.569-0.88703zm-35.084-4.4963c1.3786-0.78584 0.52717-2.5977-1.5699-3.341-0.92684-0.32852-3.518-2.3084-5.758-4.3997-5.5114-5.1454-9.4264-7.6496-11.96-7.6496-2.3365 0-2.7141 1.4271-1.2362 3.355 0.61092 1.2153 1.0476 1.7305 1.639 2.7918 2.9388 5.2737 14.077 11.984 18.884 9.2435zm-25.841-6.9754c0-0.87177-0.48801-1.9497-1.0844-2.3953-0.59647-0.4456-2.3097-2.5074-3.8072-4.5816-3.5096-4.8614-9.1222-10.105-10.817-10.105-1.4383 0-0.94299 2.2946-0.6047 3.6547 0.39548 1.5901 0.94058 1.9627 1.2113 3.8727 0.91371 6.4453 15.101 15.421 15.101 9.5542zm55.909-5.7483c0.25172-0.36667 1.1265-0.66667 1.9442-0.66667 3.5769 0 1.3663-3.6003-2.6848-4.3724-5.2101-0.99307-12.4-4.3273-16.287-7.5528-3.6164-3.001-7.0393-3.7254-7.0393-1.4898 0 0.68843 0.46762 1.6011 1.0392 2.0281 0.57153 0.42703 1.9303 2.4163 3.0195 4.4205 2.1652 3.9842 5.2545 6.489 9.2707 7.5164 3.4432 0.88084 10.162 0.95383 10.738 0.11663zm-25.548-2.2131c0-0.85055-0.74977-2.1558-1.6662-2.9005-0.91639-0.74473-2.8942-2.7077-4.395-4.362-1.5008-1.6544-4.3072-3.9492-6.2362-5.0995-6.0725-3.621-12.429-2.2506-7.6006 1.6385 0.86735 0.6985 2.1719 2.5102 2.899 4.0261 2.7739 5.7828 16.999 11.387 16.999 6.6975zm-25.178-6.1739c0-4.0952-11.651-16.28-15.567-16.28-1.7123 0-2.2059 0.2984-2.2059 1.3333 0 0.73333 0.3464 1.3952 0.59326 1.6869 0.93508 1.1049 1.0842 2.0232 1.0842 2.0232l1.1656 1.9444c0.39802 0.54863 0.83473 1.749 1.4304 3.0919 1.3396 3.02 5.6921 5.8412 7.885 7.0288 1.224 0.66291 2.2816 1.1528 2.2816 1.1528 1.4694 0.74237 3.3323-0.2148 3.3323-1.9818zm51.543-9.9324c3.6932-1.3892 3.3038-3.6517-0.81784-4.7506-1.6291-0.43437-4.6282-1.4431-6.6647-2.2416-8.8714-3.4786-14.449-4.7112-14.429-3.1883 0.0132 0.97976 1.6141 5.1667 2.392 6.2559 0.85458 1.1964 7.2549 3.6843 10.917 4.2436 5.0629 0.77323 5.7683 0.74707 8.6023-0.31898zm-86.42-2.4467c1.8943-4.8918 0.91296-16.567-1.3923-16.567h-1.3064l0.0325 9.3333c0.0337 9.651 0.86102 11.896 2.6662 7.2339zm60.054 0.12871c0-1.5744-13.257-13.784-15.978-14.715-5.0811-1.7391-7.3857 0.30097-3.6466 3.2279 1.0182 0.79703 1.8513 2.1561 1.8513 3.0202 0 1.8796 3.7327 6.7152 6.0429 7.8283 4.7581 2.2925 11.73 2.6721 11.73 0.63873zm-21.486-2.1959c-0.0367-2.8472-3.2137-8.8762-6.1475-11.667-4.8054-4.5706-7.9173-0.26037-4.497 6.2285 2.3443 4.4475 10.687 8.7096 10.644 5.4381zm20.005-15.423c0-0.9907-0.75161-2.0333-1.9941-2.7663-3.6108-2.1299-6.1517-5.1524-6.1517-7.3177 0-5.3435-6.2122-11.552-12.163-12.156-3.7929-0.38488-4.7922 1.0544-1.845 2.6573 1.9378 1.0539 4.3815 5.2376 4.3815 7.5013 0 4.6064 4.6005 9.6447 11.224 12.291 4.5955 1.8365 6.5493 1.7737 6.5493-0.21022zm27.399-0.07545c0-0.54933-1.5828-1.8783-3.5175-2.9533-6.253-3.4745-10.647-6.3341-13.032-8.4805-2.6752-2.4073-6.3815-4.2341-8.5905-4.2341-1.9984 0-2.0552 2.6888-0.0908 4.2894 0.7849 0.63948 1.646 2.329 1.9135 3.7545 0.68002 3.6235 3.2746 6.8101 6.3118 7.7519 3.981 1.2344 17.006 1.1365 17.006-0.12781zm-66.703-3.8346c0.48191-1.5583 0.93206-7.6333 1.0003-13.5l-1.4468-9.3408-2.5068-6.8202c-3.236-8.8042-6.4165-7.2085-3.305 1.3728 3.1179 8.5987 4.067 16.999 2.9705 26.288l-0.5706 4.8333h1.4911c1.1231 0 1.7074-0.69922 2.3674-2.8333zm18.556-0.33333c-8e-3 -0.64167-1.1739-3.2278-2.5918-5.7469s-2.578-5.1224-2.578-5.7849c0-1.5902-3.5807-4.0796-5.5104-3.8311-2.0691 0.26644-2.3231 2.6406-0.44626 4.1698 1.1947 0.97344 1.5136 2.052 1.5136 5.1202v3.887l2.777 1.6372c3.3648 1.9837 6.8564 2.2641 6.836 0.54893zm-51.135-9.4562c0.91062-0.51881 0.89108-1.0664-0.14067-3.9424-0.95141-2.652-1.0259-3.7506-0.36215-5.3338 1.1819-2.8189-0.17727-4.1008-4.348-4.1008-3.8148 0-4.0954 0.82532-1.7606 5.1759 0.81458 1.5178 1.481 3.9242 1.481 5.3474 0 3.473 2.0459 4.6111 5.1304 2.8537zm18.577-4.0225c0.49453-1.0017-5.1813-4.4308-7.1854-4.4477-2.7494-0.02327-0.61536 3.3535 2.6844 4.4889 1.9624 0.67526 3.7616 1.4564 4.2233 0.52131zm73.151-2.8035c0.15703-0.74497-0.948-1.7222-3.3257-2.941-1.9585-1.004-4.5605-2.6409-5.7824-3.6377-4.0436-3.2986-9.997-4.6728-9.997-2.3075 0 5.2869 18.09 13.701 19.105 8.8862zm-21.617-2.1661c0.24086-0.56508-1.2906-2.5632-3.7887-4.9433-2.3062-2.1972-6.1109-5.8204-8.4548-8.0515-4.8445-4.6114-7.4607-5.3612-7.4607-2.1383 0 1.0551 0 0 0.90252 2.3733 0.25714 0.67621 1.1247 1.5892 1.3355 1.9566 0.70312 1.2259 0.6681 1.5017 1.4646 2.4184 0.79646 0.91667 1.1157 2.2321 1.4646 2.7171 2.6939 3.7463 13.244 8.7007 14.537 5.6678zm-20.445-6.141c0-2.1703-12.594-13.669-14.726-13.445-3.4122 0.35782-1.0227 8.5106 3.0602 10.441 0.91811 0.43408 2.8016 1.5328 4.1855 2.4416 2.9697 1.9502 7.4808 2.2897 7.4808 0.56296z" style="fill:#c00;stroke-width:.70263"/></svg>
