<?xml version="1.0" encoding="UTF-8"?>
<svg width="428" height="392" version="1.1" viewBox="0 0 428 392" xmlns="http://www.w3.org/2000/svg"><path d="m304.57 390.05c-1.2118-0.8488-1.479-1.6683-1.467-4.5 0.0266-6.2838 2.3268-9.6079 12.942-18.702 3.2761-2.8067 6.507-5.9259 7.1799-6.9316 3.7602-5.6202 6.8046-26.61 6.8404-47.162l0.0233-13.333-2.9061-4.6667c-1.5983-2.5667-3.6983-5.348-4.6667-6.1807-4.0819-3.5104-9.5258-7.5892-16.094-12.058-3.85-2.6197-8.65-5.9253-10.667-7.3457-2.0167-1.4205-6.7833-4.6286-10.593-7.1293-8.4884-5.5723-11.913-9.6201-14.282-16.882-2.5335-7.766-2.7254-9.1266-2.5263-17.905 0.45034-19.853-14.308-28.412-35.933-20.84-7.4294 2.6014-21.85 8.7737-25.667 10.985-2.6601 1.5417-12.988 5.5938-18.888 7.4102-3.7506 1.1548-19.512 4.1258-22.779 4.2937-8.6138 0.44272-9.9561-0.18084-8.1232-3.7737 2.2616-4.4332 2.6557-9.0757 0.74689-8.7989-1.1006 0.15964-1.7048 0.84458-2.101 2.3818-0.88721 3.4422-12.913 11.423-18.929 12.563-3.8298 0.72548-12.493-4.7589-24.739-15.662-5.7144-5.0874-37.195-25.368-42.521-27.393-7.7458-2.9449-22.338 0.93758-27.78 7.3915-4.4013 5.2197-8.8762 7.21-9.6127 4.2754-0.66921-2.6663-6.4273-1.3464-9.1332 2.0936-1.7414 2.2138-4.065 1.8969-4.3515-0.59362-0.25524-2.2183-2.0229-2.4516-3.7891-0.5-0.66366 0.73333-1.8997 1.3333-2.7468 1.3333-0.84708 0-2.5521 0.8885-3.7889 1.9744-3.8713 3.399-5.0479-0.5537-2.5202-8.4661 4.3054-13.477 12.906-20.966 27.389-23.85 2.3833-0.47451 6.1333-1.2173 8.3333-1.6507 2.2-0.43337 6.1839-1.2496 8.8531-1.8137 9.9226-2.0973 16.547-1.4392 26.48 2.6308 6.5137 2.6688 16.018 5.8419 17.498 5.8419 1.7684 0 1.8223-0.56498 0.47646-5-0.55633-1.8333-1.3174-4.4686-1.6913-5.8562-0.79155-2.9377-1.8693-3.5218-16.949-9.1862-20.534-7.7129-26.97-7.9229-33.315-1.0867-4.5101 4.8594-6.8423 5.9933-11.233 5.4615-3.3569-0.40665-10.115 2.1705-11.479 4.3775-0.77447 1.2531-2.1937 0.5732-2.8734-1.3766-0.79447-2.279-1.4697-2.4436-3.7894-0.92374-1.5193 0.99549-1.8269 0.98881-4.0983-0.089-2.6618-1.2631-2.9978-1.0875-5.2798 2.759-0.67494 1.1377-0.82295 1.066-1.8333-0.88785-2.5812-4.9914 0.28199-12.256 7.8127-19.822l4.7549-4.7773 10.333-2.1788c5.6833-1.1983 11.278-2.47 12.433-2.8259 2.1314-0.65694 3.8909-1.0032 14.52-2.8574 6.0533-1.0559 10.861-0.54875 15.38 1.6225 0.73333 0.35233 3.2833 1.0657 5.6667 1.5853 2.3833 0.51956 5.9833 1.5549 8 2.3007 16.818 6.2196 21.614 5.7818 22.571-2.06 0.39478-3.2346 0.62645-3.6091 2.9287-4.734 2.3776-1.1618 2.5-1.38 2.5-4.4566 0-5.4156 2.6101-9.9885 5.7012-9.9885 2.4919 0 3.031-1.3944 2.5481-6.5909-0.48646-5.234 0.10913-6.526 3.9158-8.4945 1.689-0.87341 1.8349-1.2631 1.8349-4.9004 0-4.5978 0.96638-7.149 2.9345-7.747 5.5569-1.6883 4.3396-11.429-1.253-10.027-9.5498 2.3947-15.208 3.8838-17.682 4.6536-5.5974 1.7418-8.2033-0.90559-10.395-10.561-0.5967-2.6281 0.55924-3.2236 3.9937-2.0576 3.181 1.08 7.4562 1.3786 9.3472 0.65292 1.124-0.43131 1.5107-7.8146 0.63786-12.179-0.663-3.315-5.1683-2.2347-12.426 2.9797-4.7511 3.4133-4.9653 3.2359-8.0553-6.6693-1.9459-6.2378-1.7749-7.0595 1.4696-7.0628 3.9914-4e-3 7.0089-2.263 6.4898-4.8584-0.8981-4.4905-4.3945-5.1483-4.3945-0.82674 0 2.2815-0.07825 2.3543-2.5333 2.3543-3.3566 0-4.1353-0.93808-4.1231-4.9667 0.01287-4.2478 2.4447-6.8062 12.071-12.7 1.2114-0.74168 3.2061-3.1083 4.4951-5.3333 4.5845-7.9135 9.6251-10.903 23.024-13.655 3.6303-0.74572 9.1698-2.4033 12.31-3.6836 10.343-4.2167 12.786-3.6268 39.089 9.4391 5.0739 2.5204 16.602 3.0151 21.469 0.92132 5.7306-2.4652 6.0089-0.61074 0.7698 5.1303-4.3725 4.7914-3.1621 7.1273 4.722 9.1131 4.8809 1.2294 3.0872 5.8522-3.1022 7.9951-2.7406 0.94881-3.9382 2.3689-3.3314 3.9502 0.56118 1.4624 7.0988 5.1093 9.1729 5.1169 1.8528 7e-3 3.3 1.0978 3.3 2.4878 0 1.0425-5.2131 6.8518-6.1487 6.8518-3.2055 0-5.4835 4.3326-2.812 5.3483 12.124 4.6095 12.634 5.6198 6.2478 12.367-4.8171 5.0894-5.3631 6.546-2.9538 7.8798 0.73333 0.40597 1.4833 0.91877 1.6667 1.1396 0.18333 0.2208 1.4583 0.92998 2.8333 1.576 3.9031 1.8337 2.4815 5.4724-3.8127 9.759-4.2249 2.8773-2.5878 4.8225 5.661 6.7266 4.3904 1.0134 4.3214 2.2609-0.34827 6.2924-5.282 4.5602-5.0561 6.2193 1.1598 8.5156 5.0675 1.8721 4.3164 4.4017-2.6255 8.8424-6.0099 3.8445-5.6325 6.1317 1.1973 7.2557l4.2684 0.70242-0.11473 2.2976c-0.11648 2.3324-5.3139 7.9168-7.3996 7.9505-0.4662 8e-3 -1.1853 0.75483-1.598 1.6606-0.9965 2.1871 0.0116 3.3639 4.6326 5.4075l3.5736 1.5804 8.7864-1.3123c19.44-2.9035 40.802-2.3782 56.015 1.3775 7.4755 1.8455 10.568 3.185 20.538 8.8969 2.8079 1.6086 8.6111 7.3378 11.28 11.136 0.97954 1.3941 1.3003 1.4491 5 0.85809 19.026-3.0394 31.715 9.4204 43.973 43.179 0.88607 2.4401 2.5088 5.8901 3.6062 7.6667 1.0973 1.7766 2.5017 4.1301 3.1208 5.2301 10.033 17.828 28.398 23.533 37.484 11.646 6.0305-7.8894-1.0367-24.01-14.352-32.736-26.071-17.087-30.695-20.823-38.304-30.948-6.1084-8.1275-7.0079-10.427-8.7221-22.295-3.5248-24.404 14.007-46.315 35.985-44.971 14.358 0.87793 27.359 11.104 28.357 22.304 1.0861 12.187 8.9083 19.184 16.364 14.638 4.9817-3.0372 5.3753-0.8812 0.6578 3.6034-8.4831 8.0644-18.24 8.6407-26.292 1.553-5.7754-5.0837-8.7811-15.464-5.9246-20.461 5.229-9.1473-9.1575-16.66-21.277-11.111-4.309 1.9727-11.085 8.1208-13.511 12.259-3.7429 6.3849-4.618 22.247-1.6101 29.186 5.377 12.404 12.243 19.565 28.398 29.616 21.339 13.276 29.352 22.396 33.726 38.384 4.9861 18.224-11.659 32.17-32.687 27.388-10.965-2.4938-19.55-9.2262-27.538-21.594-1.9418-3.0065-11.296-22.576-12.17-25.46-3.6943-12.192-15.722-21.227-23.042-17.31-1.6078 0.86046-1.6832 3.0849-0.12284 3.6205 1.1655 0.40004 4.4971 4.55 6.1649 7.6793 0.49133 0.92187 1.0982 5.2744 1.3685 9.814 0.54052 9.0804 2.2303 13.503 8.2262 21.532 1.5072 2.0182 3.6307 5.0182 4.7188 6.6667 3.7191 5.6341 12.954 14.841 16.922 16.869 0.97168 0.4968 4.2113 2.1588 7.1992 3.6934 8.2257 4.2247 10.234 6.7918 10.234 13.081 0 20.604 2.2055 38.321 6.3692 51.163 4.2118 12.991 3.938 16.81-1.4966 20.87-1.3966 1.0433-3.7393 3.1556-5.206 4.694-2.9044 3.0463-5.3384 4.5755-6.3187 3.9697-0.34347-0.21228-1.0765 0.48811-1.6289 1.5564-1.3412 2.5935-4.804 5.4345-6.624 5.4345-1.0066 0-1.6975 0.60433-2.1937 1.9191-1.0672 2.8273-5.1675 4.111-7.0663 2.2122-4.0927-4.0927-2.0848-13.126 5.3437-24.041 6.7998-9.9914 6.6996-9.4808 5.1807-26.423-2.802-31.255-4.1311-34.68-16.026-41.3-8.8467-4.9232-12.578-8.1506-15.318-13.248-1.3822-2.5715-3.6817-3.3682-3.6817-1.2755 0 2.7471 4.0324 8.2925 10.294 14.156 2.545 2.3833 6.4146 6.0549 8.5989 8.1589l3.9716 3.8256-0.44504 6.3312c-0.24477 3.4822-0.70117 7.0107-1.0142 7.8411s-0.93604 6.1598-1.3844 11.843c-0.44838 5.6833-1.2357 12.733-1.7496 15.667-1.4681 8.3799-2.504 29.097-1.6532 33.064 2.0785 9.6915 0.68209 12.767-7.5806 16.695-2.9539 1.4044-6.4865 3.2331-7.8501 4.0639-2.1366 1.3016-2.6727 1.3906-3.8778 0.64374-1.23-0.76237-1.5478-0.67685-2.6389 0.71024-1.8701 2.3774-6.4652 4.2722-8.0144 3.3047-1.0431-0.65143-1.5911-0.41328-3.545 1.5406-2.529 2.529-4.6234 2.912-6.9628 1.2734zm-157.03-189.85c3.1303-1.1541 8.35-5.0321 8.0352-5.9699-0.18213-0.54264-1.9329-0.81275-5.2681-0.81275-4.7282 0-5.1333-0.12103-7.5754-2.2629-3.669-3.218-7.7301-4.8274-12.512-4.9584-5.8444-0.16008-5.7951 0.9947 0.31166 7.3004 7.0532 7.2829 11.105 8.8799 17.008 6.7035zm11.155-14.426c5.01-2.1475 3.8708-4.6562-2.1258-4.6813-1.1996-5e-3 -4.9006-1.0718-8.2246-2.3707-7.4886-2.9262-9.6336-3.379-10.926-2.3064-1.6335 1.3557-1.1716 3.2126 1.09 4.3821 1.1504 0.59489 2.7889 1.834 3.6411 2.7536 3.2746 3.5334 11.051 4.5781 16.545 2.2228zm-47.999-2.4284c1.5848-0.60815 1.2748-2.9863-0.82116-6.2982-1.0316-1.6301-2.8764-4.8444-4.0994-7.1428-2.2398-4.2091-4.0278-5.4743-6.4324-4.5516-0.77158 0.29609-0.94167 0.83654-0.59964 1.9052 0.26262 0.82055 0.7194 3.6357 1.0151 6.2559 0.75698 6.7085 2.0982 8.4177 7.6587 9.7596 2.0707 0.49972 2.1586 0.50165 3.2788 0.0718zm19.721-2.8819c0-2.2585-14.775-12.713-17.967-12.713-4.2568 0 2.2269 8.9107 8.6336 11.865 5.6842 2.6213 9.3333 2.953 9.3333 0.84833zm35.176-2.677c0.6367-0.34663 2.2525-0.80457 3.5906-1.0176 5.0859-0.8098 5.1317-3.9416 0.0664-4.5415-1.8072-0.21404-5.0588-1.0378-7.2259-1.8307-6.7689-2.4764-8.9402-2.5136-8.9402-0.1533 0 2.2677 0.9345 3.2154 6 6.0842 3.9667 2.2466 4.7428 2.4205 6.509 1.4589zm-22.629-6.1758c-0.12546-0.86729-0.82268-1.6209-1.6961-1.8333-0.81568-0.19836-3.7876-2.3107-6.6043-4.694-5.9236-5.0122-8.2461-6.6561-9.4127-6.6623-1.2525-7e-3 -1.0031 1.9028 0.49774 3.8108 0.73209 0.9307 1.6439 2.8538 2.0262 4.2736 0.89033 3.3064 2.7416 4.482 8.7825 5.5767 6.6888 1.2122 6.6506 1.215 6.4066-0.47154zm38.114-5.5173c2.0134-0.53578 3.7634-1.2822 3.8889-1.6588 0.12552-0.37654 0.65321-0.68462 1.1726-0.68462 0.51945 0 0.94445-0.4364 0.94445-0.96979 0-1.0223-1.3714-1.3502-8.4933-2.0307-4.7466-0.45356-6.7672-1.0526-12.819-3.7999-6.0362-2.7405-8.0214-3.0756-8.0214-1.3542 0 0.73994 0.44052 1.5144 0.97894 1.721 0.53841 0.2066 1.4536 1.5137 2.0338 2.9047 2.813 6.7442 9.6316 8.7152 20.315 5.8724zm-63.327-4.1418c0-0.62249-3.1187-4.2505-6.9305-8.0623-8.6114-8.6114-9.4028-8.7155-9.4028-1.2372 0 6.0306 0.32924 6.4579 6.3088 8.1864 2.0302 0.58687 4.2912 1.3118 5.0246 1.6108 2.4325 0.99206 5 0.73646 5-0.49776zm32.667-1.5349c0-0.73333-0.34643-1.3333-0.76984-1.3333s-3.2186-2.55-6.2115-5.6667c-5.985-6.2324-9.7502-7.8916-8.6994-3.8333 0.2611 1.0083 0.62282 3.2255 0.80381 4.927 0.44255 4.1605 4.9763 6.5803 13.377 7.1398 1.0888 0.0725 1.5-0.26558 1.5-1.2334zm46.977-7.1235c3.2288-1.5397 3.0243-3.0822-0.63678-4.8031-1.646-0.77371-3.4582-1.4068-4.027-1.4068-0.56885 0-1.9472-0.675-3.0629-1.5-2.1055-1.5568-17.917-2.4595-17.917-1.023 0 2.4425 5.2068 7.6976 8.7185 8.7994 4.3472 1.364 14.005 1.326 16.926-0.0666zm-70.311-0.5742c0-0.56706-0.95903-1.5421-2.1312-2.1667s-2.7472-1.8594-3.5-2.7439c-8.7796-10.315-13.702-13.804-13.702-9.7108 0 1.1461 0.53034 1.9226 1.6667 2.4403 1.3815 0.62947 1.6671 1.2258 1.6692 3.4857 4e-3 4.0515 1.8634 6.5681 6.0808 8.2288 4.4055 1.7348 9.9167 1.994 9.9167 0.46652zm39.333-1.65c0-1.0008-1.1065-1.8762-4.2992-3.4012-2.3645-1.1295-5.7242-3.3997-7.466-5.0449-8.2303-7.7743-13.12-9.2101-10.568-3.1034 0.55 1.3163 1 2.9044 1 3.529 0 2.1983 2.7021 3.9596 12.333 8.0392 4.4088 1.8675 9 1.8579 9-0.0187zm-32.812-9.6524c0.13507-0.95965-0.62468-1.8218-2.7109-3.0763-2.7756-1.669-5.3729-5.6584-6.7895-10.429-0.58496-1.9697-6.1068-6.1617-8.1165-6.1617-1.868 0-2.1442 2.5809-0.5708 5.3333 0.52401 0.91666 0.96339 3.1381 0.97637 4.9366 0.0457 6.3259 16.388 15.248 17.211 9.3968zm70.062-0.75c3.7122-0.74244 2.5311-3.6612-1.8154-4.4859-1.2276-0.23295-5.9293-2.2534-10.448-4.4899-12.45-6.162-15.718-5.5978-9.8385 1.6987 5.4337 6.7435 12.741 9.1493 22.102 7.2771zm-29.465-1.984c0.22563-0.58797-8e-3 -1.325-0.52092-1.641-4.3657-2.692-9.9305-7.3414-9.9305-8.2968 0-2.2857-11.886-10.328-15.263-10.328-1.7844 0-1.8725 2.0353-0.15546 3.5892 0.68625 0.62104 1.6345 2.9519 2.1073 5.1797 1.0228 4.8198 2.9757 7.3775 6.436 8.4291 12.729 3.8686 16.747 4.58 17.327 3.068zm-33.118-10.496c0-0.85984-0.57237-2.0813-1.2719-2.7144-0.69956-0.6331-2.1617-3.0139-3.2493-5.2906-1.0875-2.2767-3.1402-5.4103-4.5614-6.9634-1.4212-1.5531-3.1231-3.5688-3.7818-4.4794-1.5599-2.156-4.4689-2.2914-4.4689-0.20803 0 0.79613 0.48064 1.9786 1.0681 2.6277 0.58745 0.64912 1.2813 2.9227 1.5419 5.0525 0.79382 6.488 2.6977 8.8215 10.05 12.318 3.3978 1.6159 4.673 1.5224 4.673-0.34271zm63.332-5.3693c3.758-1.8526 4.2466-3.448 1.2024-3.9253-5.9036-0.9257-21.111-6.7127-22.179-8.4396-0.23878-0.38635-1.4664-0.70247-2.7281-0.70247-2.9618 0-3.075 1.669-0.29399 4.3333 1.1 1.0539 2 2.2511 2 2.6606 0 1.2052 4.0784 4.7631 7.5669 6.6012 3.9274 2.0693 9.583 1.8625 14.431-0.52776zm-27.332-1.5921c0-0.76541-1.5394-2.0767-4.3059-3.6679-3.0522-1.7555-5.3735-3.8146-7.9726-7.072-4.6567-5.8363-6.6616-7.4021-9.4781-7.4021-2.4799 0-3.1371 1.7617-1.2434 3.3333 0.55 0.45646 1 1.5528 1 2.4364 0 3.7918 3.7073 9.5636 6.1428 9.5636 0.68403 0 2.4198 0.6 3.8572 1.3333 1.4374 0.73334 3.3578 1.3333 4.2674 1.3333 0.90964 0 1.8393 0.3 2.0659 0.66666 0.77929 1.2609 5.6667 0.80841 5.6667-0.52467zm-30-9.2368c0-0.60213-1.2805-2.6271-2.8455-4.5-1.565-1.8729-3.284-4.2645-3.8201-5.3147-2.8886-5.6596-11.402-10.261-10.343-5.5905 0.27003 1.1917 0.71862 3.4987 0.99687 5.1267 0.35101 2.0537 1.0938 3.4547 2.4257 4.5754 1.0559 0.88845 2.6994 2.2933 3.6523 3.1219 3.9169 3.4061 9.9342 4.9695 9.9342 2.5812zm58.849-4.3518c3.4064-1.6338 2.1746-3.403-3.1821-4.5704-2.5667-0.55934-7.4357-2.4343-10.82-4.1667-7.1805-3.6754-8.18-3.8416-8.18-1.3602 0 3.4966 2.6221 7.5991 5.7378 8.9773 1.5805 0.69913 3.0783 1.6022 3.3284 2.0069 0.60563 0.97993 10.638 0.30144 13.116-0.88703zm-31.585-4.4963c1.2411-0.78585 0.47459-2.5977-1.4134-3.3411-0.8344-0.32852-3.1671-2.3084-5.1838-4.3997-4.9618-5.1455-8.4863-7.6496-10.767-7.6496-2.1035 0-2.6644 1.869-0.98031 3.2666 0.5058 0.41979 1.1102 1.7159 1.343 2.8802 1.1431 5.7156 12.673 11.984 17.001 9.2435zm-23.264-6.9754c0-0.87177-0.43934-1.9496-0.97631-2.3953-0.53697-0.44565-2.0793-2.5074-3.4274-4.5816-3.1595-4.8614-8.2124-10.105-9.738-10.105-1.2948 0-1.73 2.922-0.54439 3.6547 0.35604 0.22005 0.84678 1.9628 1.0905 3.8727 0.82258 6.4453 13.595 15.421 13.595 9.5542zm50.333-5.7483c0.22661-0.36667 1.0142-0.66667 1.7503-0.66667 3.2201 0 1.23-3.6003-2.417-4.3724-4.6905-0.99307-11.163-4.3273-14.663-7.5528-3.2557-3.001-6.3373-3.7254-6.3373-1.4898 0 0.68843 0.42099 1.6011 0.93553 2.0281 0.51453 0.42704 1.7378 2.4163 2.7184 4.4205 1.9493 3.9842 4.7305 6.489 8.3461 7.5164 3.0998 0.88084 9.1492 0.95384 9.6667 0.11664zm-23-2.2131c0-0.85055-0.675-2.1558-1.5-2.9005s-2.6055-2.7077-3.9567-4.362c-1.3512-1.6544-3.8776-3.9492-5.6143-5.0995-5.4668-3.621-11.19-2.2506-6.8426 1.6385 0.78085 0.6985 1.9553 2.5102 2.6099 4.0261 2.4972 5.7828 15.304 11.387 15.304 6.6975zm-22.667-6.1739c0-4.0952-10.489-16.28-14.014-16.28-1.5415 0-1.9859 0.2984-1.9859 1.3333 0 0.73334 0.3 1.3333 0.66667 1.3333s0.66667 0.41326 0.66667 0.91837c0 0.5051 0.41256 1.2608 0.9168 1.6792 0.50425 0.41848 1.1036 1.9292 1.332 3.3571 0.45465 2.8432 5.5018 8.0453 7.8058 8.0453 0.66007 0 1.3855 0.3 1.6122 0.66666 0.89728 1.4518 3 0.71328 3-1.0537zm46.403-9.9324c3.3249-1.3892 2.9743-3.6517-0.73627-4.7506-1.4667-0.43437-4.1667-1.4431-6-2.2416-7.9866-3.4786-13.008-4.7112-12.99-3.1884 0.0118 0.97976 1.4531 5.1668 2.1535 6.2559 0.76935 1.1964 6.5314 3.6843 9.8283 4.2436 4.5579 0.77323 5.193 0.74707 7.7444-0.31898zm-77.07-8.626c0-9.1056-0.24508-10.388-1.9854-10.388-1.069 0-1.1734 0.84939-1.1468 9.3333 0.0292 9.3179 0.0318 9.3333 1.5807 9.3333 1.5409 0 1.5515-0.0565 1.5515-8.2788zm53.333 6.308c0-1.5744-11.935-13.784-14.384-14.715-4.5743-1.7391-6.6491 0.30097-3.2829 3.2279 0.91667 0.79704 1.6667 2.1561 1.6667 3.0202 0 1.8796 3.3604 6.7152 5.4402 7.8283 4.2836 2.2925 10.56 2.6722 10.56 0.63873zm-19.343-2.1959c-0.0331-2.8472-2.8932-8.8762-5.5344-11.667-4.3261-4.5706-7.1277-0.26037-4.0485 6.2285 2.1105 4.4475 9.621 8.7096 9.5829 5.4381zm18.01-15.423c0-0.9907-0.67665-2.0334-1.7952-2.7663-3.2507-2.1299-5.5381-5.1524-5.5381-7.3177 0-5.3435-5.5926-11.552-10.95-12.156-3.4146-0.38487-4.3143 1.0544-1.661 2.6573 1.7446 1.0539 3.9446 5.2376 3.9446 7.5013 0 4.6064 4.1417 9.6447 10.104 12.291 4.1372 1.8365 5.8962 1.7738 5.8962-0.21021zm24.667-0.0754c0-0.54933-1.425-1.8783-3.1667-2.9533-5.6294-3.4745-9.5857-6.3341-11.733-8.4805-2.4084-2.4073-5.7451-4.2341-7.7338-4.2341-1.7991 0-1.8503 2.6888-0.0817 4.2894 0.70662 0.63948 1.4818 2.329 1.7226 3.7545 0.61219 3.6235 2.948 6.8101 5.6824 7.7519 3.584 1.2344 15.31 1.1365 15.31-0.12781zm-60.051-3.8346c0.43386-1.5583 0.8391-7.6333 0.90052-13.5l0.11168-10.667-2.8541-5.1667c-4.4841-8.1175-6.5935-7.5361-3.7923 1.0452 2.8069 8.5987 3.6614 16.999 2.6742 26.288-0.63428 5.968 1.4611 7.3837 2.96 2zm16.705-0.33333c-7e-3 -0.64167-1.0569-3.2278-2.3333-5.7469-1.2765-2.5192-2.3209-5.1224-2.3209-5.785 0-1.5902-3.2236-4.0796-4.9609-3.8311-1.8627 0.26644-2.0914 2.6406-0.40176 4.1698 1.0756 0.97344 1.3627 2.052 1.3627 5.1202 0 3.7561 0.0842 3.9421 2.5 5.5241 3.0292 1.9837 6.1725 2.2641 6.1542 0.54893zm-46.036-9.4562c0.8198-0.51881 0.80221-1.0664-0.12664-3.9424-0.85652-2.652-0.92366-3.7506-0.32604-5.3338 1.064-2.8189-0.15958-4.1008-3.9143-4.1008-3.4343 0-3.687 0.82532-1.585 5.1759 0.73333 1.5178 1.3333 3.9242 1.3333 5.3474 0 3.473 1.8419 4.6111 4.6187 2.8537zm15.715-4.6892c0-1.0962-4.6958-3.9933-6.5-4.0102-2.4752-0.0233-0.804 3.7285 2.1667 4.8639 1.7667 0.67526 4.3333 0.16963 4.3333-0.85369zm66.866-2.1369c0.14137-0.74497-0.85345-1.7222-2.994-2.941-1.7632-1.004-4.1057-2.6409-5.2057-3.6377-3.6403-3.2986-9-4.6728-9-2.3075 0 5.2869 16.286 13.701 17.2 8.8862zm-19.461-2.1661c0.21684-0.56507-1.1619-2.5632-3.4109-4.9433-2.0762-2.1972-5.5014-5.8204-7.6116-8.0516-4.3613-4.6114-6.7167-5.3612-6.7167-2.1383 0 1.0551 0.45 2.2918 1 2.7483s1.0067 1.1682 1.0148 1.5816c8e-3 0.41344 0.60148 1.5017 1.3185 2.4184 0.71702 0.91667 1.3104 2.1394 1.3185 2.7171 0.0502 3.5588 11.923 8.7007 13.087 5.6678zm-18.406-6.141c0-2.1703-11.338-13.669-13.258-13.445-3.0719 0.35782-0.92065 8.5106 2.755 10.441 0.82655 0.43407 2.5222 1.5328 3.7681 2.4416 2.6735 1.9502 6.7348 2.2897 6.7348 0.56296z" style="fill:#c00;stroke-width:.66667"/></svg>
