<?xml version="1.0" encoding="UTF-8"?>
<svg width="428" height="392" version="1.1" viewBox="0 0 428 392" xmlns="http://www.w3.org/2000/svg"><path d="m304.81 387.89c-4.9016-4.2598-0.88838-10.578 11.297-22.487 10.722-9.1863 13.964-21.692 14.02-54.093l0.0233-13.333-2.9061-4.6667c-1.5983-2.5667-3.6983-5.348-4.6667-6.1807-4.0819-3.5104-9.5258-7.5892-16.094-12.058-3.85-2.6197-8.65-5.9253-10.667-7.3457-2.0167-1.4205-6.7833-4.6286-10.593-7.1293-8.4884-5.5723-11.913-9.6201-14.282-16.882-2.5335-7.766-2.7254-9.1266-2.5263-17.905 0.45034-19.853-14.308-28.412-35.933-20.84-7.4294 2.6014-21.85 8.7737-25.667 10.985-2.6601 1.5417-12.988 5.5938-18.888 7.4102-3.7506 1.1548-19.512 4.1258-22.779 4.2937-8.6138 0.44272-11.331-0.0558-9.4982-3.6487 0.73124-1.4334 2.921-4.1749 3.1857-5.9395l0.48113-3.2084-1.5449 0.22408c-1.1006 0.15964-1.7048 0.84458-2.101 2.3818-0.88721 3.4422-12.913 11.423-18.929 12.563-3.8298 0.72548-12.493-4.7589-24.739-15.662-5.7144-5.0874-37.195-25.368-42.521-27.393-7.7458-2.9449-22.338 0.0537-27.78 7.3915-4.0672 5.484-9.0351 7.7997-9.6127 4.2754-0.78968-4.8176-6.4273-1.3464-9.1332 2.0936-1.7414 2.2138-3.565 0.52187-3.8515-1.9686-0.25524-2.2183-3.773-1.2073-5.5328 0.75-0.66138 0.73561-2.1389 1.2488-3.3503 1.0833-2.6716-0.36498-1.7644-0.32025-2.594 1.1235-4.1097 7.1514-5.8299-5.0619 3.5214-17.79 6.7335-9.1651 8.4164-10.312 32.175-14.769 21.277-3.9918 22.337-3.972 33.492 0.62683 6.398 2.6377 16.007 5.8504 17.498 5.8504 1.7684 0 1.8223-0.56498 0.47646-5-0.55633-1.8333-1.3174-4.4686-1.6913-5.8562-0.79155-2.9377-1.8693-3.5218-16.949-9.1862-20.534-7.7129-29.485-6.8564-34.283-0.83667-4.6498 5.8338-9.7522 7.8928-11.237 4.1508-1.5737-3.9655-8.6361 2.8776-9.735 5.4381-0.58094 1.3537-2.5428-0.1768-3.2225-2.1266-0.69761-2.0012-3.8346-1.6437-5.521-0.1731 0 0-2.5478-0.0544-4.1975-0.93724-1.1048-0.59128-1.8141 1.31-3.0012 3.322-1.6817 2.8503-1.9608 1.872-2.7855-0.76191-1.7463-5.5773 3.4901-16.455 11.43-23.373l1.0867-0.70873 1.2862-0.46718c4.5798-1.6635 17.757-4.3281 20.874-5.0498 17.01-3.4767 20.331-3.9979 25.972-2.4499 8.1627 2.2402 15.876 4.502 20 5.8645 16.719 5.5239 19.955 5.1106 20.905-2.67l0.8037-2.95 2.125-1.7841 2.5-1.2216v-3.235c0-5.4156 2.6101-9.9885 5.7012-9.9885 2.4919 0 3.031-1.3944 2.5481-6.5909-0.48646-5.234 0.10913-6.526 3.9158-8.4945l1.8349-0.94887v-3.9515c0-4.5978 0.96638-7.149 2.9345-7.747 5.5569-1.6883 4.3396-11.429-1.253-10.027-9.5498 2.3947-15.208 3.8838-17.682 4.6536-5.5974 1.7418-8.2033-0.90553-10.396-10.561-0.5967-2.6281 0.55924-3.2236 3.9937-2.0576 3.181 1.08 7.4562 1.3786 9.3472 0.65292 1.124-0.43131 1.5107-7.8146 0.63786-12.179-0.663-3.315-5.1683-2.2347-12.426 2.9797-4.7511 3.4133-4.9653 3.2359-8.0553-6.6693-1.9459-6.2378-1.7728-6.9471 1.4696-7.0628 5.3664-0.1916 6.6964-1.763 6.4898-4.8584-0.30494-4.5692-3.1674-5.0755-3.957-0.82674l0.125 2.1043-3.0958 0.25c-3.3705 0.27218-4.0251-0.93595-4.1333-5.1377-0.125-4.8507 0.45469-4.0755 8.8405-10.22 3.9582-2.9004 5.8741-4.448 7.7439-7.6667 4.5844-7.8914 9.6337-10.882 23.016-13.631 3.6303-0.74572 9.1698-2.4033 12.31-3.6836 10.343-4.2167 12.786-3.6268 39.089 9.4391 5.0739 2.5204 16.602 3.0151 21.469 0.92132 5.7306-2.4652 6.0089-0.61074 0.7698 5.1303-4.3725 4.7914-3.1621 7.1273 4.722 9.1131 4.8809 1.2294 3.0872 5.8522-3.1022 7.9951-5.7911 2.0049-1.2581 9.041 5.8415 9.0671 1.8528 0.0068 3.3 1.0978 3.3 2.4878 0 1.0425-5.2131 6.8518-6.1487 6.8518-3.2055 0-5.4835 4.3326-2.812 5.3483 12.124 4.6095 12.634 5.6198 6.2478 12.367-4.8171 5.0894-5.3631 6.546-2.9538 7.8798 0.73333 0.40597 1.4833 0.91877 1.6667 1.1396 0.18333 0.2208 1.4583 0.92998 2.8333 1.576 3.9031 1.8337 2.4815 5.4724-3.8127 9.759-4.2249 2.8773-2.5878 4.8226 5.661 6.7266 4.3904 1.0134 4.3214 2.2609-0.34827 6.2924-5.282 4.5602-5.0561 6.2193 1.1598 8.5156 5.0675 1.8721 4.3164 4.4017-2.6255 8.8424-6.0099 3.8445-5.6325 6.1317 1.1973 7.2557l4.2684 0.70242-0.11473 2.2976c-0.11648 2.3324-5.3139 7.9168-7.3996 7.9505-4.0946 0.0663-2.0548 4.8173 3.0345 7.0681l3.5736 1.5804 8.7864-1.3123c19.44-2.9035 40.802-2.3782 56.015 1.3775 7.4755 1.8455 10.568 3.185 20.538 8.8969 2.8079 1.6086 8.6111 7.3378 11.28 11.136l1.0467 1.4896 3.9533-0.63155c19.026-3.0394 31.715 9.4204 43.973 43.179 0.88607 2.4401 2.5088 5.8901 3.6062 7.6667 1.0973 1.7766 2.5017 4.1301 3.1208 5.2301 9.5867 17.034 28.022 23.797 37.194 13.645 7.2855-8.0642 0.29878-25.323-14.061-34.735-26.071-17.087-30.695-20.823-38.304-30.948-6.1084-8.1275-7.0079-10.427-8.7221-22.295-3.5248-24.404 14.007-46.315 35.985-44.971 14.358 0.87793 27.359 11.104 28.357 22.304 1.0861 12.187 8.9083 19.184 16.364 14.638 4.9817-3.0372 5.3753-0.8812 0.6578 3.6034-14.722 13.995-41.906-1.9588-32.217-18.908 5.229-9.1473-9.1575-16.66-21.277-11.111-14.026 6.4215-21.465 26.809-15.121 41.445 5.377 12.404 12.243 19.565 28.398 29.616 21.339 13.276 29.352 22.396 33.726 38.384 4.9861 18.224-11.659 32.17-32.687 27.388-10.965-2.4938-19.55-9.2262-27.538-21.594-1.9418-3.0065-11.296-22.576-12.17-25.46-3.6943-12.192-15.722-21.227-23.042-17.31-1.0258 0.68588 0.41287 1.9372 1.5648 3.8533 0.78235 1.3013 2.6931 4.3172 4.0699 8.0867 0.3584 0.98122 1.5056 4.6343 1.7759 9.1739l0.48557 8.1574 2.5001 4.8527c1.3751 2.669 3.7333 6.504 5.2405 8.5222s3.6307 5.0182 4.7188 6.6667c3.7191 5.6341 12.954 14.841 16.922 16.869 0.97168 0.4968 4.2113 2.1588 7.1992 3.6934 3.0993 1.5918 6.4636 3.9314 7.8333 5.4476l2.4009 2.6575v4.9756c0 20.604 2.5898 36.695 5.5674 50.706 2.8576 13.446 4.7398 17.267-0.69481 21.327-1.3966 1.0433-4.4558 2.764-5.7841 4.6331-1.8213 2.5629-3.5255 4.0051-5.5695 4.4521-2.6269 0.57452-2.7617 1.3525-2.7617 1.3525-0.62611 2.2135-2.2912 4.972-5.2827 5.0604-1.7769 0.0525-2.2183 0.216-2.9384 1.9402-1.0789 2.5834-6.5531 3.3445-8.3104 1.9694-5.6292-4.4044-1.5372-12.044 6.7389-23.714 6.7006-9.4489 6.9122-9.4466 5.3948-26.372-2.802-31.255-4.1311-34.68-16.026-41.3-8.8467-4.9232-12.578-8.1506-15.318-13.248-1.3822-2.5715-3.6817-3.3682-3.6817-1.2755 0 2.7471 4.0324 8.2925 10.294 14.156 2.545 2.3833 6.4146 6.0549 8.5989 8.1589l3.9716 3.8256-0.44504 6.3312c-0.24477 3.4822-0.70117 7.0107-1.0142 7.8411s-0.93604 6.1598-1.3844 11.843c-0.44838 5.6833-1.2357 12.733-1.7496 15.667-1.4681 8.3799-2.504 29.097-1.6532 33.064 2.0799 9.6981-0.47235 10.237-8.5721 14.711-2.857 1.5781-3.3721 2.7824-4.4721 3.5352-2.1256 1.4547-4.6028 2.3868-6.428 1.8983 0 0-2.5065 0.4404-2.8461 1.7393-0.55529 2.1234-6.1456 4.5404-7.633 3.3857 0 0-1.4536-0.6341-3.6235 1.6667-2.4169 2.5626-4.7487 1.9776-6.2992 1.0146zm-157.64-190.64c8.3145-3.0654 13.018-5.0326 3.2046-5.2826l-4.9328-0.8125-5.2154-2.5653c-11.915-5.8608-17.964-5.5749-8.5646 2.7069 8.0532 7.0954 9.6051 8.1299 15.508 5.9535zm11.593-12.926c5.01-2.1475 3.8708-4.6562-2.1258-4.6813-1.1996-5e-3 -4.9006-1.0718-8.2246-2.3707-7.4886-2.9262-9.6336-3.379-10.926-2.3064-1.6335 1.3557-1.1716 3.2126 1.09 4.3821 1.1504 0.59489 2.7889 1.834 3.6411 2.7536 3.2746 3.5334 11.051 4.5781 16.545 2.2228zm-45.966-2.6935c1.6863-0.19458-0.75817-2.7211-2.8541-6.033-1.0316-1.6301-2.8764-4.8444-4.0994-7.1428-2.2398-4.2091-4.0278-5.4743-6.4324-4.5516-0.77158 0.29609-0.94167 0.83654-0.59963 1.9052 0.26262 0.82055 0.71939 3.6357 1.015 6.2559 0.75698 6.7085 2.0982 8.4177 7.6587 9.7596 2.0707 0.49972 1.8217 0.20934 3.0136 0.0718zm17.688-2.6167c0-2.2585-14.775-12.713-17.967-12.713-4.2568 0 2.2269 8.9107 8.6336 11.865 5.6842 2.6213 9.3333 2.953 9.3333 0.84833zm35.176-2.677c0.6367-0.34663 2.2525-0.80457 3.5906-1.0176 5.0859-0.8098 5.1317-3.9416 0.0664-4.5415-1.8072-0.21404-5.0588-1.0378-7.2259-1.8307-2.1671-0.79282-5.0652-1.5942-6.4402-1.7808l-2.5-0.33925v1.9667c0 2.2677 0.93451 3.2154 6 6.0842 3.9667 2.2466 4.7428 2.4205 6.509 1.4589zm-22.629-6.1758c-0.12546-0.86729-0.82268-1.6209-1.6961-1.8333-0.81568-0.19836-3.7876-2.3107-6.6043-4.694-5.9236-5.0122-8.2461-6.6561-9.4127-6.6623-1.2525-7e-3 -1.0031 1.9028 0.49774 3.8108 0.73209 0.9307 1.6439 2.8538 2.0262 4.2736 0.89033 3.3064 2.7416 4.482 8.7825 5.5767 6.6888 1.2122 6.6506 1.215 6.4066-0.47154zm38.114-5.5173c2.0134-0.53578 3.7634-1.2822 3.8889-1.6588 0.12552-0.37654 0.65321-0.68462 1.1726-0.68462 0.51945 0 0.94445-0.4364 0.94445-0.96979 0-1.0223-1.3714-1.3502-8.4933-2.0307-4.7466-0.45356-6.7672-1.0526-12.819-3.7999-6.0362-2.7405-8.0214-3.0756-8.0214-1.3542 0 0.73994 0.51948 1.6633 0.66644 2.221 0.35091 1.3316 0.89112 1.6387 1.4713 3.0297s2.8735 2.879 4.0268 4.0707l2.472 1.6042 5.3276 0.5545c3.1364-5e-3 7.3499-0.44627 9.3632-0.98204zm-63.327-4.1418c0-0.62249-3.1187-4.2505-6.9305-8.0623-8.6114-8.6114-9.4028-8.7155-9.4028-1.2372 0 6.0306 0.32924 6.4579 6.3088 8.1864 2.0302 0.58687 4.2912 1.3118 5.0246 1.6108 2.4325 0.99206 5 0.73646 5-0.49776zm32.667-1.5349c0-0.73333-0.34643-1.3333-0.76984-1.3333s-3.2186-2.55-6.2115-5.6667c-4.2883-4.4656-5.8372-5.6667-7.3079-5.6667h-1.8662l0.47472 1.8333c0.2611 1.0083 0.62282 3.2255 0.80381 4.927 0.44255 4.1605 4.9763 6.5803 13.377 7.1398 1.0888 0.0725 1.5-0.26558 1.5-1.2334zm47.915-7.9985c3.8058-1.8149 2.755-3.2099-5.6013-5.3349-0.5513-0.1402-1.9472-0.675-3.0629-1.5l-3.0912-1.0625-6.8818-0.4839c-8.3656-0.58823-8.6063 0.045-6.8015 2.9032 4.2742 6.7691 17.749 9.145 25.439 5.4781zm-71.248 0.3008c0-0.56706-0.95903-1.5421-2.1312-2.1667s-2.7472-1.8594-3.5-2.7439c-8.7796-10.315-13.702-13.804-13.702-9.7108 0 1.1461 0.40534 3.4226 1.5417 3.9403 1.4817 2.1732 1.811 2.7169 2.5442 4.2982 1.8106 3.9049 1.1134 4.2556 5.3308 5.9163 4.4055 1.7348 9.9167 1.994 9.9167 0.46652zm39.333-1.65c0-1.0008-1.1065-1.8762-4.2992-3.4012-2.3645-1.1295-5.7242-3.3997-7.466-5.0449-8.2303-7.7743-13.12-9.2101-10.568-3.1034 0.55 1.3163 1 2.9044 1 3.529 0 2.1983 2.7021 3.9596 12.333 8.0392 4.4088 1.8675 9 1.8579 9-0.0187zm-32.812-9.6524c0.13507-0.95965-0.62468-1.8218-2.7109-3.0763-2.7756-1.669-5.3729-5.6584-6.7895-10.429-0.58496-1.9697-6.1068-6.1617-8.1165-6.1617-1.868 0-2.1442 2.5809-0.5708 5.3333 0.52401 0.91666 0.96339 3.1381 0.97637 4.9366 0.0457 6.3259 16.388 15.248 17.211 9.3968zm70.858-1.9874c2.298-0.83083 3.3266-2.6005-2.6108-3.2485-1.2421-0.13556-5.9293-2.2534-10.448-4.4899-12.45-6.162-15.718-5.5978-9.8385 1.6987 5.4337 6.7435 13.92 9.2856 22.898 6.0396zm-30.261-0.74651c0.22563-0.58797-8e-3 -1.325-0.52092-1.641-4.3657-2.692-9.9305-7.3414-9.9305-8.2968 0-2.2857-11.886-10.328-15.263-10.328-1.7844 0-1.8725 2.0353-0.15546 3.5892 0.68625 0.62104 1.6345 2.9519 2.1073 5.1797 1.0228 4.8198 2.9757 7.3775 6.436 8.4291 12.729 3.8686 16.747 4.58 17.327 3.068zm-33.118-10.496c0-0.85984-0.57237-2.0813-1.2719-2.7144-0.69956-0.6331-2.1617-3.0139-3.2493-5.2906-1.0875-2.2767-3.1402-5.4103-4.5614-6.9634s-3.1231-3.5688-3.7818-4.4794c-1.5599-2.156-4.4689-2.2914-4.4689-0.20803 0 0.79613 0.48064 1.9786 1.0681 2.6277 0.58745 0.64912 1.2813 2.9227 1.5419 5.0525 0.79382 6.488 2.6977 8.8215 10.05 12.318 3.3978 1.6159 4.673 1.5224 4.673-0.34271zm63.332-5.3693c3.758-1.8526 4.2466-3.448 1.2024-3.9253-5.9036-0.9257-21.111-6.7127-22.179-8.4396-0.23878-0.38635-1.4664-0.70247-2.7281-0.70247-2.9618 0-3.3401 1.4959-0.73593 4.3333 2.4419 2.6606 2.4419 2.2511 2.4419 2.6606 0 1.2052 4.0784 4.7631 7.5669 6.6012 3.9274 2.0693 9.583 1.8625 14.431-0.52776zm-27.332-1.5921c0-0.76541-1.5394-2.0767-4.3059-3.6679-3.0522-1.7555-5.3735-3.8146-7.9726-7.072-4.6567-5.8363-6.6616-7.4021-9.4781-7.4021-2.4799 0-2.0451 0.79908-1.5086 3.2008 0.32903 1.4729 0.74917 2.4432 1.0442 3.2761 1.5468 4.3663 3.6631 7.1771 6.3637 8.8565 0.58088 0.36121 2.4198 0.6 3.8572 1.3333 1.4374 0.73334 3.4196 1.0038 4.2674 1.3333 0.90964 0.35355 2.0659 0.66666 2.0659 0.66666 1.4822 0.0208 5.6667 0.80841 5.6667-0.52467zm-30-9.2368c0-0.60213-1.2805-2.6271-2.8455-4.5s-3.284-4.2645-3.8201-5.3147c-1.488-2.9154-7.2032-7.7572-9.1565-7.7572l-1.1476 0.48614-0.0394 1.6805c-0.0286 1.2215 0.71862 3.4987 0.99687 5.1267 0.35101 2.0537 1.0938 3.4547 2.4257 4.5754 1.0559 0.88845 2.6994 2.2933 3.6523 3.1219 3.9169 3.4061 9.9342 4.9695 9.9342 2.5812zm58.849-4.3518c3.4064-1.6338 2.1746-3.403-3.1821-4.5704-2.5667-0.55934-7.4357-2.4343-10.82-4.1667-7.1805-3.6754-8.18-3.8416-8.18-1.3602 0 3.4966 2.6221 7.599 5.7378 8.9773 1.5805 0.69913 3.0783 1.6022 3.3284 2.0069 0.60563 0.97993 10.638 0.30144 13.116-0.88703zm-31.585-4.4963c1.2411-0.78584 0.47459-2.5977-1.4134-3.341-0.8344-0.32852-3.1671-2.3084-5.1838-4.3997-4.9618-5.1454-8.4863-7.6496-10.767-7.6496-2.1035 0-2.4434 1.4271-1.1129 3.355 0.54999 1.2153 0.94317 1.7305 1.4756 2.7918 2.6457 5.2737 12.673 11.984 17.001 9.2435zm-23.264-6.9754c0-0.87177-0.43934-1.9497-0.97631-2.3953s-2.0793-2.5074-3.4274-4.5816c-3.1595-4.8614-8.2124-10.105-9.738-10.105-1.2948 0-0.84894 2.2946-0.54439 3.6547 0.35604 1.5901 0.84678 1.9627 1.0905 3.8727 0.82258 6.4453 13.595 15.421 13.595 9.5542zm50.333-5.7483c0.22661-0.36667 1.0142-0.66667 1.7503-0.66667 3.2201 0 1.23-3.6003-2.417-4.3724-4.6905-0.99307-11.163-4.3273-14.663-7.5528-3.2557-3.001-6.3373-3.7254-6.3373-1.4898 0 0.68843 0.42099 1.6011 0.93553 2.0281 0.51453 0.42703 1.7378 2.4163 2.7184 4.4205 1.9493 3.9842 4.7305 6.489 8.3461 7.5164 3.0998 0.88084 9.1492 0.95383 9.6667 0.11663zm-23-2.2131c0-0.85055-0.675-2.1558-1.5-2.9005-0.825-0.74473-2.6055-2.7077-3.9567-4.362-1.3512-1.6544-3.8776-3.9492-5.6143-5.0995-5.4668-3.621-11.19-2.2506-6.8426 1.6385 0.78085 0.6985 1.9553 2.5102 2.6099 4.0261 2.4972 5.7828 15.304 11.387 15.304 6.6975zm-22.667-6.1739c0-4.0952-10.489-16.28-14.014-16.28-1.5415 0-1.9859 0.2984-1.9859 1.3333 0 0.73333 0.31186 1.3952 0.53409 1.6869 0.84182 1.1049 0.97603 2.0232 0.97603 2.0232l1.0494 1.9444c0.35833 0.54863 0.75149 1.749 1.2878 3.0919 1.206 3.02 5.1244 5.8412 7.0986 7.0288 1.102 0.66291 2.0541 1.1528 2.0541 1.1528 1.3228 0.74237 3-0.2148 3-1.9818zm46.403-9.9324c3.3249-1.3892 2.9743-3.6517-0.73627-4.7506-1.4667-0.43437-4.1667-1.4431-6-2.2416-7.9866-3.4786-13.008-4.7112-12.99-3.1883 0.0118 0.97976 1.4531 5.1667 2.1535 6.2559 0.76935 1.1964 6.5314 3.6843 9.8283 4.2436 4.5579 0.77323 5.193 0.74707 7.7444-0.31898zm-77.801-2.4467c1.7053-4.8918 0.82191-16.567-1.2535-16.567h-1.1761l0.0293 9.3333c0.0303 9.651 0.77514 11.896 2.4003 7.2339zm54.065 0.12871c0-1.5744-11.935-13.784-14.384-14.715-4.5743-1.7391-6.6491 0.30097-3.2829 3.2279 0.91667 0.79703 1.6667 2.1561 1.6667 3.0202 0 1.8796 3.3604 6.7152 5.4402 7.8283 4.2836 2.2925 10.56 2.6721 10.56 0.63873zm-19.343-2.1959c-0.0331-2.8472-2.8932-8.8762-5.5344-11.667-4.3261-4.5706-7.1277-0.26037-4.0485 6.2285 2.1105 4.4475 9.621 8.7096 9.5829 5.4381zm18.01-15.423c0-0.9907-0.67665-2.0333-1.7952-2.7663-3.2507-2.1299-5.5381-5.1524-5.5381-7.3177 0-5.3435-5.5926-11.552-10.95-12.156-3.4146-0.38488-4.3143 1.0544-1.661 2.6573 1.7446 1.0539 3.9446 5.2376 3.9446 7.5013 0 4.6064 4.1417 9.6447 10.104 12.291 4.1372 1.8365 5.8962 1.7737 5.8962-0.21022zm24.667-0.07545c0-0.54933-1.425-1.8783-3.1667-2.9533-5.6294-3.4745-9.5857-6.3341-11.733-8.4805-2.4084-2.4073-5.7451-4.2341-7.7338-4.2341-1.7991 0-1.8503 2.6888-0.0817 4.2894 0.70662 0.63948 1.4818 2.329 1.7226 3.7545 0.61219 3.6235 2.948 6.8101 5.6824 7.7519 3.584 1.2344 15.31 1.1365 15.31-0.12781zm-60.051-3.8346c0.43386-1.5583 0.8391-7.6333 0.90052-13.5l-1.3025-9.3408-2.2568-6.8202c-2.9133-8.8042-5.7766-7.2085-2.9754 1.3728 2.8069 8.5987 3.6614 16.999 2.6742 26.288l-0.5137 4.8333h1.3424c1.0111 0 1.5371-0.69922 2.1313-2.8333zm16.705-0.33333c-7e-3 -0.64167-1.0569-3.2278-2.3333-5.7469-1.2765-2.5191-2.3209-5.1224-2.3209-5.7849 0-1.5902-3.2236-4.0796-4.9609-3.8311-1.8627 0.26644-2.0914 2.6406-0.40176 4.1698 1.0756 0.97344 1.3627 2.052 1.3627 5.1202v3.887l2.5 1.6372c3.0292 1.9837 6.1725 2.2641 6.1542 0.54893zm-46.036-9.4562c0.8198-0.51881 0.80221-1.0664-0.12664-3.9424-0.85652-2.652-0.92366-3.7506-0.32604-5.3338 1.064-2.8189-0.15958-4.1008-3.9143-4.1008-3.4343 0-3.687 0.82532-1.585 5.1759 0.73333 1.5178 1.3333 3.9242 1.3333 5.3474 0 3.473 1.8419 4.6111 4.6187 2.8537zm16.725-4.0225c0.4452-1.0017-4.6645-4.4308-6.4688-4.4477-2.4752-0.02327-0.55399 3.3535 2.4167 4.4889 1.7667 0.67526 3.3865 1.4564 3.8021 0.52131zm65.856-2.8035c0.14137-0.74497-0.85345-1.7222-2.994-2.941-1.7632-1.004-4.1057-2.6409-5.2057-3.6377-3.6403-3.2986-9-4.6728-9-2.3075 0 5.2869 16.286 13.701 17.2 8.8862zm-19.461-2.1661c0.21684-0.56508-1.1619-2.5632-3.4109-4.9433-2.0762-2.1972-5.5014-5.8204-7.6116-8.0515-4.3613-4.6114-6.7167-5.3612-6.7167-2.1383 0 1.0551 0 0 0.8125 2.3733 0.2315 0.67621 1.0126 1.5892 1.2023 1.9566 0.633 1.2259 0.60148 1.5017 1.3185 2.4184 0.71702 0.91667 1.0045 2.2321 1.3185 2.7171 2.4252 3.7463 11.923 8.7007 13.087 5.6678zm-18.406-6.141c0-2.1703-11.338-13.669-13.258-13.445-3.0719 0.35782-0.92065 8.5106 2.755 10.441 0.82655 0.43408 2.5222 1.5328 3.7681 2.4416 2.6735 1.9502 6.7348 2.2897 6.7348 0.56296z" style="fill:#c00;stroke-width:.66667"/></svg>
