<?xml version="1.0" encoding="UTF-8"?>
<svg style="enable-background:new 0 0 300 300" version="1.1" viewBox="0 0 300 300" xml:space="preserve" xmlns="http://www.w3.org/2000/svg">
<g id="XMLID_496_">
	<path id="XMLID_497_" d="m5.299 144.64 69.126 25.8 26.756 86.047c1.712 5.511 8.451 7.548 12.924 3.891l38.532-31.412c4.039-3.291 9.792-3.455 14.013-0.391l69.498 50.457c4.785 3.478 11.564 0.856 12.764-4.926l50.911-244.89c1.31-6.316-4.896-11.585-10.91-9.259l-283.7 109.44c-7.001 2.7-6.94 12.612 0.081 15.243zm91.57 12.066 135.1-83.207c2.428-1.491 4.926 1.792 2.841 3.726l-111.5 103.64c-3.919 3.648-6.447 8.53-7.163 13.829l-3.798 28.146c-0.503 3.758-5.782 4.131-6.819 0.494l-14.607-51.325c-1.673-5.854 0.765-12.107 5.943-15.303z"/>
</g>















<path d="m238.74 280.36c-1.6117-0.48901 0.32974 0.88799-38.327-27.184-18.616-13.519-34.559-24.979-35.428-25.468-1.225-0.6884-2.2414-0.92272-4.5214-1.0424-2.7111-0.1423-3.1171-0.0697-5.1894 0.92802-1.593 0.76694-8.085 5.85-22.276 17.441-14.096 11.514-20.44 16.482-21.419 16.776-3.3416 1.0012-6.4051 0.16848-8.6856-2.3609-1.0582-1.1738-1.6039-2.3679-2.7523-6.0236-0.78779-2.5078-6.8859-22.106-13.551-43.552s-12.245-39.118-12.399-39.272c-0.15374-0.15375-15.97-6.1336-35.148-13.289-21.818-8.1401-35.331-13.362-36.105-13.952-1.6345-1.2466-2.9336-4.0723-2.9381-6.3903-0.0042875-2.218 1.3643-5.153 2.9728-6.3754 1.2808-0.9734 285.89-110.87 288.01-111.21 4.351-0.69576 9.0016 3.3922 9.0123 7.9218 5e-3 2.2279-51.18 248.03-51.879 249.13-2.1262 3.3522-5.9577 4.9525-9.3751 3.9156zm-128.49-54.978c0.66379-0.27736 1.364-0.79844 1.556-1.158 0.19201-0.35952 1.25-7.3876 2.3511-15.618 1.3446-10.05 2.2937-15.922 2.8904-17.88 1.8481-6.066-1.2378-2.9893 61.322-61.142 33.132-30.797 56.894-53.142 57.012-53.611 0.30973-1.2339-0.74926-2.5805-2.0294-2.5805-0.78468 0-8.1661 4.3731-27.872 16.513-14.742 9.0819-45.243 27.861-67.778 41.732-22.536 13.871-41.635 25.754-42.442 26.407-3.0711 2.4842-5.0007 7.015-4.6793 10.988 0.15236 1.8833 13.495 49.821 15.115 54.307 0.40761 1.1284 0.86277 1.6814 1.6748 2.0348 1.4098 0.61352 1.4319 0.61359 2.8793 9e-3z" style="fill:#f00;stroke-width:.3563"/></svg>
