<?xml version="1.0" encoding="UTF-8"?>
<svg class="svg-inline--fa fa-twitter fa-w-16" aria-hidden="true" data-icon="twitter" data-prefix="fab" focusable="false" role="img" version="1.1" viewBox="0 0 512 512" xmlns="http://www.w3.org/2000/svg"><path d="m459.37 151.72c0.325 4.548 0.325 9.097 0.325 13.645 0 138.72-105.58 298.56-298.56 298.56-59.452 0-114.68-17.219-161.14-47.106 8.447 0.974 16.568 1.299 25.34 1.299 49.055 0 94.213-16.568 130.27-44.832-46.132-0.975-84.792-31.188-98.112-72.772 6.498 0.974 12.995 1.624 19.818 1.624 9.421 0 18.843-1.3 27.614-3.573-48.081-9.747-84.143-51.98-84.143-102.98v-1.299c13.969 7.797 30.214 12.67 47.431 13.319-28.264-18.843-46.781-51.005-46.781-87.391 0-19.492 5.197-37.36 14.294-52.954 51.655 63.675 129.3 105.26 216.36 109.81-1.624-7.797-2.599-15.918-2.599-24.04 0-57.828 46.782-104.93 104.93-104.93 30.213 0 57.502 12.67 76.67 33.137 23.715-4.548 46.456-13.32 66.599-25.34-7.798 24.366-24.366 44.833-46.132 57.827 21.117-2.273 41.584-8.122 60.426-16.243-14.292 20.791-32.161 39.308-52.628 54.253z" fill="currentColor"/><path d="m142.9 463.6c-24.521-2.1119-38.218-4.295-56.932-9.0744-25.645-6.5494-53.959-18.338-76.729-31.946-5.1204-3.0602-9.2249-5.6423-9.1211-5.738 0.10377-0.0958 3.0618 0.0972 6.5735 0.42872 8.6916 0.82059 37.501 0.19498 45.91-0.99695 36.997-5.2443 71.07-19.009 98.549-39.811l3.7856-2.8658-7.2359-0.72347c-16.84-1.6837-31.821-6.7418-45.845-15.479-18.558-11.562-33.943-29.842-41.946-49.839-2.7189-6.7932-2.7372-7.4321-0.19776-6.9242 4.8188 0.96376 18.832 1.5244 25.154 1.0063 7.9367-0.65047 18.751-2.4891 18.074-3.0729-0.26148-0.22533-2.3908-0.90561-4.7319-1.5117-18.614-4.8192-38.224-17.018-51.179-31.837-15.808-18.082-24.766-39.939-26.141-63.786-0.42341-7.3421-0.18089-7.9093 2.5609-5.9888 2.0296 1.4216 12.704 5.8002 18.046 7.4025 6.5841 1.9747 15.384 3.7164 21.445 4.2444l4.8646 0.42378-3.9525-2.9101c-13.254-9.7584-23.937-22.541-31.493-37.68-12.33-24.708-14.406-53.033-5.8159-79.354 2.3034-7.0575 8.4159-20.292 9.2226-19.968 0.2825 0.11331 3.0917 3.216 6.2428 6.8949 29.956 34.974 71.711 64.55 115.3 81.666 28.666 11.257 55.512 17.504 86.781 20.193 3.9797 0.34226 7.339 0.51904 7.4652 0.39284s-0.18844-2.7988-0.69921-5.9392c-2.7634-16.99-1.3761-35.075 3.9249-51.169 2.5208-7.6528 8.9112-20.214 13.841-27.206 5.9292-8.41 18.338-20.592 26.553-26.068 24.657-16.436 52.58-21.973 81.233-16.107 17.313 3.5441 36.27 13.356 49.041 25.382 3.0602 2.8818 5.9477 5.2397 6.4167 5.2397 1.7496 0 18.051-4.2666 24.485-6.4084 12.997-4.3268 25.459-9.7379 35.624-15.468 3.0594-1.7246 5.6412-3.0491 5.7376-2.9433 0.41068 0.45116-5.821 14.759-8.2671 18.981-8.5325 14.727-22.117 29.158-34.627 36.784-2.0687 1.2611-2.0751 1.278-0.48458 1.2803 2.779 4e-3 15.697-2.3529 23.623-4.3098 8.4188-2.0786 21.625-6.3397 28.459-9.1825 2.442-1.0158 4.6013-1.6857 4.7984-1.4886 0.38766 0.38767-6.6216 9.9888-11.604 15.895-10.639 12.612-22.676 24.314-33.967 33.023l-5.9287 4.5732v12.852c0 32.867-5.0784 63.63-15.814 95.794-23.493 70.387-71.259 129.87-132.58 165.11-35.672 20.497-73.136 32.351-117.33 37.124-8.3202 0.89864-44.414 1.6805-51.078 1.1065z" style="fill:#f00;stroke-width:.60808"/></svg>
