<?xml version="1.0" encoding="UTF-8"?>
<svg class="svg-inline--fa fa-vk fa-w-18" aria-hidden="true" data-icon="vk" data-prefix="fab" focusable="false" role="img" version="1.1" viewBox="0 0 576 512" xmlns="http://www.w3.org/2000/svg"><path d="M545 117.7c3.7-12.5 0-21.7-17.8-21.7h-58.9c-15 0-21.9 7.9-25.6 16.7 0 0-30 73.1-72.4 120.5-13.7 13.7-20 18.1-27.5 18.1-3.7 0-9.4-4.4-9.4-16.9V117.7c0-15-4.2-21.7-16.6-21.7h-92.6c-9.4 0-15 7-15 13.5 0 14.2 21.2 17.5 23.4 57.5v86.8c0 19-3.4 22.5-10.9 22.5-20 0-68.6-73.4-97.4-157.4-5.8-16.3-11.5-22.9-26.6-22.9H38.8c-16.8 0-20.2 7.9-20.2 16.7 0 15.6 20 93.1 93.1 195.5C160.4 378.1 229 416 291.4 416c37.5 0 42.1-8.4 42.1-22.9 0-66.8-3.4-73.1 15.4-73.1 8.7 0 23.7 4.4 58.7 38.1 40 40 46.6 57.9 69 57.9h58.9c16.8 0 25.3-8.4 20.4-25-11.2-34.9-86.9-106.7-90.3-111.5-8.7-11.2-6.2-16.2 0-26.2.1-.1 72-101.3 79.4-135.6z" fill="currentColor"/><path d="m277.28 415.58c-0.8361-0.1413-3.9829-0.55579-6.9929-0.92106-51.325-6.2286-105.84-39.567-145.58-89.03-19.723-24.55-45.631-64.71-64.495-99.974-20.599-38.509-37.036-81.279-41.102-106.95-1.0599-6.6917-0.63046-11.219 1.4504-15.291 1.4467-2.8313 5.9901-5.8623 10.051-6.7053 2.2162-0.46007 14.668-0.61756 39.367-0.49791l36.125 0.175 3.1631 1.4304c4.0049 1.8111 8.5899 6.6187 11.156 11.697 1.0832 2.1441 4.2189 10.055 6.968 17.58 16.049 43.928 36.69 84.969 57.954 115.23 10.446 14.864 21.537 26.842 28.959 31.273 6.3807 3.8096 13.045 3.1196 15.452-1.5999 2.3913-4.6873 2.5236-7.8052 2.521-59.426-2e-3 -54.116-0.0747-55.517-3.3992-66.121-2.2839-7.285-5.5348-13.173-11.86-21.482-3.0553-4.0133-6.0643-8.3914-6.6866-9.7292-1.4442-3.1041-1.449-7.8142-0.0114-10.979 1.3792-3.0364 5.349-6.5265 8.4962-7.4694 1.707-0.51142 16.231-0.70203 52.755-0.69235 49.359 0.01308 50.456 0.03889 53.125 1.2496 3.4144 1.5488 4.7047 2.7094 6.1412 5.5239 2.5796 5.0543 2.5768 4.9823 2.9426 73.496l0.35235 65.993 1.5562 3.0232c0.85594 1.6628 2.4977 3.6651 3.6485 4.4495 12.032 8.2022 42.857-24.451 73.675-78.044 7.4186-12.901 20.39-38.369 25.996-51.039 7.0352-15.902 8.8856-18.408 16.291-22.068l4.6411-2.2939h75.465l3.4094 1.5987c8.1017 3.799 9.4448 10.638 4.8504 24.697-7.0153 21.468-32.984 65.721-69.673 118.73-11.218 16.208-13.684 20.748-13.684 25.194 0 6.5596 2.258 9.8601 17.306 25.296 57.149 58.624 81.901 92.685 79.699 109.67-0.83821 6.4673-4.9545 11.077-11.728 13.135-4.0479 1.2295-5.1742 1.2597-40.616 1.0897l-36.452-0.17488-3.2801-1.3938c-7.8582-3.3393-12.966-7.828-29.169-25.633-6.5595-7.2082-15.303-16.663-19.431-21.011-18.159-19.127-38.301-35.901-50.723-42.241-8.3739-4.2737-11.4-5.0358-19.008-4.7869-7.1347 0.23346-8.8941 1.0303-10.82 4.9003-2.2249 4.4703-2.4664 8.4631-2.5295 41.824-0.0557 29.426-0.16294 32.789-1.123 35.227-1.7393 4.4156-3.7595 6.5099-8.4955 8.8072-7.1019 3.4449-11.4 4.077-29.331 4.3131-8.6955 0.1145-16.494 0.0926-17.33-0.0488z" style="fill:#f00;stroke-width:.60808"/></svg>
