<?xml version="1.0" encoding="UTF-8" standalone="no"?>
<!-- Created with Inkscape (http://www.inkscape.org/) -->

<svg
   version="1.1"
   id="svg824"
   width="1866"
   height="450"
   viewBox="0 0 1866 450"
   sodipodi:docname="Divider.svg"
   inkscape:version="1.1.1 (3bf5ae0d25, 2021-09-20)"
   xmlns:inkscape="http://www.inkscape.org/namespaces/inkscape"
   xmlns:sodipodi="http://sodipodi.sourceforge.net/DTD/sodipodi-0.dtd"
   xmlns="http://www.w3.org/2000/svg"
   xmlns:svg="http://www.w3.org/2000/svg">
  <defs
     id="defs828" />
  <sodipodi:namedview
     id="namedview826"
     pagecolor="#ffffff"
     bordercolor="#666666"
     borderopacity="1.0"
     inkscape:pageshadow="2"
     inkscape:pageopacity="0.0"
     inkscape:pagecheckerboard="0"
     showgrid="false"
     inkscape:zoom="0.35355339"
     inkscape:cx="642.05295"
     inkscape:cy="902.26825"
     inkscape:window-width="1920"
     inkscape:window-height="1046"
     inkscape:window-x="-11"
     inkscape:window-y="-11"
     inkscape:window-maximized="1"
     inkscape:current-layer="g830"
     width="929px"
     scale-x="1" />
  <g
     inkscape:groupmode="layer"
     inkscape:label="Image"
     id="g830">
    <path
       style="fill:#000000;stroke-width:2"
       d="m 933.97683,448.84715 c -0.89344,0 -3.68284,-4.39478 -6.19868,-9.7662 -3.16748,-6.7627 -4.33274,-12.29842 -3.78902,-18 0.43188,-4.52858 3.1609,-11.66448 2.91972,-11.66448 -0.2412,0 -6.1144,5.2614 -9.90678,7.49896 -3.79238,2.23756 -11.3435,4.59512 -16.7803,5.23902 -6.52502,0.7728 -13.82692,0.0248 -21.48176,-2.2005 -9.00542,-2.61796 -13.92766,-5.70224 -22.02848,-13.80306 -7.35798,-7.35796 -11.47936,-13.58568 -13.98694,-21.1353 -2.58018,-7.76822 -3.28624,-14.46148 -2.57464,-24.40698 0.63708,-8.90422 2.701,-17.18002 5.89316,-23.63022 2.70198,-5.4597 4.18472,-9.47684 3.295,-8.92696 -0.88974,0.5499 -4.42142,5.07484 -7.84816,10.05546 -3.42676,4.9806 -7.8433,13.63546 -9.81454,19.23298 l -3.58406,10.17734 -2.2899,-11.03032 c -1.61122,-7.76122 -1.68834,-13.63982 -0.26024,-19.83504 1.11632,-4.84258 2.05166,-9.43288 2.07854,-10.20066 0.0268,-0.76778 -2.5705,-0.48284 -5.77198,0.6332 -3.20148,1.11606 -9.0399,4.89424 -12.97424,8.39596 -3.93434,3.50174 -8.59026,9.0668 -10.3465,12.3668 l -3.19312,6 1.23848,-11 c 0.68116,-6.05 3.37534,-15.38912 5.98706,-20.7536 l 4.74858,-9.75362 -10.3197,10.06678 c -5.67582,5.53674 -13.82028,12.40086 -18.09878,15.25362 -6.17522,4.11742 -10.21208,5.18682 -19.57966,5.18682 -7.70452,0 -14.4227,-1.3377 -19.35472,-3.85382 -4.15476,-2.1196 -8.54546,-5.0446 -9.75712,-6.5 -1.7927,-2.15336 0.0946,-2.56892 10.1338,-2.23136 l 12.3368,0.41482 -13.68138,-2.82214 c -7.52476,-1.5522 -19.22476,-5.45816 -26,-8.67992 l -12.31862,-5.85778 19,0.92576 c 10.45,0.50914 23.95,0.0586 30,-1.0011 8.9349,-1.56512 3.51724,-1.97074 -28.858,-2.16066 -26.81654,-0.1572 -36.63056,-2.75108 -39.70544,0.94706 -9.90096,11.90782 -10.93496,11.78282 -22.73986,0.125 -2.52474,-2.49328 -63.85208,-1.28616 -286.16956,-1.21895 l -287.527143,0.087 -25.92159,4.6847 -25.92158,4.68471 -11.5054,-8.11382 -11.5054,-8.11384 11.36415,-8.27558 11.36415,-8.27558 27.06284,4.59474 27.06283,4.59474 285.337923,0.023 285.33792,0.023 6.16208,-3.5 6.16208,-3.5 6.16208,3.5 6.16208,3.5 h 113.59302 c 101.20362,0 113.87978,0.3455 116.22196,3.16764 1.90508,2.2955 2.05148,4.08516 0.53172,6.5 -1.26908,2.01654 -5.97826,3.81638 -11.9262,4.55814 -5.40596,0.67418 -13.52542,3.11156 -18.04326,5.4164 -4.51784,2.30482 -11.92804,8.40966 -16.4671,13.56632 -4.87178,5.53464 -9.47808,13.50158 -11.24356,19.4466 -1.6449,5.539 -2.98572,12.83256 -2.97958,16.2079 0.006,3.37536 0.88762,9.287 1.95888,13.137 1.07126,3.85 4.7533,10.40112 8.1823,14.55804 3.42902,4.15692 9.89834,9.42718 14.3763,11.71166 6.3409,3.23488 10.84312,3.98158 20.35502,3.37592 8.0365,-0.51174 14.03132,-2.12304 17.52944,-4.71166 2.9239,-2.16368 7.17708,-7.2065 9.45154,-11.20626 2.53738,-4.46218 4.13536,-10.8494 4.13536,-16.52938 0,-7.67548 -3.77182,-13.53718 -6.92226,-17.83898 -3.76266,-5.13774 -10.86442,-9.30972 -17.67358,-7.85024 l -7.69706,2.18014 6.1929,3.7863 c 6.30202,3.85302 6.9,7.33678 6.9,13.48094 0,5.77294 -1.30388,8.68344 -5.51152,12.3027 -3.12998,2.6923 -8.08478,4.74082 -11.46668,4.74082 -4.1283,0 -8.08206,-2.12692 -12.88846,-6.93334 -4.60828,-4.60812 -6.93334,-8.81042 -6.93334,-12.53106 0,-3.07882 1.66646,-8.73382 3.70322,-12.56666 2.03678,-3.83284 6.66986,-8.9938 10.29576,-11.4688 4.6186,-3.1526 9.51744,-4.5 16.36102,-4.5 5.37266,0 12.66456,1.234 16.20424,2.74224 3.53966,1.50824 8.60812,5.0981 11.26324,7.97748 l 4.82746,5.23524 2.8047,-4.00426 c 1.54258,-2.20234 6.30936,-5.7922 10.59284,-7.97748 4.42184,-2.25584 11.75568,-3.97322 16.96716,-3.97322 5.04846,0 11.7271,1.31768 14.84144,2.92816 3.11436,1.6105 7.90744,5.59618 10.6513,8.85706 2.74384,3.2609 5.62958,9.34444 6.41277,13.51898 l -0.2915,9.30542 -4.23751,7.33844 c -3.0454,5.27394 -12.13526,6.05194 -14.45018,6.05194 -2.3149,0 -6.17476,-1.047 -8.57744,-2.32668 -2.40268,-1.27968 -5.4649,-3.75468 -6.80492,-5.5 -1.34,-1.74532 -2.465,-5.92862 -2.5,-9.2962 -0.036,-3.4705 1.70292,-8.019 4.01432,-10.5 2.24284,-2.40742 5.06492,-3.88394 6,-4.37712 1.67586,-0.88388 3.3363,-1.64644 3.3363,-1.64644 0.98642,-0.4868 -4.15892,-2.35356 -7.51354,-2.35356 -3.35462,0 -8.62098,1.304 -11.703,2.89778 -3.08202,1.59378 -7.08734,5.1621 -8.90068,7.92962 -2.01558,3.07618 -3.2941,9.14014 -3.28952,15.60224 0.004,7.01664 1.3436,12.76178 3.98172,17.08864 2.18584,3.58506 6.90746,8.35798 10.49252,10.60648 5.26178,3.30014 9.72902,5.33464 20.55708,4.79622 11.01754,-0.54784 14.30314,-3.1063 21.26575,-7.99978 4.8871,-3.43482 10.4977,-9.88464 13.2489,-15.2307 3.5251,-6.85 4.7567,-12.45648 4.7137,-21.45718 -0.036,-7.50878 -1.5119,-15.45542 -3.8464,-20.7088 -2.0835,-4.68848 -6.2753,-11.46718 -9.3152,-15.06374 -3.0399,-3.59658 -9.30559,-8.75356 -13.92371,-11.45996 -4.61812,-2.70638 -13.2005,-5.61374 -19.07196,-6.46076 -6.4655,-0.93274 -11.50404,-2.8542 -12.77666,-4.87242 -1.52454,-2.41772 -1.37972,-4.20178 0.52764,-6.5 2.34218,-2.82214 15.01834,-3.16764 116.22199,-3.16764 h 113.593 l 5.9127,-3.39342 5.9127,-3.39342 5.179,3.39342 5.179,3.39342 287.5704,-0.0934 287.5703,-0.0934 25.54,-4.52352 25.54,-4.5235 10.96,7.77512 c 6.028,4.27632 10.96,8.10442 10.96,8.5069 0,0.40248 -4.9117,4.24902 -10.915,8.54786 l -10.915,7.81606 -27.585,-4.68294 -27.585,-4.68292 -284.858,-0.023 c -218.5935,-0.018 -282.9266,-2.4583 -285.5804,0.5328 -10.9702,12.36442 -11.3743,12.13638 -22.1149,0.625 -2.224,-2.38362 -10.419,-1.11022 -39.9195,-0.93698 -33.7768,0.1984 -39.2875,0.59554 -29.5272,2.1281 6.6,1.0363 20.55,1.4415 31,0.90042 16.989,-0.87966 18.4708,-0.68918 14,1.7997 -2.75,1.53092 -9.5,4.32502 -15,6.20912 -5.5,1.8841 -14.95,4.57072 -21,5.9703 l -11,2.54464 12.3368,-0.39808 c 9.404,-0.30344 11.8617,0.1724 10.3382,2.00186 -1.0993,1.31996 -5.81,4.24496 -10.4683,6.5 -5.157,2.49648 -12.4739,4.10006 -18.7079,4.10006 -5.6311,0 -12.5448,-0.87692 -15.3639,-1.94872 -2.819,-1.0718 -10.9549,-7.3718 -18.0797,-14 -7.1249,-6.6284 -13.3966,-12.05148 -13.9373,-12.05148 -0.5406,0 0.8174,3.0514 3.0179,6.7809 2.2004,3.7295 4.5143,11.6045 5.1419,17.5 l 1.1411,10.7191 -4.981,-7.05786 c -2.7396,-3.88184 -9.4806,-9.50684 -14.9801,-12.5 -5.4994,-2.99318 -10.5299,-5.44214 -11.1788,-5.44214 -0.6489,0 -0.3021,2.30858 0.7706,5.1302 1.0728,2.8216 1.8873,10.2466 1.81,16.5 -0.077,6.25338 -0.8807,13.1698 -1.7854,15.3698 l -1.6447,4 -1.4302,-4 c -0.7866,-2.2 -3.5856,-8.5 -6.2199,-14 -2.6344,-5.5 -7.4939,-13.15 -10.7989,-17 l -6.0091,-7 4.8554,9 c 2.6704,4.95 5.918,14.49322 7.2169,21.20714 1.7907,9.25592 1.8074,14.87694 0.069,23.25028 -1.2609,6.07371 -4.9399,15.21764 -8.1756,20.31982 -3.2747,5.16356 -10.0935,11.94684 -15.3793,15.29898 -5.2229,3.31228 -13.11005,6.99718 -17.52695,8.1887 -4.41692,1.1915 -12.40436,1.65006 -17.74986,1.01902 -5.3455,-0.63106 -12.82194,-2.9781 -16.61432,-5.21566 -3.79232,-2.23756 -11.05392,-7.88526 -11.05392,-7.88526 0,0 2.071,5.75391 2.77594,10.16221 1.0113,6.32444 0.59632,11.79109 -3.39616,19.66985 -2.78288,5.49169 -5.79076,9.98492 -6.6842,9.98492 z"
       id="path1154"
       sodipodi:nodetypes="sssssssssssssscsssssscsscsssssscsscsssssscccccccccccccccssssssssssssssssscssssssssssscsssssscssssssssssscssssssssssssscccccccccsssccccsssssssscssssssssscsssssscssscsssssssscssss"
       inkscape:export-filename="C:\xampp\htdocs\wordpress\wp-content\themes\!books\images\Divider.png"
       inkscape:export-xdpi="50"
       inkscape:export-ydpi="50" />
  </g>
</svg>
